<?xml version="1.0" encoding="utf-8"?>
<!-- Generator: Adobe Illustrator 16.0.0, SVG Export Plug-In . SVG Version: 6.00 Build 0)  -->
<!DOCTYPE svg PUBLIC "-//W3C//DTD SVG 1.1//EN" "http://www.w3.org/Graphics/SVG/1.1/DTD/svg11.dtd">
<svg version="1.1" id="Layer_1" xmlns="http://www.w3.org/2000/svg" xmlns:xlink="http://www.w3.org/1999/xlink" x="0px" y="0px"
	 width="1140px" height="500px" viewBox="0 0 1140 500" enable-background="new 0 0 1140 500" xml:space="preserve">
<g>
	
		<rect x="56.782" y="124.767" transform="matrix(0.619 0.7854 -0.7854 0.619 128.7992 -11.4768)" fill="#D3D4D5" width="38.893" height="4.495"/>
	
		<rect x="847.142" y="289.204" transform="matrix(0.9256 0.3786 -0.3786 0.9256 175.7811 -311.1593)" fill="#D3D4D5" width="64.121" height="4.495"/>
	
		<rect x="1063.356" y="268.324" transform="matrix(-0.9967 0.0809 -0.0809 -0.9967 2151.0859 490.9033)" fill="#D3D4D5" width="4.492" height="41.376"/>
	<polygon fill="#D3D4D5" points="99.667,315.521 103.655,317.592 137.908,253.034 133.917,250.961 	"/>
	
		<rect x="185.193" y="198.383" transform="matrix(0.9906 0.1365 -0.1365 0.9906 29.3065 -26.0952)" fill="#D3D4D5" width="39.445" height="4.491"/>
	
		<rect x="978.654" y="235.634" transform="matrix(0.71 0.7042 -0.7042 0.71 472.7746 -613.1609)" fill="#D3D4D5" width="4.495" height="63.679"/>
	
		<rect x="954.31" y="144.703" transform="matrix(0.7476 0.6642 -0.6642 0.7476 347.1517 -619.5283)" fill="#D3D4D5" width="68.637" height="4.494"/>
	
		<rect x="229.535" y="114.139" transform="matrix(0.3111 0.9504 -0.9504 0.3111 292.7522 -171.0903)" fill="#D3D4D5" width="69.708" height="4.496"/>
	
		<rect x="379.884" y="133.709" transform="matrix(0.6359 0.7718 -0.7718 0.6359 265.6582 -235.2443)" fill="#D3D4D5" width="4.493" height="60.403"/>
	<path fill="#818385" d="M932.715,135.709c-37.416,0-67.854-30.438-67.854-67.854C864.861,30.437,895.299,0,932.715,0
		c37.418,0,67.857,30.438,67.857,67.854S970.133,135.709,932.715,135.709z M932.715,4.488c-34.938,0-63.354,28.425-63.354,63.36
		c0,34.938,28.424,63.363,63.354,63.363c34.939,0,63.361-28.432,63.361-63.363C996.077,32.913,967.655,4.488,932.715,4.488z"/>
	<path fill="#C62831" d="M371.855,219.89c0-41.586-33.832-75.416-75.416-75.416c-41.586,0-75.416,33.83-75.416,75.416
		c0,41.584,33.832,75.416,75.416,75.416c31.323,0,58.24-19.199,69.62-46.443l131.831,76.462l2.255-3.888l-132.47-76.832
		C370.373,236.854,371.855,228.544,371.855,219.89z M296.439,290.81c-39.11,0-70.922-31.815-70.922-70.92
		c0-39.11,31.815-70.922,70.922-70.922c39.104,0,70.92,31.812,70.92,70.922C367.359,258.995,335.544,290.81,296.439,290.81z"/>
	<path fill="#C62831" d="M43.045,34.272c-3.991,0-7.979,0.562-11.853,1.67C8.39,42.467-4.86,66.329,1.661,89.142
		c5.256,18.371,22.258,31.2,41.352,31.2c3.988,0,7.978-0.565,11.853-1.675c11.049-3.156,20.204-10.432,25.782-20.479
		c5.578-10.047,6.91-21.666,3.748-32.713C79.142,47.104,62.14,34.272,43.045,34.272z M76.713,96.007
		c-4.988,8.994-13.192,15.512-23.088,18.342c-3.468,0.994-7.043,1.496-10.613,1.496c-17.089,0-32.313-11.49-37.021-27.94
		c-5.843-20.427,6.019-41.798,26.446-47.64c3.466-0.992,7.043-1.496,10.611-1.496c17.096,0,32.317,11.489,37.021,27.938
		C82.901,76.604,81.709,87.009,76.713,96.007z"/>
	<path fill="#C62831" d="M1093.971,310.087c-6.686-2.169-13.607-3.271-20.578-3.271c-13.947,0-27.357,4.312-38.762,12.465
		c-11.637,8.317-20.129,19.932-24.561,33.576c-11.334,34.919,7.848,72.558,42.77,83.896c6.688,2.17,13.611,3.271,20.58,3.271
		c13.951,0,27.355-4.311,38.76-12.466c11.641-8.319,20.131-19.932,24.562-33.575
		C1148.077,359.066,1128.893,321.433,1093.971,310.087z M1132.467,392.596c-4.127,12.728-12.047,23.554-22.896,31.312
		c-10.636,7.604-23.133,11.627-36.146,11.627c-6.496,0-12.953-1.03-19.188-3.053c-32.572-10.574-50.455-45.675-39.886-78.236
		c4.128-12.728,12.046-23.551,22.896-31.312c10.637-7.604,23.137-11.625,36.146-11.625c6.493,0,12.948,1.023,19.188,3.056
		C1125.153,324.936,1143.036,360.034,1132.467,392.596z"/>
	<ellipse fill="#F0EFEF" cx="104.854" cy="458.27" rx="50.791" ry="3.146"/>
	<ellipse fill="#F0EFEF" cx="567.824" cy="491.497" rx="84.954" ry="6.547"/>
	<ellipse fill="#F0EFEF" cx="1070.799" cy="458.27" rx="50.791" ry="3.146"/>
	
		<linearGradient id="SVGID_1_" gradientUnits="userSpaceOnUse" x1="791.2236" y1="350.248" x2="792.2236" y2="350.248" gradientTransform="matrix(153.082 0 0 153.082 -120629.8125 -53268.2422)">
		<stop  offset="0" style="stop-color:#C62831"/>
		<stop  offset="1" style="stop-color:#2C5FA5"/>
	</linearGradient>
	<path fill="url(#SVGID_1_)" d="M568.828,424.981c-42.205,0-76.541-34.336-76.541-76.539s34.336-76.539,76.541-76.539
		c42.206,0,76.54,34.336,76.54,76.539S611.029,424.981,568.828,424.981z M568.828,278.646c-38.486,0-69.797,31.311-69.797,69.797
		c0,38.483,31.311,69.797,69.797,69.797c38.487,0,69.795-31.312,69.795-69.797C638.623,309.956,607.314,278.646,568.828,278.646z"/>
	<path fill="#2C5FA5" d="M835.584,223.681c-8.303-6.183-18.553-9.578-28.854-9.578c-4.484,0-8.965,0.631-13.314,1.875
		c-12.426,3.547-22.721,11.723-28.996,23.021c-3.902,7.023-5.955,14.73-6.098,22.544l-116.527,66.154l2.22,3.907L758.5,266.606
		c0.27,3.072,0.83,6.145,1.697,9.175c5.9,20.661,25.014,35.094,46.482,35.094c4.482,0,8.969-0.632,13.312-1.873
		c12.424-3.55,22.721-11.728,28.996-23.021c6.283-11.297,7.783-24.358,4.223-36.783C850.273,238.883,844.17,230.062,835.584,223.681
		z M845.066,283.796c-5.697,10.242-15.031,17.66-26.303,20.885c-3.949,1.129-8.021,1.699-12.082,1.699
		c-19.477,0-36.812-13.092-42.166-31.83c-3.227-11.271-1.859-23.119,3.83-33.365s15.029-17.664,26.303-20.885
		c3.947-1.134,8.014-1.701,12.078-1.701c19.471,0,36.811,13.088,42.17,31.832C852.117,261.696,850.758,273.552,845.066,283.796z"/>
	<path fill="#2C5FA5" d="M104.508,313.946c-32.209,0-58.408,26.205-58.408,58.414s26.199,58.414,58.408,58.414
		c32.213,0,58.414-26.205,58.414-58.414S136.724,313.946,104.508,313.946z M104.508,426.28c-29.731,0-53.92-24.189-53.92-53.92
		s24.19-53.92,53.92-53.92c29.733,0,53.922,24.187,53.926,53.92C158.435,402.092,134.241,426.28,104.508,426.28z"/>
	<path fill="#2C5FA5" d="M1051,153.212c-32.566,0-59.059,26.491-59.059,59.059s26.496,59.062,59.059,59.062
		c32.568,0,59.061-26.494,59.061-59.062C1110.061,179.7,1083.567,153.212,1051,153.212z M1051,266.838
		c-30.082,0-54.561-24.479-54.561-54.565s24.475-54.563,54.561-54.563c30.088,0,54.568,24.479,54.566,54.563
		C1105.567,242.356,1081.086,266.838,1051,266.838z"/>
	<path fill="#2C5FA5" d="M123.961,127.731c-35.088,0-63.633,28.545-63.633,63.633s28.545,63.635,63.633,63.635
		c35.086,0,63.639-28.547,63.639-63.635S159.049,127.731,123.961,127.731z M123.961,250.508c-32.608,0-59.139-26.534-59.139-59.145
		c0-32.607,26.534-59.138,59.139-59.138c32.612,0,59.141,26.53,59.143,59.138C183.104,223.978,156.569,250.508,123.961,250.508z"/>
	<path fill="#2C5FA5" d="M461.293,45.651c-36.541,0-66.271,29.728-66.271,66.275c0,36.541,29.726,66.271,66.271,66.271
		s66.28-29.728,66.277-66.271C527.57,75.381,497.836,45.651,461.293,45.651z M461.293,173.7c-34.059,0-61.775-27.715-61.775-61.773
		c0-34.066,27.716-61.781,61.775-61.781c34.069,0,61.782,27.715,61.781,61.781C523.075,145.985,495.359,173.7,461.293,173.7z"/>
	<path fill="#C2C1C0" d="M938.877,279.204c-18.479,0-33.521,15.041-33.521,33.528c0,18.483,15.041,33.524,33.521,33.524
		c18.486,0,33.527-15.041,33.527-33.524C972.405,294.244,957.364,279.204,938.877,279.204z M938.877,341.759
		c-16.006,0-29.027-13.021-29.027-29.032c0-16.007,13.02-29.032,29.027-29.032s29.033,13.027,29.033,29.032
		C967.911,328.737,954.891,341.759,938.877,341.759z"/>
	<path fill="#C2C1C0" d="M271.367,61.569c0-14.227-11.574-25.803-25.802-25.803c-14.23,0-25.803,11.572-25.803,25.799
		c0,14.229,11.573,25.804,25.803,25.804C259.791,87.369,271.365,75.797,271.367,61.569z M245.564,82.876
		c-11.75,0-21.312-9.561-21.312-21.309s9.562-21.307,21.312-21.307c11.748,0,21.308,9.559,21.308,21.307
		S257.312,82.876,245.564,82.876z"/>
	<path fill="#C2C1C0" d="M81.296,191.12c0.69-0.301,1.396-0.893,1.396-2.037v-0.021c0-0.567-0.2-1.033-0.565-1.41
		c-0.504-0.491-1.297-0.779-2.303-0.779h-3.753l0.006,8.809h3.914c1.928,0,3.198-0.895,3.198-2.404v-0.023
		C83.188,192.04,82.341,191.437,81.296,191.12z M77.051,187.765h2.682c1.259,0,1.951,0.566,1.951,1.436v0.025
		c0,1.028-0.832,1.573-2.026,1.573h-2.606v-3.034H77.051z M82.172,193.217c0,0.978-0.824,1.568-2.164,1.568h-2.957v-3.104h2.781
		c1.535,0,2.34,0.553,2.34,1.51V193.217z"/>
	<polygon fill="#C2C1C0" points="91.554,194.765 86.586,194.765 86.586,186.869 85.599,186.869 85.599,195.685 91.554,195.685 	"/>
	<path fill="#C2C1C0" d="M100.771,191.916v-5.049h-0.996v5.123c0,1.931-1.03,2.907-2.653,2.907c-1.682,0-2.689-1.074-2.689-2.971
		v-5.062h-0.994v5.125c0,2.491,1.484,3.825,3.657,3.828C99.294,195.819,100.771,194.483,100.771,191.916z"/>
	<polygon fill="#C2C1C0" points="110.003,194.772 104.564,194.772 104.564,191.688 109.375,191.688 109.375,190.783 
		104.564,190.783 104.564,187.774 109.939,187.774 109.939,186.869 103.568,186.869 103.568,195.679 110.003,195.679 	"/>
	<path fill="#C2C1C0" d="M120.688,195.829c1.596,0,2.604-0.609,3.521-1.547l-0.65-0.643c-0.848,0.803-1.641,1.271-2.85,1.271
		c-1.934,0-3.41-1.601-3.41-3.64v-0.023c0-2.021,1.463-3.605,3.41-3.605c1.199,0,2.029,0.502,2.771,1.207l0.681-0.73
		c-0.882-0.834-1.838-1.395-3.437-1.395c-2.6,0-4.457,2.062-4.457,4.557v0.025C116.269,193.829,118.145,195.832,120.688,195.829z"/>
	<path fill="#C2C1C0" d="M134.73,191.247c0-2.426-1.794-4.525-4.479-4.525c-2.683,0-4.508,2.127-4.508,4.557v0.025
		c0,2.428,1.798,4.528,4.481,4.525c2.683,0,4.506-2.13,4.506-4.559V191.247z M133.701,191.304c0,2-1.435,3.606-3.449,3.604
		c-2.017,0-3.476-1.638-3.476-3.638v-0.023c0-2.003,1.43-3.607,3.449-3.607c2.015,0,3.476,1.637,3.476,3.639V191.304z"/>
	<polygon fill="#C2C1C0" points="138.269,186.869 137.273,186.869 137.273,195.685 143.228,195.685 143.228,194.765 
		138.269,194.765 	"/>
	<polygon fill="#C2C1C0" points="146.497,186.869 145.502,186.869 145.502,195.685 151.456,195.685 151.456,194.765 
		146.497,194.765 	"/>
	<path fill="#C2C1C0" d="M156.994,186.81l-4.01,8.875h1.021l1.045-2.33h4.799l1.029,2.33h1.07l-4.017-8.875H156.994z
		 M155.433,192.457l2.014-4.487l2.003,4.487H155.433z"/>
	<path fill="#C2C1C0" d="M171.091,189.511v-0.025c0-0.687-0.252-1.303-0.68-1.733c-0.556-0.557-1.422-0.883-2.506-0.883h-3.789
		l-0.006,8.812h0.994v-3.424h2.519l2.561,3.424h1.222l-2.707-3.604C170.083,191.823,171.091,190.972,171.091,189.511z
		 M165.111,191.365v-3.572h2.722c1.422,0,2.252,0.651,2.252,1.733v0.025c0,1.131-0.944,1.812-2.267,1.812L165.111,191.365z"/>
	<path fill="#C2C1C0" d="M790.926,260.638v-0.024c0-0.691-0.252-1.306-0.682-1.736c-0.553-0.555-1.422-0.882-2.504-0.882h-3.789
		l-0.004,8.812h0.994v-3.428h2.518l2.559,3.428h1.225l-2.707-3.604C789.918,262.949,790.926,262.097,790.926,260.638z
		 M784.947,262.489v-3.572h2.719c1.426,0,2.254,0.652,2.254,1.734v0.024c0,1.132-0.943,1.812-2.266,1.812L784.947,262.489z"/>
	<path fill="#C2C1C0" d="M799.693,263.118c0,1.931-1.033,2.908-2.656,2.908c-1.682,0-2.688-1.075-2.688-2.971v-5.062h-0.994v5.123
		c0,2.494,1.482,3.828,3.656,3.83c2.201,0,3.678-1.336,3.678-3.9v-5.051h-0.994L799.693,263.118L799.693,263.118z"/>
	<path fill="#C2C1C0" d="M810.459,260.638v-0.024c0-0.691-0.252-1.306-0.68-1.736c-0.559-0.555-1.422-0.882-2.506-0.882h-3.789
		l-0.014,8.812h0.996v-3.428h2.521l2.561,3.428h1.225l-2.707-3.604C809.451,262.949,810.459,262.097,810.459,260.638z
		 M804.482,262.489v-3.572h2.719c1.422,0,2.252,0.652,2.252,1.734v0.024c0,1.132-0.947,1.812-2.268,1.812L804.482,262.489z"/>
	<path fill="#C2C1C0" d="M816.283,257.933l-4.008,8.875h1.02l1.045-2.328h4.801l1.027,2.328h1.07l-4.021-8.875H816.283z
		 M814.723,263.582l2.016-4.494l2.002,4.494H814.723z"/>
	<polygon fill="#C2C1C0" points="824.4,257.993 823.406,257.993 823.406,266.808 829.359,266.808 829.359,265.89 824.4,265.89 	"/>
	<polygon fill="#C2C1C0" points="1029.268,376.264 1026.85,368.902 1026.034,368.902 1023.618,376.264 1021.098,368.926 
		1020.014,368.926 1023.161,377.797 1023.991,377.797 1026.42,370.651 1028.836,377.797 1029.688,377.797 1032.832,368.926 
		1031.788,368.926 	"/>
	<polygon fill="#C2C1C0" points="1041.147,372.838 1036.063,372.838 1036.063,368.926 1035.067,368.926 1035.067,377.738 
		1036.063,377.738 1036.063,373.773 1041.147,373.773 1041.147,377.738 1042.143,377.738 1042.143,368.926 1041.147,368.926 	"/>
	<rect x="1045.159" y="368.926" fill="#C2C1C0" width="0.994" height="8.812"/>
	<polygon fill="#C2C1C0" points="1048.543,369.844 1051.502,369.844 1051.502,377.738 1052.51,377.738 1052.51,369.844 
		1055.467,369.844 1055.467,368.926 1048.543,368.926 	"/>
	<polygon fill="#C2C1C0" points="1058.766,373.742 1063.575,373.742 1063.575,372.838 1058.766,372.838 1058.766,369.826 
		1064.141,369.826 1064.141,368.926 1057.772,368.926 1057.772,377.732 1064.204,377.732 1064.204,376.826 1058.766,376.826 	"/>
	<path fill="#C2C1C0" d="M1074.909,376.966c-1.936,0-3.412-1.604-3.412-3.645v-0.021c0-2.022,1.461-3.608,3.412-3.608
		c1.195,0,2.023,0.504,2.77,1.207l0.686-0.729c-0.877-0.832-1.834-1.396-3.439-1.396c-2.594,0-4.451,2.067-4.451,4.559v0.023
		c0,2.529,1.875,4.531,4.414,4.532c1.598,0,2.605-0.614,3.525-1.549l-0.656-0.646
		C1076.911,376.495,1076.116,376.966,1074.909,376.966z"/>
	<path fill="#C2C1C0" d="M1084.454,368.774c-2.682,0-4.506,2.127-4.506,4.559v0.023c0,2.428,1.797,4.531,4.479,4.529
		c2.688,0,4.509-2.128,4.509-4.562v-0.021C1088.934,370.878,1087.137,368.774,1084.454,368.774z M1087.903,373.356
		c0,2.002-1.438,3.61-3.449,3.61s-3.475-1.643-3.475-3.645v-0.021c0-2,1.43-3.608,3.445-3.608c2.017,0,3.479,1.639,3.479,3.639
		V373.356L1087.903,373.356z"/>
	<polygon fill="#C2C1C0" points="1092.467,368.926 1091.475,368.926 1091.475,377.738 1097.426,377.738 1097.426,376.82 
		1092.467,376.82 	"/>
	<polygon fill="#C2C1C0" points="1100.7,368.926 1099.704,368.926 1099.704,377.738 1105.659,377.738 1105.659,376.82 
		1100.7,376.82 	"/>
	<path fill="#C2C1C0" d="M1111.198,368.86l-4.013,8.875h1.021l1.045-2.33h4.797l1.031,2.33h1.07l-4.021-8.875H1111.198z
		 M1109.633,374.514l2.02-4.491l2.002,4.491H1109.633z"/>
	<path fill="#C2C1C0" d="M1122.901,374.131c1.385-0.252,2.393-1.104,2.393-2.563v-0.025c0-0.688-0.252-1.305-0.68-1.732
		c-0.557-0.559-1.422-0.881-2.506-0.881h-3.789l-0.008,8.81h0.992v-3.424h2.521l2.561,3.424h1.223L1122.901,374.131z
		 M1119.315,373.418v-3.57h2.719c1.422,0,2.252,0.65,2.252,1.731v0.024c0,1.131-0.945,1.812-2.266,1.812L1119.315,373.418z"/>
	<path fill="#C2C1C0" d="M25.41,77.94c0,1.927-1.031,2.908-2.656,2.908c-1.683,0-2.688-1.074-2.688-2.975v-5.062h-0.994v5.123
		c0,2.492,1.484,3.828,3.658,3.832c2.203,0,3.676-1.336,3.676-3.903v-5.048h-0.995L25.41,77.94L25.41,77.94z"/>
	<path fill="#C2C1C0" d="M36.173,75.45V75.43c0-0.69-0.252-1.308-0.68-1.736c-0.554-0.555-1.423-0.881-2.504-0.881h-3.791
		l-0.004,8.807h0.994v-3.424h2.519l2.561,3.424h1.222l-2.707-3.6C35.167,77.767,36.173,76.909,36.173,75.45z M30.195,77.31v-3.576
		h2.72c1.422,0,2.254,0.654,2.254,1.738v0.023c0,1.126-0.944,1.812-2.267,1.812L30.195,77.31z"/>
	<path fill="#C2C1C0" d="M43.962,77.062c0.692-0.301,1.397-0.895,1.397-2.039v-0.023c0-0.562-0.2-1.027-0.565-1.404
		c-0.504-0.492-1.297-0.781-2.305-0.781h-3.75l0.005,8.802h3.914c1.928,0,3.198-0.888,3.198-2.398v-0.024
		C45.856,77.981,45.007,77.373,43.962,77.062z M39.722,73.704h2.682c1.259,0,1.951,0.569,1.951,1.438v0.021
		c0,1.031-0.832,1.574-2.026,1.574l-0.001,0.002h-2.605L39.722,73.704L39.722,73.704z M44.847,79.156
		c0,0.981-0.83,1.573-2.164,1.573v-0.002h-2.959v-3.108H42.5c1.535,0,2.346,0.562,2.346,1.519V79.156z"/>
	<path fill="#C2C1C0" d="M51.527,72.747l-4.011,8.875h1.021l1.045-2.328h4.797l1.031,2.328h1.069l-4.02-8.875H51.527z M49.97,78.399
		l2.014-4.493l2,4.493H49.97z"/>
	<polygon fill="#C2C1C0" points="66.108,72.812 65.139,72.812 65.139,79.873 59.583,72.812 58.65,72.812 58.655,81.623 
		59.625,81.623 59.625,74.397 65.315,81.623 66.108,81.623 	"/>
	<path fill="#C2C1C0" d="M69.751,371.8c-1.938-0.416-2.392-0.883-2.392-1.715v-0.021c0-0.796,0.729-1.427,1.875-1.427
		c0.906,0,1.726,0.289,2.543,0.957l0.58-0.771c-0.9-0.719-1.818-1.082-3.104-1.082c-1.674,0-2.896,1.02-2.896,2.404v0.021
		c0,1.446,0.933,2.104,2.957,2.541c1.853,0.397,2.291,0.864,2.291,1.683v0.021c0,0.867-0.778,1.498-1.963,1.498
		c-1.222,0-2.103-0.416-3.021-1.248l-0.617,0.729c1.059,0.942,2.203,1.41,3.608,1.415c1.747,0,3.008-0.979,3.008-2.489v-0.025
		C72.623,372.946,71.716,372.231,69.751,371.8z"/>
	<path fill="#C2C1C0" d="M81.283,372.988c0,1.928-1.031,2.908-2.656,2.908c-1.681,0-2.688-1.076-2.688-2.974v-5.062h-0.994v5.123
		c0,2.493,1.482,3.83,3.656,3.831c2.203,0,3.676-1.337,3.676-3.901v-5.05h-0.993L81.283,372.988L81.283,372.988z"/>
	<path fill="#C2C1C0" d="M90.298,372.114c0.693-0.304,1.396-0.896,1.396-2.041v-0.021c0-0.565-0.2-1.03-0.565-1.41
		c-0.502-0.489-1.295-0.778-2.303-0.778h-3.752l0.006,8.809h3.917c1.926,0,3.196-0.895,3.196-2.404v-0.021
		C92.192,373.032,91.344,372.427,90.298,372.114z M86.056,368.761h2.682c1.259,0,1.951,0.566,1.951,1.437v0.022
		c0,1.029-0.832,1.57-2.026,1.57h-2.606L86.056,368.761L86.056,368.761z M91.181,374.206c0,0.98-0.83,1.572-2.164,1.572
		l-2.959-0.002v-3.104h2.775c1.537,0,2.348,0.558,2.348,1.515V374.206z"/>
	<path fill="#C2C1C0" d="M100.805,372.988c0,1.928-1.031,2.908-2.654,2.908c-1.687,0-2.694-1.076-2.694-2.974v-5.062h-0.994v5.123
		c0,2.493,1.487,3.83,3.659,3.831c2.203,0,3.68-1.337,3.68-3.901v-5.05h-0.996L100.805,372.988L100.805,372.988z"/>
	<path fill="#C2C1C0" d="M111.571,370.505v-0.022c0-0.691-0.25-1.312-0.68-1.737c-0.559-0.554-1.428-0.882-2.51-0.882h-3.789
		l-0.003,8.811h0.994v-3.429h2.521l2.556,3.429h1.223l-2.707-3.604C110.564,372.817,111.571,371.964,111.571,370.505z
		 M105.585,372.363v-3.572h2.727c1.422,0,2.252,0.652,2.252,1.734v0.021c0,1.131-0.948,1.812-2.271,1.812L105.585,372.363z"/>
	<polygon fill="#C2C1C0" points="114.139,367.857 114.139,367.861 114.133,367.861 114.133,367.862 114.141,367.862 
		114.141,367.857 	"/>
	<path fill="#C2C1C0" d="M119.359,372.114c0.696-0.304,1.396-0.896,1.396-2.041v-0.021c0-0.565-0.196-1.03-0.562-1.41
		c-0.504-0.489-1.297-0.778-2.305-0.778h-3.749v8.809h3.914c1.925,0,3.195-0.895,3.195-2.404v-0.021
		C121.25,373.032,120.405,372.427,119.359,372.114z M115.109,368.761h2.683c1.263,0,1.951,0.566,1.951,1.437v0.022
		c0,1.029-0.831,1.57-2.021,1.57h-2.613V368.761z M120.24,374.206c0,0.98-0.832,1.572-2.166,1.572l-2.959-0.002v-3.104h2.782
		c1.535,0,2.343,0.558,2.343,1.515V374.206z"/>
	<path fill="#C2C1C0" d="M126.92,367.801l-4.006,8.875h1.021l1.045-2.33h4.795l1.031,2.33h1.068l-4.017-8.875H126.92z
		 M125.358,373.452l2.015-4.492l2.002,4.492H125.358z"/>
	<polygon fill="#C2C1C0" points="140.533,374.924 134.98,367.862 134.043,367.862 134.045,376.674 135.02,376.674 135.02,369.445 
		140.708,376.674 141.501,376.674 141.501,367.862 140.533,367.862 	"/>
	<path fill="#C2C1C0" d="M252.027,213.079h-3.299v8.812h0.994v-3.108h2.142c1.875,0,3.461-0.981,3.461-2.884v-0.022
		C255.326,214.14,254.017,213.079,252.027,213.079z M254.318,215.935c0,1.164-0.957,1.938-2.416,1.938h-2.178v-3.877h2.228
		c1.424,0,2.366,0.655,2.366,1.914V215.935z"/>
	<path fill="#C2C1C0" d="M264.55,215.72v-0.025c0-0.688-0.252-1.303-0.68-1.733c-0.554-0.557-1.422-0.882-2.506-0.882h-3.789
		l-0.006,8.811h0.996v-3.424h2.519l2.559,3.424h1.222l-2.707-3.604C263.542,218.032,264.55,217.181,264.55,215.72z M258.574,217.574
		v-3.572h2.719c1.422,0,2.252,0.652,2.252,1.733v0.025c0,1.131-0.944,1.812-2.267,1.812L258.574,217.574z"/>
	<path fill="#C2C1C0" d="M271.234,212.931c-2.684,0-4.508,2.127-4.508,4.557v0.025c0,2.428,1.801,4.528,4.481,4.526
		c2.686,0,4.506-2.131,4.506-4.56v-0.022C275.714,215.032,273.916,212.931,271.234,212.931z M274.685,217.513
		c0,2-1.437,3.606-3.449,3.604c-2.015,0-3.479-1.638-3.479-3.638v-0.023c0-2.003,1.433-3.607,3.449-3.607
		c2.019,0,3.479,1.637,3.479,3.639V217.513z"/>
	<path fill="#C2C1C0" d="M282.234,218.072h2.681v2.19c-0.603,0.486-1.531,0.881-2.541,0.881c-2.136,0-3.484-1.562-3.484-3.664
		v-0.023c0-1.963,1.399-3.605,3.351-3.605c1.245,0,2,0.416,2.684,1.006l0.645-0.754c-0.881-0.742-1.801-1.17-3.286-1.17
		c-2.644,0-4.418,2.139-4.418,4.557v0.025c0,2.512,1.711,4.528,4.473,4.522c1.483,0,2.721-0.615,3.535-1.347v-3.512h-3.638v0.894
		H282.234L282.234,218.072z"/>
	<path fill="#C2C1C0" d="M295.537,215.72v-0.025c0-0.688-0.252-1.303-0.681-1.733c-0.555-0.557-1.422-0.882-2.504-0.882h-3.789
		l-0.005,8.811h0.996v-3.424h2.514l2.558,3.424h1.227l-2.707-3.604C294.531,218.032,295.537,217.181,295.537,215.72z
		 M289.558,217.574v-3.572h2.719c1.423,0,2.255,0.652,2.255,1.733v0.025c0,1.131-0.95,1.812-2.267,1.812L289.558,217.574z"/>
	<polygon fill="#C2C1C0" points="299.099,217.897 303.908,217.897 303.908,216.992 299.099,216.992 299.099,213.983 
		304.474,213.983 304.474,213.079 298.103,213.079 298.103,221.888 304.537,221.888 304.537,220.981 299.099,220.981 	"/>
	<path fill="#C2C1C0" d="M310.141,217.013c-1.941-0.414-2.395-0.886-2.395-1.716v-0.021c0-0.793,0.729-1.422,1.875-1.422
		c0.907,0,1.729,0.291,2.543,0.957l0.58-0.771c-0.896-0.721-1.813-1.084-3.099-1.084c-1.671,0-2.896,1.021-2.896,2.404v0.025
		c0,1.441,0.936,2.102,2.959,2.543c1.853,0.389,2.291,0.854,2.291,1.674v0.021c0,0.867-0.777,1.498-1.965,1.498
		c-1.222,0-2.103-0.414-3.021-1.246l-0.617,0.729c1.056,0.947,2.203,1.412,3.603,1.412c1.75,0,3.012-0.98,3.012-2.492v-0.022
		C313.012,218.157,312.104,217.442,310.141,217.013z"/>
	<path fill="#C2C1C0" d="M318.5,217.013c-1.938-0.414-2.392-0.886-2.392-1.716v-0.021c0-0.793,0.729-1.422,1.875-1.422
		c0.906,0,1.726,0.291,2.543,0.957l0.578-0.771c-0.896-0.721-1.816-1.084-3.096-1.084c-1.675,0-2.896,1.021-2.896,2.404v0.025
		c0,1.441,0.93,2.102,2.956,2.543c1.854,0.389,2.291,0.854,2.291,1.674v0.021c0,0.867-0.778,1.498-1.963,1.498
		c-1.216,0-2.101-0.414-3.021-1.246l-0.611,0.729c1.058,0.947,2.201,1.412,3.597,1.412c1.75,0,3.009-0.98,3.009-2.492v-0.022
		C321.372,218.157,320.47,217.442,318.5,217.013z"/>
	<rect x="323.927" y="213.079" fill="#C2C1C0" width="0.992" height="8.812"/>
	<polygon fill="#C2C1C0" points="331.432,220.67 328.292,213.079 327.188,213.079 330.977,221.954 331.856,221.954 335.646,213.079 
		334.577,213.079 	"/>
	<polygon fill="#C2C1C0" points="338.816,217.897 343.626,217.897 343.626,216.992 338.816,216.992 338.816,213.983 
		344.191,213.983 344.191,213.079 337.824,213.079 337.824,221.888 344.255,221.888 344.255,220.981 338.816,220.981 	"/>
	<rect x="883.766" y="63.358" fill="#C2C1C0" width="0.994" height="8.812"/>
	<polygon fill="#C2C1C0" points="894.268,70.42 888.711,63.358 887.78,63.358 887.79,72.17 888.758,72.17 888.758,64.944 
		894.448,72.17 895.241,72.17 895.241,63.358 894.268,63.358 	"/>
	<path fill="#C2C1C0" d="M905.909,67.74c0-2.479-1.914-4.382-4.686-4.382h-3.062v8.809h3.062c2.771,0,4.686-1.921,4.686-4.4V67.74z
		 M904.87,67.788c0,1.949-1.416,3.463-3.646,3.463l-2.061,0.006v-6.979h2.061c2.229,0,3.646,1.534,3.646,3.487V67.788z"/>
	<polygon fill="#C2C1C0" points="914.879,71.263 909.442,71.263 909.442,68.179 914.25,68.179 914.25,67.272 909.442,67.272 
		909.442,64.265 914.817,64.265 914.817,63.358 908.448,63.358 908.448,72.165 914.879,72.165 	"/>
	<path fill="#C2C1C0" d="M918.315,69.062h2.139c1.877,0,3.463-0.986,3.463-2.883v-0.024c0-1.736-1.311-2.796-3.299-2.796h-3.299
		v8.81h0.996V69.062L918.315,69.062z M918.313,64.274h2.227c1.424,0,2.367,0.656,2.367,1.914v0.025c0,1.155-0.957,1.938-2.416,1.938
		h-2.178V64.274z"/>
	<polygon fill="#C2C1C0" points="932.6,71.263 927.161,71.263 927.161,68.179 931.969,68.179 931.969,67.272 927.161,67.272 
		927.161,64.265 932.536,64.265 932.536,63.358 926.165,63.358 926.165,63.356 926.163,63.356 926.163,72.165 932.6,72.165 	"/>
	<polygon fill="#C2C1C0" points="936.018,72.17 936.018,64.944 941.707,72.17 942.5,72.17 942.5,63.358 941.532,63.358 
		941.532,70.42 935.975,63.358 935.038,63.358 935.041,72.17 	"/>
	<path fill="#C2C1C0" d="M953.165,67.765V67.74c0-2.479-1.912-4.382-4.682-4.382h-3.062v8.809h3.062
		C951.252,72.165,953.165,70.244,953.165,67.765z M946.418,64.279h2.064c2.221,0,3.646,1.534,3.646,3.487v0.021
		c0,1.951-1.422,3.465-3.646,3.465l-2.064,0.006V64.279z"/>
	<polygon fill="#C2C1C0" points="962.137,71.263 956.7,71.263 956.7,68.179 961.508,68.179 961.508,67.272 956.7,67.272 
		956.7,64.265 962.075,64.265 962.075,63.358 955.704,63.358 955.704,72.165 962.137,72.165 	"/>
	<polygon fill="#C2C1C0" points="965.555,72.17 965.555,64.944 971.245,72.17 972.038,72.17 972.038,63.358 971.069,63.358 
		971.069,70.42 965.508,63.358 964.577,63.358 964.581,72.17 	"/>
	<polygon fill="#C2C1C0" points="974.331,64.274 977.29,64.274 977.29,72.168 978.295,72.168 978.295,64.274 981.254,64.274 
		981.254,63.356 974.331,63.356 	"/>
	<polygon fill="#C2C1C0" points="427.548,111.709 424.337,106.899 423.332,106.899 423.33,115.711 424.305,115.711 424.305,108.586 
		427.514,113.295 427.567,113.295 430.776,108.572 430.776,115.711 431.77,115.711 431.77,106.899 430.757,106.899 	"/>
	<path fill="#C2C1C0" d="M438.814,106.748c-2.689,0-4.509,2.126-4.509,4.562v0.021c0,2.433,1.803,4.528,4.479,4.531
		c2.686,0,4.508-2.13,4.508-4.558v-0.024C443.293,108.853,441.497,106.748,438.814,106.748z M442.261,111.329
		c0,2.004-1.433,3.612-3.449,3.612c-2.018,0-3.479-1.637-3.479-3.637v-0.025c0-2.002,1.434-3.611,3.449-3.611
		c2.02,0,3.479,1.641,3.479,3.643V111.329z"/>
	<path fill="#C2C1C0" d="M448.895,106.899h-3.062v8.811h3.062c2.771,0,4.687-1.925,4.687-4.402v-0.024
		C453.58,108.802,451.666,106.899,448.895,106.899z M452.541,111.329c0,1.951-1.418,3.465-3.645,3.465l-2.064,0.006v-6.979h2.064
		c2.223,0,3.645,1.534,3.645,3.487V111.329z"/>
	<polygon fill="#C2C1C0" points="457.11,111.722 461.919,111.722 461.919,110.815 457.11,110.815 457.11,107.806 462.485,107.806 
		462.485,106.899 456.117,106.899 456.11,106.899 456.11,115.712 462.548,115.712 462.548,114.806 457.11,114.806 	"/>
	<path fill="#C2C1C0" d="M471.962,109.538v-0.021c0-0.692-0.252-1.31-0.68-1.737c-0.553-0.554-1.422-0.882-2.504-0.882h-3.789
		l-0.006,8.81h0.991v-3.426h2.521l2.561,3.426h1.224l-2.707-3.603C470.957,111.854,471.962,111,471.962,109.538z M465.985,111.401
		v-3.574h2.719c1.422,0,2.254,0.654,2.254,1.736v0.021c0,1.132-0.945,1.812-2.266,1.812L465.985,111.401z"/>
	<path fill="#C2C1C0" d="M477.789,106.84l-4.008,8.875h1.02l1.049-2.329h4.795l1.029,2.329h1.07l-4.019-8.875H477.789z
		 M476.229,112.488l2.014-4.494l2,4.494H476.229z"/>
	<polygon fill="#C2C1C0" points="483.151,107.817 486.108,107.817 486.11,115.711 487.117,115.711 487.117,107.817 490.076,107.817 
		490.076,106.897 483.151,106.897 	"/>
	<polygon fill="#C2C1C0" points="493.369,111.722 498.181,111.722 498.181,110.815 493.369,110.815 493.369,107.806 
		498.744,107.806 498.744,106.899 492.375,106.899 492.369,106.899 492.369,115.712 498.807,115.712 498.807,114.806 
		493.369,114.806 	"/>
	<path fill="#C2C1C0" d="M1024.571,210.597v-0.024c0-1.736-1.318-2.796-3.302-2.796h-3.306v8.812h0.996v-3.109h2.146
		C1022.985,213.479,1024.571,212.493,1024.571,210.597z M1018.961,208.694h2.23c1.424,0,2.361,0.656,2.361,1.914v0.025
		c0,1.157-0.957,1.938-2.416,1.938h-2.18v-3.878L1018.961,208.694L1018.961,208.694z"/>
	<path fill="#C2C1C0" d="M1035.416,212.157c0-2.428-1.797-4.529-4.479-4.529c-2.688,0-4.514,2.131-4.514,4.561v0.021
		c0,2.435,1.801,4.53,4.486,4.53c2.684,0,4.506-2.129,4.506-4.557V212.157z M1034.379,212.207c0,2.002-1.434,3.61-3.445,3.61
		c-2.018,0-3.479-1.637-3.479-3.637v-0.025c0-2.002,1.434-3.607,3.449-3.607c2.014,0,3.475,1.637,3.475,3.639V212.207
		L1034.379,212.207z"/>
	<path fill="#C2C1C0" d="M1041.25,207.776h-3.299v8.812h0.994v-3.109h2.141c1.875,0,3.461-0.986,3.461-2.883v-0.024
		C1044.547,208.834,1043.239,207.776,1041.25,207.776z M1043.541,210.634c0,1.157-0.957,1.938-2.418,1.938h-2.178v-3.878h2.229
		c1.428,0,2.367,0.656,2.367,1.914V210.634z"/>
	<path fill="#C2C1C0" d="M1053.997,212.829v-5.049h-0.994v5.125c0,1.928-1.029,2.908-2.651,2.908c-1.688,0-2.69-1.075-2.69-2.978
		v-5.062h-0.996v5.125c0,2.494,1.488,3.83,3.66,3.832C1052.52,216.731,1053.997,215.397,1053.997,212.829z"/>
	<polygon fill="#C2C1C0" points="1062.747,215.67 1057.788,215.67 1057.788,207.776 1056.791,207.776 1056.791,216.595 
		1062.747,216.595 	"/>
	<rect x="1065.114" y="207.776" fill="#C2C1C0" width="0.994" height="8.812"/>
	<path fill="#C2C1C0" d="M1072.184,215.823c-1.221,0-2.102-0.414-3.02-1.246l-0.617,0.73c1.061,0.94,2.203,1.409,3.605,1.412
		c1.75,0,3.01-0.982,3.01-2.492v-0.025c0-1.348-0.906-2.061-2.871-2.492c-1.939-0.416-2.393-0.883-2.393-1.712v-0.022
		c0-0.793,0.729-1.422,1.877-1.422c0.896,0,1.725,0.285,2.543,0.953l0.576-0.77c-0.898-0.719-1.818-1.084-3.104-1.084
		c-1.672,0-2.896,1.019-2.896,2.406v0.021c0,1.447,0.935,2.104,2.959,2.543c1.853,0.395,2.291,0.859,2.291,1.68v0.021
		C1074.147,215.194,1073.368,215.823,1072.184,215.823z"/>
	<polygon fill="#C2C1C0" points="1080.768,216.591 1080.768,208.694 1083.727,208.694 1083.727,207.776 1076.801,207.776 
		1076.801,208.694 1079.76,208.694 1079.76,216.591 	"/>
	<path fill="#C2C1C0" d="M615.064,370.02h-0.025c-0.25-0.065-0.408-0.229-0.453-0.516c-0.473-0.913-1.02-1.466-1.993-1.969v0.022
		c-0.646,0.213-0.302-0.274-0.113-0.562h-0.025c-0.146-0.253-0.289-0.599-0.375-0.907h0.025v-0.062l0.18-0.081v-0.061l-0.109-0.111
		l0.058-0.2c-0.104-0.008-0.197,0.013-0.293,0.062c-0.154-0.068-0.254-0.188-0.267-0.352c0.203-0.132,0.171-0.238-0.057-0.312
		c0.465-0.712,0.475-0.836-0.094-0.2c-0.318,0.046-0.629,0.009-0.596-0.385c-0.175-0.272-0.107-0.517,0.122-0.736h-0.026
		l-0.178-0.174c-0.056-0.092-0.072-0.189-0.056-0.301h-0.026v-0.058h-0.025c-0.135-0.205-0.359-0.322-0.594-0.343l-0.156-0.115
		h-0.025c-0.016-0.143-0.065-0.277-0.145-0.389c-0.381-0.176-0.396-0.439-0.084-0.7v-0.023c0.322-0.142,0.35-0.407,0.139-0.739
		h0.029c-0.004-0.259-0.016-0.532-0.033-0.757h0.023v-0.026l0.146-0.029l0.025-0.054h0.028v-0.029h0.025
		c0.039-0.087,0.041-0.19,0-0.285h-0.025c-0.079-0.56-0.264-1.005-0.622-1.408c0.077-0.131,0.106-0.279,0.079-0.418l-0.112-0.091
		c-0.156-0.171-0.136-0.334,0.024-0.483h0.027c-0.152-0.405-0.207-0.844-0.141-1.21h0.059v0.027c0.383-0.308-0.336-0.426-0.643-0.59
		c0.163-0.196,0.166-0.419,0.024-0.646h-0.029l0.093-0.178l-0.179-0.116c0.054-0.134,0.093-0.22,0.125-0.255
		c-0.153-0.406-0.225-0.907-0.225-1.682h-0.027c-0.379-0.848-0.758-1.434-1.104-1.155h-0.027v0.028
		c-0.129,0.011-0.227-0.053-0.281-0.172c-0.395-0.526-0.526-1.146-0.377-1.84h-0.026c-0.158-0.652-0.09-1.026,0.27-1.902
		c-0.334-0.326-0.578-0.613-0.836-0.979c-0.02-0.16-0.09-0.311-0.199-0.413c0.281-0.386,0.314-0.811-0.037-1.097v-0.024
		l-0.229,0.083c-0.047-0.262-0.117-0.486-0.443-0.283h-0.021c-0.252-0.021-0.146-0.288-0.051-0.524
		c-0.097-0.062-0.197-0.069-0.304-0.024v0.024c-0.063-0.47-0.268-0.938-0.592-1.224v-0.025h-0.029
		c-0.284-0.261-0.432-0.548-0.438-0.911h-0.023l-0.09-0.116c0.129-0.1,0.254-0.215,0.369-0.354l-0.025-0.056
		c-0.514-1.715-1.094-2.818-2.01-3.34v-0.029c-0.115-0.312-0.34-0.48-0.676-0.412v0.016c-0.053,0.073-0.137,0.135-0.23,0.146v0.027
		h-0.104v-0.027c-0.24-0.13-0.351-0.367-0.336-0.662l-0.084-0.059v-0.029l-0.119-0.081c-0.48-0.188-0.639-0.556-0.398-1.011h0.027
		v-0.025h0.025c-0.259-0.281-0.668-0.373-1.127-0.289c-0.072-0.542-0.496-0.811-1.119-0.854v-0.029
		c-0.189,0.126-0.363,0.202-0.568,0.246c-0.33-0.551-1.049-0.829-1.795-0.811l-0.061-0.092c-0.191-0.156-0.439-0.234-0.716-0.229
		c-0.09-0.527-0.426-0.738-0.932-0.749l-0.08-0.029v0.029l-0.092,0.023v0.026h-0.088c-0.64,0.069-1.101,0.1-1.744,0.115
		c-0.387,0.161-0.799,0.17-1.211,0.033v0.024c-0.846,0.095-1.822,0.103-2.621,0.021c0.006,0.387-0.154,0.741-0.438,0.975
		c-0.312,0.317-0.729,0.437-1.178,0.353v-0.026c-0.637-0.546-1.371-1.021-2.168-1.403c-0.389-0.005-0.754-0.14-0.996-0.37
		c-0.254-0.205-0.649-0.353-0.942-0.335l-0.052-0.118c-0.268-0.188-0.465-0.509-0.53-0.852c-19.053-0.018-38.104-0.039-57.157-0.059
		c0,7.894,0,27.18-0.241,26.784c1.574,0,20.229,0,20.229,0c0,5.496,0,13.489,0,13.489c23.731,0,47.464,0,71.195,0
		C615.258,371.921,615.061,370.707,615.064,370.02z"/>
	<path fill="#C2C1C0" d="M608.799,354.267l0.048,0.104C608.847,354.264,608.83,354.232,608.799,354.267z"/>
	<polygon fill="#C2C1C0" points="608.957,354.605 608.847,354.368 608.845,354.515 	"/>
</g>
</svg>
