<?xml version="1.0" encoding="utf-8"?>
<!-- Generator: Adobe Illustrator 16.0.0, SVG Export Plug-In . SVG Version: 6.00 Build 0)  -->
<!DOCTYPE svg PUBLIC "-//W3C//DTD SVG 1.1//EN" "http://www.w3.org/Graphics/SVG/1.1/DTD/svg11.dtd">
<svg version="1.1" id="Layer_1" xmlns="http://www.w3.org/2000/svg" xmlns:xlink="http://www.w3.org/1999/xlink" x="0px" y="0px"
	 width="1140.003px" height="498.046px" viewBox="702.844 320.431 1140.003 498.046"
	 enable-background="new 702.844 320.431 1140.003 498.046" xml:space="preserve">
<g>
	
		<rect x="759.645" y="445.191" transform="matrix(0.619 0.7854 -0.7854 0.619 648.2399 -441.4149)" fill="#D2D3D4" width="38.892" height="4.496"/>
</g>
<g>
	
		<rect x="1549.975" y="609.614" transform="matrix(0.9256 0.3786 -0.3786 0.9256 349.4027 -553.3947)" fill="#D2D3D4" width="64.108" height="4.496"/>
</g>
<g>
	<polygon fill="#D2D3D4" points="1767.918,630.239 1764.565,588.995 1769.045,588.633 1772.399,629.877 	"/>
</g>
<g>
	<polygon fill="#D2D3D4" points="806.5,638.024 802.512,635.952 836.762,571.395 840.752,573.467 	"/>
</g>
<g>
	
		<rect x="888.034" y="518.843" transform="matrix(0.9906 0.1365 -0.1365 0.9906 79.6384 -119.0491)" fill="#D2D3D4" width="39.457" height="4.494"/>
</g>
<g>
	
		<rect x="1681.523" y="556.058" transform="matrix(0.7099 0.7043 -0.7043 0.7099 902.4628 -1015.3068)" fill="#D2D3D4" width="4.495" height="63.68"/>
</g>
<g>
	
		<rect x="1657.158" y="465.11" transform="matrix(0.7476 0.6642 -0.6642 0.7476 737.3787 -1005.4636)" fill="#D2D3D4" width="68.62" height="4.494"/>
</g>
<g>
	
		<rect x="932.395" y="434.555" transform="matrix(0.3111 0.9504 -0.9504 0.3111 1081.4592 -618.3335)" fill="#D2D3D4" width="69.699" height="4.496"/>
</g>
<g>
	
		<rect x="1056.551" y="602.509" transform="matrix(0.865 0.5017 -0.5017 0.865 456.5377 -487.5671)" fill="#C62731" width="155.861" height="4.494"/>
</g>
<g>
	
		<rect x="1082.736" y="454.196" transform="matrix(0.6358 0.7718 -0.7718 0.6358 769.0187 -661.0228)" fill="#D2D3D4" width="4.494" height="60.415"/>
</g>
<g>
	<path fill="#C62731" d="M999.284,615.737c-41.584,0-75.416-33.832-75.416-75.416c0-41.586,33.83-75.416,75.416-75.416
		c41.584,0,75.416,33.83,75.416,75.416C1074.7,581.905,1040.868,615.737,999.284,615.737z M999.284,469.399
		c-39.107,0-70.922,31.812-70.922,70.922c0,39.104,31.812,70.92,70.922,70.92c39.104,0,70.92-31.814,70.92-70.92
		C1070.204,501.213,1038.389,469.399,999.284,469.399z"/>
</g>
<path fill="#939598" d="M1641.723,666.69c-18.484,0-33.525-15.041-33.525-33.527c0-18.488,15.041-33.529,33.525-33.529
	c18.486,0,33.527,15.041,33.527,33.529C1675.25,651.649,1660.209,666.69,1641.723,666.69z M1641.723,604.127
	c-16.01,0-29.029,13.025-29.029,29.033c0,16.01,13.02,29.033,29.029,29.033c16.012,0,29.033-13.023,29.033-29.033
	C1670.756,617.153,1657.731,604.127,1641.723,604.127z"/>
<g>
	<path fill="#818285" d="M1635.561,456.143c-37.416,0-67.854-30.438-67.854-67.854c0-37.418,30.438-67.857,67.854-67.857
		c37.418,0,67.857,30.441,67.857,67.857S1672.979,456.143,1635.561,456.143z M1635.561,324.922
		c-34.938,0-63.359,28.424-63.359,63.361c0,34.937,28.424,63.363,63.359,63.363c34.938,0,63.361-28.429,63.361-63.363
		C1698.922,353.346,1670.499,324.922,1635.561,324.922z"/>
</g>
<g>
	<path fill="#2B5EA5" d="M1509.528,631.307c-21.471,0-40.582-14.43-46.488-35.092c-3.551-12.424-2.051-25.486,4.223-36.783
		c6.275-11.297,16.57-19.473,28.996-23.021c4.355-1.244,8.83-1.875,13.314-1.875c10.301,0,20.551,3.397,28.857,9.578
		c8.586,6.381,14.686,15.203,17.629,25.516c3.555,12.424,2.055,25.486-4.223,36.783c-6.275,11.295-16.572,19.471-28.996,23.02
		C1518.493,630.676,1514.012,631.307,1509.528,631.307z M1509.573,539.03c-4.066,0-8.131,0.569-12.08,1.701
		c-11.271,3.221-20.611,10.639-26.301,20.885c-5.691,10.246-7.055,22.096-3.83,33.365c5.354,18.739,22.691,31.831,42.166,31.831
		c4.062,0,8.131-0.571,12.082-1.7c11.27-3.224,20.605-10.642,26.301-20.884c5.691-10.245,7.051-22.1,3.83-33.366
		C1546.383,552.12,1529.043,539.03,1509.573,539.03z"/>
</g>
<g>
	<path fill="#2B5EA5" d="M807.354,751.206c-32.209,0-58.41-26.205-58.41-58.414s26.201-58.414,58.41-58.414
		c32.213,0,58.414,26.205,58.414,58.414S839.565,751.206,807.354,751.206z M807.354,638.872c-29.729,0-53.92,24.188-53.92,53.92
		c0,29.729,24.189,53.92,53.92,53.92s53.924-24.188,53.924-53.92C861.274,663.059,837.086,638.872,807.354,638.872z"/>
</g>
<g>
	<path fill="#2B5EA5" d="M1753.846,591.766c-32.562,0-59.059-26.494-59.059-59.061c0-32.567,26.494-59.059,59.059-59.059
		c32.566,0,59.062,26.489,59.062,59.059C1812.907,565.271,1786.413,591.766,1753.846,591.766z M1753.846,478.141
		c-30.086,0-54.562,24.48-54.562,54.566s24.479,54.564,54.562,54.564c30.086,0,54.566-24.48,54.566-54.564
		C1808.413,502.622,1783.934,478.141,1753.846,478.141z"/>
</g>
<g>
	<path fill="#2B5EA5" d="M826.807,575.43c-35.088,0-63.633-28.545-63.633-63.633s28.545-63.633,63.633-63.633
		s63.637,28.545,63.637,63.633S861.893,575.43,826.807,575.43z M826.807,452.661c-32.605,0-59.139,26.529-59.139,59.137
		c0,32.609,26.531,59.142,59.139,59.142c32.609,0,59.141-26.529,59.141-59.142C885.946,479.19,859.417,452.661,826.807,452.661z"/>
</g>
<g>
	<path fill="#2B5EA5" d="M1164.139,498.631c-36.545,0-66.271-29.729-66.271-66.272c0-36.548,29.729-66.275,66.271-66.275
		s66.277,29.729,66.277,66.275C1230.417,468.901,1200.684,498.631,1164.139,498.631z M1164.139,370.577
		c-34.062,0-61.777,27.715-61.777,61.781c0,34.062,27.715,61.776,61.777,61.776c34.066,0,61.781-27.715,61.781-61.776
		C1225.92,398.292,1198.206,370.577,1164.139,370.577z"/>
</g>
<g>
	<path fill="#939598" d="M948.409,407.803c-14.23,0-25.803-11.576-25.803-25.803s11.574-25.8,25.803-25.8
		c14.227,0,25.801,11.576,25.801,25.803C974.209,396.23,962.635,407.803,948.409,407.803z M948.409,360.694
		c-11.75,0-21.311,9.559-21.311,21.307s9.561,21.307,21.311,21.307c11.748,0,21.307-9.559,21.307-21.307
		S960.157,360.694,948.409,360.694z"/>
</g>
<g>
	<path fill="#C62731" d="M745.856,440.774c-19.092,0-36.094-12.83-41.35-31.201c-6.52-22.812,6.729-46.674,29.533-53.199
		c3.873-1.107,7.861-1.67,11.852-1.67c19.092,0,36.094,12.832,41.348,31.203c3.162,11.047,1.83,22.666-3.748,32.713
		c-5.578,10.049-14.734,17.322-25.783,20.479C753.834,440.211,749.846,440.774,745.856,440.774z M745.895,359.2
		c-3.57,0-7.146,0.504-10.613,1.496c-20.428,5.844-32.289,27.215-26.447,47.641c4.707,16.451,19.932,27.941,37.021,27.941
		c3.572,0,7.145-0.502,10.615-1.496c9.896-2.83,18.098-9.347,23.088-18.342c4.996-8.998,6.189-19.402,3.357-29.3
		C778.211,370.69,762.989,359.2,745.895,359.2z"/>
</g>
<g enable-background="new    ">
	<path fill="#939598" d="M778.915,507.303h3.752c1.006,0,1.799,0.289,2.303,0.781c0.365,0.377,0.566,0.842,0.566,1.41v0.021
		c0,1.146-0.705,1.738-1.396,2.039c1.045,0.316,1.893,0.92,1.893,2.127v0.025c0,1.512-1.271,2.404-3.199,2.404h-3.914
		L778.915,507.303L778.915,507.303z M782.502,511.231c1.195,0,2.027-0.544,2.027-1.574v-0.025c0-0.869-0.693-1.436-1.951-1.436
		h-2.682v3.035H782.502z M782.854,515.221c1.338,0,2.164-0.592,2.164-1.571v-0.025c0-0.957-0.805-1.51-2.34-1.51h-2.781v3.106
		H782.854L782.854,515.221z"/>
	<path fill="#939598" d="M788.442,507.303h0.99v7.896h4.965v0.92h-5.955V507.303z"/>
	<path fill="#939598" d="M796.282,512.426v-5.125h0.994v5.062c0,1.897,1.008,2.971,2.691,2.971c1.623,0,2.654-0.979,2.654-2.908
		v-5.123h0.996v5.047c0,2.568-1.477,3.904-3.676,3.904C797.768,516.252,796.282,514.918,796.282,512.426z"/>
	<path fill="#939598" d="M806.413,507.303h6.371v0.906h-5.375v3.008h4.809v0.906h-4.809v3.084h5.438v0.906h-6.434V507.303
		L806.413,507.303z"/>
	<path fill="#939598" d="M819.112,511.735v-0.025c0-2.494,1.859-4.557,4.457-4.557c1.598,0,2.555,0.562,3.436,1.395l-0.68,0.73
		c-0.742-0.705-1.572-1.207-2.771-1.207c-1.947,0-3.41,1.586-3.41,3.608v0.025c0,2.039,1.477,3.639,3.41,3.639
		c1.209,0,2.002-0.467,2.85-1.271l0.65,0.643c-0.918,0.935-1.926,1.547-3.521,1.547
		C820.989,516.266,819.112,514.264,819.112,511.735z"/>
	<path fill="#939598" d="M828.588,511.735v-0.025c0-2.43,1.826-4.557,4.508-4.557c2.684,0,4.48,2.102,4.48,4.528v0.025
		c0,2.428-1.824,4.557-4.506,4.557C830.387,516.266,828.588,514.165,828.588,511.735z M836.545,511.735v-0.025
		c0-2.002-1.461-3.639-3.475-3.639c-2.02,0-3.449,1.608-3.449,3.61v0.025c0,2,1.459,3.637,3.475,3.637
		C835.11,515.346,836.545,513.735,836.545,511.735z"/>
	<path fill="#939598" d="M840.118,507.303h0.994v7.896h4.959v0.92h-5.953V507.303L840.118,507.303z"/>
	<path fill="#939598" d="M848.348,507.303h0.994v7.896h4.959v0.92h-5.953V507.303L848.348,507.303z"/>
	<path fill="#939598" d="M859.838,507.241h0.936l4.016,8.875h-1.07l-1.029-2.33h-4.799l-1.045,2.33h-1.02L859.838,507.241z
		 M862.293,512.891l-2.002-4.489l-2.014,4.489H862.293z"/>
	<path fill="#939598" d="M866.961,507.303h3.789c1.084,0,1.951,0.326,2.506,0.881c0.428,0.431,0.68,1.048,0.68,1.736v0.025
		c0,1.461-1.008,2.313-2.393,2.565l2.707,3.603h-1.221l-2.561-3.424h-2.518v3.424h-0.994L866.961,507.303L866.961,507.303z
		 M870.663,511.797c1.322,0,2.266-0.68,2.266-1.812v-0.025c0-1.082-0.83-1.736-2.252-1.736h-2.721v3.574L870.663,511.797
		L870.663,511.797z"/>
</g>
<g enable-background="new    ">
	<path fill="#939598" d="M1486.797,578.426h3.789c1.082,0,1.951,0.328,2.504,0.881c0.43,0.433,0.682,1.045,0.682,1.738v0.025
		c0,1.459-1.008,2.312-2.393,2.563l2.707,3.604h-1.223l-2.559-3.424h-2.518v3.424h-0.994L1486.797,578.426L1486.797,578.426z
		 M1490.499,582.92c1.322,0,2.266-0.68,2.266-1.811v-0.025c0-1.082-0.828-1.736-2.254-1.736h-2.719v3.574L1490.499,582.92
		L1490.499,582.92z"/>
	<path fill="#939598" d="M1496.198,583.549v-5.123h0.996v5.062c0,1.897,1.006,2.971,2.689,2.971c1.623,0,2.656-0.979,2.656-2.908
		v-5.123h0.994v5.049c0,2.566-1.475,3.902-3.676,3.902C1497.684,587.377,1496.198,586.042,1496.198,583.549z"/>
	<path fill="#939598" d="M1506.329,578.426h3.789c1.084,0,1.951,0.328,2.506,0.881c0.428,0.433,0.68,1.045,0.68,1.738v0.025
		c0,1.459-1.008,2.312-2.393,2.563l2.707,3.604h-1.221l-2.559-3.424h-2.518v3.424h-0.996L1506.329,578.426L1506.329,578.426z
		 M1510.03,582.92c1.322,0,2.266-0.68,2.266-1.811v-0.025c0-1.082-0.83-1.736-2.252-1.736h-2.719v3.574L1510.03,582.92
		L1510.03,582.92z"/>
	<path fill="#939598" d="M1519.129,578.364h0.934l4.018,8.875h-1.07l-1.027-2.328h-4.801l-1.045,2.328h-1.02L1519.129,578.364z
		 M1521.584,584.016l-2.002-4.494l-2.014,4.494H1521.584z"/>
	<path fill="#939598" d="M1526.252,578.426h0.994v7.896h4.959v0.918h-5.953V578.426z"/>
</g>
<g>
	<path fill="#C62731" d="M1776.266,760.458c-6.969,0-13.893-1.102-20.58-3.273c-34.922-11.34-54.104-48.977-42.77-83.896
		c4.432-13.646,12.924-25.256,24.562-33.576c11.402-8.154,24.811-12.465,38.762-12.465c6.967,0,13.891,1.102,20.578,3.271
		c34.922,11.345,54.104,48.979,42.77,83.898c-4.432,13.646-12.924,25.256-24.561,33.576
		C1803.62,756.149,1790.217,760.458,1776.266,760.458z M1776.239,631.741c-13.008,0-25.508,4.02-36.146,11.625
		c-10.852,7.758-18.77,18.584-22.896,31.309c-10.574,32.564,7.312,67.662,39.881,78.236c6.238,2.022,12.695,3.053,19.188,3.053
		c13.012,0,25.51-4.02,36.146-11.627c10.85-7.758,18.77-18.584,22.9-31.309c10.568-32.562-7.318-67.66-39.885-78.234
		C1789.19,632.766,1782.733,631.741,1776.239,631.741z"/>
</g>
<g enable-background="new    ">
	<path fill="#939598" d="M1722.858,689.358h1.084l2.518,7.338l2.416-7.363h0.818l2.418,7.363l2.518-7.338h1.045l-3.145,8.872h-0.848
		l-2.416-7.147l-2.43,7.147h-0.83L1722.858,689.358z"/>
	<path fill="#939598" d="M1737.911,689.358h0.996v3.913h5.084v-3.913h0.996v8.811h-0.996v-3.965h-5.084v3.965h-0.996V689.358z"/>
	<path fill="#939598" d="M1748.004,689.358h0.994v8.811h-0.994V689.358z"/>
	<path fill="#939598" d="M1754.348,690.276h-2.959v-0.918h6.924v0.918h-2.957v7.893h-1.008V690.276L1754.348,690.276z"/>
	<path fill="#939598" d="M1760.616,689.358h6.369v0.901h-5.375v3.012h4.809v0.904h-4.809v3.084h5.438v0.906h-6.432V689.358z"/>
	<path fill="#939598" d="M1773.315,693.788v-0.025c0-2.489,1.857-4.557,4.451-4.557c1.604,0,2.561,0.565,3.439,1.396l-0.68,0.729
		c-0.744-0.703-1.574-1.207-2.771-1.207c-1.951,0-3.412,1.586-3.412,3.611v0.022c0,2.039,1.477,3.642,3.412,3.642
		c1.207,0,2.002-0.47,2.844-1.271l0.656,0.646c-0.92,0.932-1.928,1.549-3.525,1.549
		C1775.19,698.321,1773.315,696.319,1773.315,693.788z"/>
	<path fill="#939598" d="M1782.792,693.788v-0.025c0-2.43,1.824-4.557,4.506-4.557c2.684,0,4.48,2.104,4.48,4.531v0.022
		c0,2.433-1.824,4.562-4.506,4.562S1782.792,696.217,1782.792,693.788z M1790.747,693.788v-0.025c0-2-1.461-3.637-3.475-3.637
		c-2.018,0-3.449,1.611-3.449,3.611v0.022c0,2.002,1.461,3.642,3.475,3.642C1789.313,697.401,1790.747,695.79,1790.747,693.788z"/>
	<path fill="#939598" d="M1794.319,689.358h0.994v7.893h4.959v0.918h-5.953V689.358z"/>
	<path fill="#939598" d="M1802.549,689.358h0.996v7.893h4.959v0.918h-5.955V689.358z"/>
	<path fill="#939598" d="M1814.042,689.293h0.932l4.02,8.875h-1.07l-1.031-2.33h-4.797l-1.045,2.33h-1.02L1814.042,689.293z
		 M1816.497,694.946l-2.002-4.494l-2.016,4.494H1816.497z"/>
	<path fill="#939598" d="M1821.163,689.358h3.789c1.084,0,1.951,0.323,2.506,0.881c0.428,0.428,0.68,1.045,0.68,1.733V692
		c0,1.459-1.008,2.314-2.393,2.566l2.707,3.602h-1.221l-2.559-3.424h-2.518v3.424h-0.996L1821.163,689.358L1821.163,689.358z
		 M1824.864,693.85c1.322,0,2.266-0.68,2.266-1.811v-0.025c0-1.082-0.83-1.733-2.252-1.733h-2.719v3.571L1824.864,693.85
		L1824.864,693.85z"/>
</g>
<g enable-background="new    ">
	<path fill="#939598" d="M721.915,398.368v-5.123h0.994v5.061c0,1.9,1.006,2.974,2.689,2.974c1.625,0,2.656-0.982,2.656-2.908
		v-5.123h0.996v5.047c0,2.568-1.473,3.904-3.676,3.904C723.399,402.196,721.915,400.86,721.915,398.368z"/>
	<path fill="#939598" d="M732.043,393.245h3.791c1.082,0,1.951,0.326,2.504,0.881c0.428,0.428,0.68,1.045,0.68,1.736v0.022
		c0,1.459-1.006,2.316-2.391,2.568l2.707,3.6h-1.221l-2.561-3.424h-2.518v3.424h-0.994L732.043,393.245L732.043,393.245z
		 M735.747,397.739c1.322,0,2.266-0.685,2.266-1.812v-0.024c0-1.084-0.832-1.738-2.254-1.738h-2.719v3.576L735.747,397.739
		L735.747,397.739z"/>
	<path fill="#939598" d="M741.584,393.245h3.75c1.008,0,1.801,0.289,2.305,0.781c0.365,0.377,0.566,0.842,0.566,1.405v0.025
		c0,1.146-0.705,1.738-1.398,2.039c1.045,0.313,1.893,0.92,1.893,2.127v0.025c0,1.512-1.271,2.401-3.199,2.401h-3.914
		L741.584,393.245L741.584,393.245z M745.172,397.172c1.195,0,2.027-0.543,2.027-1.574v-0.022c0-0.869-0.693-1.438-1.951-1.438
		h-2.682v3.035H745.172L745.172,397.172z M745.526,401.163c1.334,0,2.164-0.592,2.164-1.574v-0.021c0-0.957-0.809-1.515-2.344-1.515
		h-2.779v3.109H745.526L745.526,401.163z"/>
	<path fill="#939598" d="M754.372,393.18h0.932l4.02,8.875h-1.07l-1.031-2.328h-4.797l-1.045,2.328h-1.02L754.372,393.18z
		 M756.827,398.833l-2-4.494l-2.014,4.494H756.827z"/>
	<path fill="#939598" d="M761.495,393.245h0.932l5.555,7.061v-7.061h0.971v8.811h-0.793l-5.691-7.225v7.225h-0.969L761.495,393.245
		L761.495,393.245z"/>
</g>
<g enable-background="new    ">
	<path fill="#939598" d="M768.852,695.823l0.617-0.73c0.918,0.832,1.799,1.248,3.021,1.248c1.184,0,1.963-0.631,1.963-1.498v-0.021
		c0-0.818-0.439-1.285-2.291-1.681c-2.025-0.438-2.957-1.094-2.957-2.541v-0.021c0-1.385,1.221-2.404,2.895-2.404
		c1.285,0,2.203,0.363,3.102,1.082l-0.58,0.771c-0.818-0.668-1.637-0.957-2.543-0.957c-1.146,0-1.875,0.629-1.875,1.424v0.021
		c0,0.832,0.453,1.298,2.391,1.714c1.965,0.43,2.871,1.146,2.871,2.491v0.025c0,1.51-1.26,2.492-3.008,2.492
		C771.055,697.233,769.909,696.768,768.852,695.823z"/>
	<path fill="#939598" d="M777.788,693.418v-5.123h0.994v5.062c0,1.896,1.008,2.971,2.689,2.971c1.625,0,2.656-0.982,2.656-2.908
		v-5.123h0.994v5.049c0,2.566-1.473,3.902-3.676,3.902C779.272,697.247,777.788,695.911,777.788,693.418z"/>
	<path fill="#939598" d="M787.918,688.295h3.752c1.008,0,1.801,0.289,2.303,0.781c0.365,0.377,0.566,0.842,0.566,1.41v0.02
		c0,1.146-0.703,1.738-1.396,2.041c1.045,0.314,1.893,0.918,1.893,2.127v0.025c0,1.51-1.271,2.404-3.197,2.404h-3.916
		L787.918,688.295L787.918,688.295z M791.506,692.223c1.195,0,2.027-0.541,2.027-1.571v-0.025c0-0.867-0.693-1.434-1.951-1.434
		h-2.682v3.03H791.506L791.506,692.223z M791.86,696.213c1.334,0,2.164-0.592,2.164-1.574v-0.021c0-0.957-0.809-1.512-2.346-1.512
		h-2.777v3.106H791.86L791.86,696.213z"/>
	<path fill="#939598" d="M797.307,693.418v-5.123h0.994v5.062c0,1.896,1.008,2.971,2.695,2.971c1.623,0,2.654-0.982,2.654-2.908
		v-5.123h0.996v5.049c0,2.566-1.477,3.902-3.68,3.902C798.793,697.247,797.307,695.911,797.307,693.418z"/>
	<path fill="#939598" d="M807.438,688.295h3.789c1.082,0,1.951,0.328,2.508,0.881c0.43,0.428,0.68,1.045,0.68,1.738v0.025
		c0,1.459-1.006,2.311-2.395,2.562l2.707,3.604h-1.223l-2.555-3.428h-2.521v3.428h-0.994L807.438,688.295L807.438,688.295z
		 M811.139,692.79c1.322,0,2.27-0.68,2.27-1.812v-0.021c0-1.082-0.83-1.736-2.252-1.736h-2.725v3.574L811.139,692.79L811.139,692.79
		z"/>
	<path fill="#939598" d="M816.979,688.295h3.754c1.008,0,1.801,0.289,2.305,0.781c0.365,0.377,0.562,0.842,0.562,1.41v0.02
		c0,1.146-0.701,1.738-1.396,2.041c1.045,0.314,1.889,0.918,1.889,2.127v0.025c0,1.51-1.27,2.404-3.195,2.404h-3.914v-8.812h-0.002
		v0.004H816.979L816.979,688.295z M820.567,692.223c1.191,0,2.021-0.541,2.021-1.571v-0.025c0-0.867-0.688-1.434-1.951-1.434h-2.682
		v3.03H820.567L820.567,692.223z M820.918,696.213c1.334,0,2.166-0.592,2.166-1.574v-0.021c0-0.957-0.807-1.512-2.342-1.512h-2.783
		v3.106H820.918L820.918,696.213z"/>
	<path fill="#939598" d="M829.766,688.233h0.936l4.016,8.875h-1.068l-1.031-2.33h-4.795l-1.045,2.33h-1.021L829.766,688.233z
		 M832.221,693.885l-2.002-4.494l-2.014,4.494H832.221z"/>
	<path fill="#939598" d="M836.889,688.295h0.936l5.551,7.062v-7.062h0.969v8.812h-0.793l-5.688-7.23v7.23h-0.973L836.889,688.295
		L836.889,688.295z"/>
</g>
<g enable-background="new    ">
	<path fill="#939598" d="M951.573,533.512h3.299c1.988,0,3.297,1.062,3.297,2.795v0.025c0,1.9-1.586,2.883-3.461,2.883h-2.141v3.109
		h-0.994V533.512L951.573,533.512z M954.747,538.307c1.459,0,2.416-0.776,2.416-1.938v-0.025c0-1.258-0.943-1.914-2.367-1.914
		h-2.227v3.877H954.747L954.747,538.307z"/>
	<path fill="#939598" d="M960.42,533.512h3.789c1.084,0,1.953,0.326,2.506,0.881c0.428,0.431,0.68,1.045,0.68,1.736v0.025
		c0,1.461-1.008,2.313-2.393,2.565l2.707,3.603h-1.221l-2.559-3.424h-2.518v3.424h-0.996L960.42,533.512L960.42,533.512z
		 M964.122,538.006c1.322,0,2.266-0.68,2.266-1.812v-0.025c0-1.082-0.83-1.736-2.252-1.736h-2.719v3.574L964.122,538.006
		L964.122,538.006z"/>
	<path fill="#939598" d="M969.571,537.944v-0.025c0-2.43,1.826-4.557,4.508-4.557c2.68,0,4.479,2.102,4.479,4.528v0.025
		c0,2.428-1.82,4.557-4.506,4.557C971.372,542.475,969.571,540.374,969.571,537.944z M977.528,537.944v-0.025
		c0-2.002-1.461-3.639-3.479-3.639c-2.016,0-3.449,1.608-3.449,3.61v0.025c0,2,1.463,3.637,3.479,3.637
		C976.092,541.555,977.528,539.944,977.528,537.944z"/>
	<path fill="#939598" d="M980.708,537.944v-0.025c0-2.418,1.775-4.557,4.418-4.557c1.486,0,2.406,0.428,3.287,1.17l-0.643,0.754
		c-0.684-0.59-1.438-1.006-2.684-1.006c-1.951,0-3.35,1.646-3.35,3.608v0.025c0,2.102,1.348,3.664,3.484,3.664
		c1.01,0,1.939-0.394,2.541-0.881v-2.191h-2.68v-0.893h3.637v3.512c-0.814,0.73-2.051,1.346-3.535,1.346
		C982.42,542.475,980.708,540.459,980.708,537.944z"/>
	<path fill="#939598" d="M991.407,533.512h3.789c1.082,0,1.951,0.326,2.504,0.881c0.428,0.431,0.68,1.045,0.68,1.736v0.025
		c0,1.461-1.006,2.313-2.391,2.565l2.707,3.603h-1.225l-2.557-3.424h-2.514v3.424h-0.996L991.407,533.512L991.407,533.512z
		 M995.108,538.006c1.318,0,2.266-0.68,2.266-1.812v-0.025c0-1.082-0.832-1.736-2.254-1.736h-2.719v3.574L995.108,538.006
		L995.108,538.006z"/>
	<path fill="#939598" d="M1000.946,533.512h6.371v0.906h-5.375v3.008h4.809v0.906h-4.809v3.084h5.438v0.906h-6.434V533.512
		L1000.946,533.512z"/>
	<path fill="#939598" d="M1009.241,541.04l0.617-0.73c0.918,0.832,1.799,1.246,3.02,1.246c1.188,0,1.965-0.629,1.965-1.498v-0.021
		c0-0.818-0.438-1.285-2.291-1.674c-2.023-0.441-2.959-1.099-2.959-2.543v-0.025c0-1.385,1.225-2.406,2.896-2.406
		c1.285,0,2.203,0.365,3.098,1.084l-0.58,0.771c-0.814-0.666-1.635-0.957-2.543-0.957c-1.145,0-1.875,0.629-1.875,1.422v0.022
		c0,0.83,0.453,1.3,2.395,1.714c1.965,0.43,2.871,1.145,2.871,2.491v0.025c0,1.51-1.262,2.492-3.012,2.492
		C1011.444,542.45,1010.297,541.985,1009.241,541.04z"/>
	<path fill="#939598" d="M1017.61,541.04l0.613-0.73c0.92,0.832,1.803,1.246,3.021,1.246c1.184,0,1.963-0.629,1.963-1.498v-0.021
		c0-0.818-0.438-1.285-2.291-1.674c-2.027-0.441-2.957-1.099-2.957-2.543v-0.025c0-1.385,1.221-2.406,2.896-2.406
		c1.279,0,2.199,0.365,3.096,1.084l-0.578,0.771c-0.818-0.666-1.637-0.957-2.543-0.957c-1.146,0-1.875,0.629-1.875,1.422v0.022
		c0,0.83,0.453,1.3,2.391,1.714c1.969,0.43,2.871,1.145,2.871,2.491v0.025c0,1.51-1.258,2.492-3.008,2.492
		C1019.813,542.45,1018.667,541.985,1017.61,541.04z"/>
	<path fill="#939598" d="M1026.772,533.512h0.992v8.812h-0.992V533.512z"/>
	<path fill="#939598" d="M1030.032,533.512h1.104l3.139,7.592l3.145-7.592h1.07l-3.789,8.875h-0.881L1030.032,533.512z"/>
	<path fill="#939598" d="M1040.667,533.512h6.369v0.906h-5.375v3.008h4.809v0.906h-4.809v3.084h5.438v0.906h-6.432V533.512z"/>
</g>
<g enable-background="new    ">
	<path fill="#939598" d="M1586.61,383.792h0.996v8.811h-0.996V383.792z"/>
	<path fill="#939598" d="M1590.625,383.792h0.932l5.555,7.061v-7.061h0.969v8.811h-0.793l-5.689-7.225v7.225h-0.969
		L1590.625,383.792L1590.625,383.792z"/>
	<path fill="#939598" d="M1601.008,383.792h3.062c2.77,0,4.684,1.9,4.684,4.381v0.025c0,2.479-1.914,4.401-4.684,4.401h-3.062
		V383.792z M1604.067,391.684c2.229,0,3.646-1.512,3.646-3.463V388.2c0-1.953-1.422-3.488-3.646-3.488h-2.064v6.976
		L1604.067,391.684L1604.067,391.684z"/>
	<path fill="#939598" d="M1611.292,383.792h6.369v0.906h-5.375v3.008h4.809v0.906h-4.809v3.084h5.438v0.903h-6.432V383.792z"/>
	<path fill="#939598" d="M1620.163,383.792h3.299c1.988,0,3.299,1.057,3.299,2.795v0.025c0,1.897-1.586,2.883-3.463,2.883h-2.139
		v3.104h-0.996V383.792L1620.163,383.792z M1623.336,388.586c1.459,0,2.416-0.781,2.416-1.938v-0.025
		c0-1.258-0.943-1.914-2.367-1.914h-2.227v3.877H1623.336L1623.336,388.586z"/>
	<path fill="#939598" d="M1629.01,383.792h6.371v0.906h-5.375v3.008h4.809v0.906h-4.809v3.084h5.438v0.903h-6.436v-8.808H1629.01z"
		/>
	<path fill="#939598" d="M1637.883,383.792h0.936l5.553,7.061v-7.061h0.969v8.811h-0.793l-5.688-7.225v7.225h-0.975
		L1637.883,383.792L1637.883,383.792z"/>
	<path fill="#939598" d="M1648.266,383.792h3.062c2.77,0,4.682,1.9,4.682,4.381v0.025c0,2.479-1.912,4.401-4.682,4.401h-3.062
		V383.792z M1651.327,391.684c2.227,0,3.65-1.512,3.65-3.463V388.2c0-1.953-1.428-3.488-3.65-3.488h-2.064v6.976L1651.327,391.684
		L1651.327,391.684z"/>
	<path fill="#939598" d="M1658.549,383.792h6.371v0.906h-5.375v3.008h4.809v0.906h-4.809v3.084h5.438v0.903h-6.434V383.792
		L1658.549,383.792z"/>
	<path fill="#939598" d="M1667.422,383.792h0.932l5.555,7.061v-7.061h0.969v8.811h-0.793l-5.688-7.225v7.225h-0.973
		L1667.422,383.792L1667.422,383.792z"/>
	<path fill="#939598" d="M1680.135,384.709h-2.959v-0.918h6.924v0.918h-2.959v7.893h-1.006V384.709z"/>
</g>
<g enable-background="new    ">
	<path fill="#939598" d="M1126.176,427.333h1.006l3.211,4.809l3.209-4.809h1.01v8.812h-0.994v-7.139l-3.209,4.723h-0.053
		l-3.209-4.709v7.125h-0.973L1126.176,427.333L1126.176,427.333z"/>
	<path fill="#939598" d="M1137.151,431.764v-0.021c0-2.435,1.82-4.562,4.506-4.562c2.682,0,4.479,2.105,4.479,4.533v0.025
		c0,2.428-1.822,4.557-4.508,4.557C1138.952,436.295,1137.151,434.194,1137.151,431.764z M1145.106,431.764v-0.021
		c0-2.002-1.459-3.642-3.479-3.642c-2.014,0-3.449,1.611-3.449,3.613v0.025c0,2,1.461,3.637,3.479,3.637
		C1143.672,435.377,1145.106,433.766,1145.106,431.764z"/>
	<path fill="#939598" d="M1148.678,427.333h3.062c2.77,0,4.684,1.902,4.684,4.381v0.025c0,2.479-1.914,4.403-4.684,4.403h-3.062
		V427.333z M1151.739,435.227c2.227,0,3.646-1.512,3.646-3.463v-0.021c0-1.953-1.422-3.488-3.646-3.488h-2.064v6.976
		L1151.739,435.227L1151.739,435.227z"/>
	<path fill="#939598" d="M1158.961,427.333h6.369v0.906h-5.375v3.01h4.809v0.906h-4.809v3.084h5.439v0.906h-6.438v-8.812H1158.961
		L1158.961,427.333z"/>
	<path fill="#939598" d="M1167.834,427.333h3.789c1.082,0,1.951,0.328,2.504,0.881c0.428,0.428,0.68,1.045,0.68,1.738v0.021
		c0,1.461-1.006,2.316-2.391,2.568l2.707,3.6h-1.221l-2.561-3.424h-2.518v3.424h-0.994L1167.834,427.333L1167.834,427.333z
		 M1171.536,431.829c1.322,0,2.266-0.68,2.266-1.812v-0.022c0-1.082-0.832-1.736-2.254-1.736h-2.719v3.574L1171.536,431.829
		L1171.536,431.829z"/>
	<path fill="#939598" d="M1180.633,427.272h0.936l4.016,8.875h-1.07l-1.029-2.33h-4.795l-1.049,2.33h-1.02L1180.633,427.272z
		 M1183.088,432.922l-2-4.494l-2.014,4.494H1183.088z"/>
	<path fill="#939598" d="M1188.952,428.252h-2.957v-0.92h6.924v0.92h-2.959v7.893h-1.006L1188.952,428.252L1188.952,428.252z"/>
	<path fill="#939598" d="M1195.219,427.333h6.369v0.906h-5.375v3.01h4.812v0.906h-4.812v3.084h5.439v0.906h-6.438v-8.812H1195.219
		L1195.219,427.333z"/>
</g>
<g enable-background="new    ">
	<path fill="#939598" d="M1720.811,528.211h3.303c1.984,0,3.299,1.057,3.299,2.795v0.025c0,1.897-1.586,2.883-3.463,2.883h-2.143
		v3.109h-0.996V528.211L1720.811,528.211z M1723.985,533.006c1.459,0,2.416-0.781,2.416-1.938v-0.025
		c0-1.258-0.943-1.914-2.367-1.914h-2.229v3.877H1723.985L1723.985,533.006z"/>
	<path fill="#939598" d="M1729.27,532.641v-0.021c0-2.43,1.824-4.56,4.51-4.56c2.682,0,4.479,2.104,4.479,4.531v0.025
		c0,2.428-1.822,4.557-4.506,4.557S1729.27,535.073,1729.27,532.641z M1737.225,532.641v-0.021c0-2.002-1.461-3.639-3.475-3.639
		s-3.449,1.608-3.449,3.61v0.025c0,2,1.461,3.637,3.479,3.637C1735.79,536.254,1737.225,534.643,1737.225,532.641z"/>
	<path fill="#939598" d="M1740.797,528.211h3.299c1.988,0,3.297,1.057,3.297,2.795v0.025c0,1.897-1.586,2.883-3.461,2.883h-2.141
		v3.109h-0.994V528.211L1740.797,528.211z M1743.969,533.006c1.461,0,2.418-0.781,2.418-1.938v-0.025
		c0-1.258-0.941-1.914-2.367-1.914h-2.229v3.877H1743.969L1743.969,533.006z"/>
	<path fill="#939598" d="M1749.506,533.334v-5.125h0.996v5.061c0,1.902,1.006,2.976,2.693,2.976c1.623,0,2.652-0.982,2.652-2.908
		v-5.125h0.994v5.049c0,2.568-1.473,3.902-3.676,3.902C1750.993,537.163,1749.506,535.827,1749.506,533.334z"/>
	<path fill="#939598" d="M1759.637,528.211h0.996v7.893h4.959v0.923h-5.955V528.211z"/>
	<path fill="#939598" d="M1767.958,528.211h0.994v8.812h-0.994V528.211z"/>
	<path fill="#939598" d="M1771.393,535.739l0.617-0.73c0.918,0.832,1.799,1.246,3.021,1.246c1.182,0,1.963-0.629,1.963-1.498v-0.021
		c0-0.818-0.441-1.285-2.291-1.679c-2.027-0.438-2.959-1.094-2.959-2.543v-0.021c0-1.387,1.223-2.406,2.895-2.406
		c1.283,0,2.203,0.365,3.1,1.084l-0.578,0.769c-0.818-0.669-1.639-0.955-2.543-0.955c-1.146,0-1.877,0.629-1.877,1.422v0.022
		c0,0.83,0.455,1.295,2.393,1.711c1.965,0.433,2.871,1.146,2.871,2.494v0.025c0,1.51-1.26,2.492-3.01,2.492
		C1773.596,537.149,1772.45,536.682,1771.393,535.739z"/>
	<path fill="#939598" d="M1782.606,529.129h-2.959v-0.918h6.924v0.918h-2.959v7.896h-1.006V529.129L1782.606,529.129z"/>
</g>
<ellipse fill="#EFEFEF" cx="807.698" cy="778.703" rx="50.791" ry="3.146"/>
<ellipse fill="#EFEFEF" cx="1270.668" cy="811.93" rx="84.953" ry="6.547"/>
<ellipse fill="#EFEFEF" cx="1773.645" cy="778.703" rx="50.791" ry="3.146"/>
<linearGradient id="SVGID_1_" gradientUnits="userSpaceOnUse" x1="1811.1313" y1="-105.9189" x2="1964.2114" y2="-105.9189" gradientTransform="matrix(1 0 0 -1 -616 562.9551)">
	<stop  offset="0" style="stop-color:#C62731"/>
	<stop  offset="1" style="stop-color:#2B5EA5"/>
</linearGradient>
<path fill="url(#SVGID_1_)" d="M1271.672,745.413c-42.205,0-76.541-34.336-76.541-76.539s34.336-76.539,76.541-76.539
	s76.539,34.336,76.539,76.539S1313.875,745.413,1271.672,745.413z M1271.672,599.077c-38.486,0-69.797,31.311-69.797,69.797
	s31.311,69.797,69.797,69.797s69.797-31.311,69.797-69.797S1310.159,599.077,1271.672,599.077z"/>
<g>
	
		<rect x="1402.818" y="548.216" transform="matrix(0.4937 0.8696 -0.8696 0.4937 1247.4594 -909.783)" fill="#2B5EA5" width="4.494" height="136.459"/>
</g>
<g>
	<path fill="#C1C1C0" d="M1227.374,652.165l56.42,0.059h0.061h0.207h0.441h0.029l0.029,0.146l0.059,0.146l0.119,0.183l0.117,0.231
		l0.061,0.029l0.029,0.029l0.059,0.059l0.029,0.029h0.029v0.061l0.029,0.027l0.025,0.031l0.029-0.031h0.029l0.027-0.027h0.061h0.059
		l0.119,0.062l0.088,0.061l0.148,0.062l0.115,0.061l0.029,0.029l0.146,0.059H1286l0.062,0.029v0.029h0.025l0.031,0.026l0.059,0.029
		v0.028l0.029,0.06h0.027l0.027,0.029l0.029,0.026l0.061,0.029l0.117,0.029l0.119,0.028l0.178,0.06l0.117,0.028h0.09h0.061h0.029
		v0.025l0.025,0.031l0.182,0.117l0.029,0.028l0.025,0.027l0.062,0.029l0.09,0.059l0.059,0.029l0.146,0.061l0.207,0.062h0.027h0.029
		l0.117-0.029h0.061l0.09,0.09l0.09,0.146l0.025,0.03l0.207,0.115l0.029,0.029l0.117,0.117l0.061,0.061l0.062,0.027l0.145,0.119
		l0.062,0.061v0.029l0.027,0.088l0.027,0.029h0.062l0.027,0.028h0.029h0.027h0.027v0.027h0.029l0.207,0.028h0.027l0.088-0.028
		l0.029,0.028l0.09-0.028l0.145-0.09l0.18,0.028h0.059l0.061-0.028l0.117-0.089l0.027-0.028l0.119-0.117v-0.027h0.027l0.029-0.03
		l0.088-0.06l0.029-0.062l0.088-0.179l0.062-0.059v-0.029l0.061-0.116l0.029-0.119v-0.117l0.025-0.062v-0.026V654.1v-0.029v-0.061
		l0.062-0.025l0.061-0.03l0.062-0.029l0.059-0.025h0.062l0.029-0.028h0.088h0.027h0.027h0.029l0.09,0.088l0.145,0.028l0.029,0.027
		l0.119,0.061l0.145,0.029h0.119h0.088h0.061l0.297,0.027l0.207,0.028l0.146,0.029l0.178-0.029h0.088h0.029l0.029-0.028h0.029
		l0.025-0.027l0.119-0.061l0.09-0.031l0.027-0.025h0.029h0.027v-0.028h0.061h0.09l0.062,0.028l0.059,0.025l0.178,0.031l0.148,0.028
		h0.115h0.027l0.062-0.028h0.088l0.029-0.031h0.027l0.088-0.025l0.117-0.062h0.062v0.029l0.027,0.03l0.061,0.025h0.059H1295
		l0.09,0.029h0.027l0.025,0.028h0.031h0.117l0.029-0.028l0.061-0.06l0.062-0.062l0.025-0.027v-0.029l0.062-0.088h0.029l0.025-0.028
		h0.029h0.029h0.025l0.029,0.061h0.062l0.176-0.027l0.029,0.027l0.061,0.061l0.029,0.029l0.029,0.025h0.025l0.178-0.025h0.062
		l0.061-0.029l0.027-0.028v-0.027h0.029h0.059v-0.029l0.09-0.026v-0.029h0.029l0.029,0.029h0.025v0.026l0.119,0.119h0.088h0.029
		h0.029l0.088,0.025l0.088-0.025h0.029l0.031-0.028h0.025l0.119,0.028l0.027,0.025h0.029l0.059,0.031l0.061,0.028l0.029,0.025v0.029
		v0.178v0.029l0.029,0.061l0.027,0.029v0.026v0.091l0.027,0.028v0.027l0.062,0.026h0.061h0.117l0.09,0.031h0.059h0.062l0.027,0.027
		h0.061l0.088,0.061l0.061,0.088h0.027v0.029l0.029,0.061h0.029v0.027v0.029l0.027,0.061l0.027,0.029l0.207,0.027h0.09h0.061
		l0.117-0.027H1299l0.09-0.029h0.029h0.027l0.115,0.029l0.207,0.059l0.031,0.029h0.027h0.025h0.031l0.061,0.029h0.115h0.119h0.119
		h0.029l0.025,0.026l0.062,0.029l0.088,0.178v0.029v0.059l-0.029,0.119v0.027v0.029l0.029,0.026v0.029h0.061h0.092l0.059-0.061
		h0.062l0.061-0.062l0.059-0.061h0.029l0.146-0.062v0.029h0.027h0.027l0.031,0.029l0.113,0.061h0.148l0.117,0.059l0.117,0.062
		l0.061,0.061l0.146,0.029h0.061h0.061l0.061,0.027l0.061,0.028l0.062,0.062v0.09l0.029,0.117l-0.029,0.178l0.029,0.029v0.026
		l0.061,0.029l0.117,0.027h0.027h0.029h0.146l0.113-0.027l0.031-0.029h0.027h0.029h0.027l0.027-0.026h0.029h0.027h0.029l0.027,0.026
		l0.297,0.09l0.061,0.029l0.027,0.027v0.026v0.029v0.062v0.028h-0.027v0.027h-0.027v0.029l-0.029,0.026l-0.09,0.18l-0.027,0.027
		v0.062v0.061v0.09l0.027,0.062l0.031,0.059l0.088,0.119l0.115,0.146l0.031,0.062h0.025l0.031,0.027h0.025l0.146,0.061h0.027v0.027
		l0.029,0.028l0.061,0.027h0.029v0.029h0.027l0.029,0.059h0.029v0.031l0.025,0.059v0.029l0.029,0.061v0.117v0.062l0.029,0.061
		l0.027,0.09l0.027,0.062l0.146,0.09h0.027h0.027v0.027h0.029h0.027h0.031h0.025v-0.027h0.031h0.027l0.025-0.031h0.031l0.088-0.117
		h0.027v-0.012h0.029h0.029l0.059-0.029h0.029l0.059-0.026h0.029l0.062,0.026h0.027l0.09,0.062l0.027,0.03l0.029,0.025l0.059,0.062
		v0.059l0.029,0.062v0.024l0.09,0.119h0.029v0.029h0.059l0.119,0.059h0.117l0.029-0.024l0.088-0.029l0.061-0.062l0.18-0.061h0.027
		h0.117h0.029h0.025l0.094,0.029h0.025l0.146,0.024l0.029,0.062l0.09,0.09l0.059,0.176v0.119v0.088l-0.027,0.119l-0.027,0.062
		l-0.119,0.146l-0.117,0.178v0.029l-0.029,0.119v0.088l0.061,0.088v0.029l0.029,0.026v0.029v0.029v0.026l-0.029,0.091l-0.027,0.059
		v0.031l-0.027,0.028v0.025v0.062v0.059l0.027,0.061l0.027,0.027v0.031l0.061,0.059l0.061,0.062l0.062,0.026l0.117,0.062
		l0.119,0.119l0.025,0.026l0.029,0.062v0.029v0.059v0.061v0.117l0.062,0.09l0.025,0.062l0.062,0.059l0.146,0.092l0.061,0.062
		l0.062,0.059l0.027,0.09v0.062v0.09v0.029v0.024l0.029,0.029h0.027v0.029l0.027,0.029l-0.027,0.026l-0.062,0.117h-0.025
		l-0.031,0.029l-0.027,0.028h-0.029h-0.027l-0.117,0.062l-0.027,0.059v0.029h0.027l0.062,0.088v0.029h0.025v0.028v0.027l0.029,0.029
		v0.026v0.029v0.027l-0.029,0.061v0.062v0.061v0.029l0.029,0.061l0.061,0.09l0.062,0.027l0.088,0.061l0.029,0.027h0.027l0.029,0.061
		l0.027,0.062l0.062,0.086l0.025,0.062h0.029v0.027h0.061l0.029,0.029h0.145l0.061,0.026l0.031,0.029l0.027,0.061l0.027,0.027
		l0.029,0.031v0.025l0.027,0.09v0.028l-0.027,0.089l-0.029,0.09l-0.027,0.061v0.029v0.026l-0.027,0.089v0.062v0.027v0.116
		l0.059,0.119l0.029,0.062v0.026l0.027,0.029l0.061,0.027l0.029,0.028h0.059v-0.028l0.09-0.027h0.088l0.062,0.027l0.061,0.028v0.027
		l0.029,0.029l0.029,0.028v0.062l-0.029,0.026v0.029l-0.029,0.062l-0.09,0.059l-0.029,0.029l-0.025,0.061v0.062v0.028l0.025,0.027
		l0.029,0.027h0.029l0.029,0.03h0.025h0.031l0.029-0.03v-0.027h0.023v-0.027l0.031-0.062l0.029-0.027l0.088-0.026h0.119l0.059,0.026
		l0.029,0.027l0.027,0.062v0.027l-0.027,0.027l-0.029,0.09l-0.027,0.028v0.027v0.029l0.027,0.028l0.029,0.027h0.027l0.061,0.029
		l0.029-0.029l0.088-0.027h0.062l0.027-0.028h0.027v0.028H1309l0.061,0.027l0.029,0.029l0.029,0.026v0.029v0.061v0.089l-0.029,0.061
		v0.029l-0.029,0.026l-0.061,0.062v0.025v0.03v0.062l0.061,0.117l0.029,0.026v0.029v0.026v0.029l-0.029,0.062l-0.027,0.028h-0.027
		l-0.09,0.027l-0.062,0.029v0.028l-0.027,0.027v0.029v0.026l0.027,0.062h0.029l0.061,0.09l0.029,0.026l0.027,0.062v0.09v0.029
		l0.029,0.059l0.025,0.029v0.029h0.031l0.027,0.059h0.027l0.029,0.029l0.088,0.028l0.062,0.027l0.029,0.029l0.025,0.059l0.027,0.062
		v0.059v0.148v0.024v0.062l0.031,0.026v0.029l0.027,0.027h0.027l0.029,0.028l0.061,0.027l0.146,0.031l0.031,0.026l0.059,0.027
		l0.029,0.029l0.027,0.028v0.062l0.029,0.061l-0.029,0.027v0.029l-0.061,0.061l-0.062,0.088v0.09v0.117v0.062l-0.061,0.061
		l-0.061,0.061h-0.027l-0.029,0.027l-0.062,0.029v0.028l-0.027,0.089v0.028l0.027,0.06l0.029,0.062l0.09,0.027l0.061,0.029
		l0.09,0.061l0.061,0.061v0.027l0.027,0.027v0.028v0.029l-0.027,0.029l-0.027,0.026l-0.062,0.029l-0.061,0.027l-0.18-0.027h-0.027
		l-0.027,0.027l-0.061,0.061l-0.029,0.029v0.026v0.091v0.061l0.029,0.061l0.061,0.029l0.027,0.025v0.031l0.119,0.088l0.027,0.026
		v0.062h0.029v0.028v0.062l-0.029,0.117l-0.027,0.062l-0.119,0.146l-0.027,0.061v0.06v0.028v0.062l0.027,0.061v0.029l0.061,0.09
		h0.027l0.031,0.061h0.027l0.146,0.06l0.029,0.028v0.027l0.027,0.029v0.061v0.029v0.059l-0.027,0.029l-0.029,0.061l-0.027,0.027
		l-0.029,0.062v0.028v0.06v0.061l0.029,0.119l0.027,0.09l0.029,0.027l0.09,0.028h0.025l0.029,0.027l0.062,0.062h0.027v0.026
		l0.029,0.029l0.059,0.061l0.029,0.027h0.027l0.027,0.029h0.029h0.029h0.025h0.029v-0.029h0.029v-0.059l0.025-0.209l0.029-0.179
		l0.029-0.061l0.061-0.029h0.029h0.061l0.061,0.029l0.029,0.029l0.027,0.026l0.062,0.207l0.025,0.09v0.062v0.026l-0.025,0.027v0.029
		l-0.029,0.028l-0.09,0.117l-0.088,0.062l-0.029,0.059v0.029l0.029,0.061l0.029,0.029l0.025,0.062l0.029,0.025l0.061,0.029h0.117
		h0.09l0.088,0.028h0.029l0.09,0.062h0.027h0.029l0.115-0.062h0.062l0.029,0.027h0.027h0.029l0.088,0.061l0.029,0.062l0.027,0.061
		v0.062v0.028l-0.027,0.027v0.029l-0.09,0.09v0.027v0.026v0.09v0.029v0.027h0.029v0.061v0.062v0.062l-0.061,0.146v0.026l0.027,0.119
		l0.061,0.146v0.061v0.09l-0.061,0.06l-0.062,0.028l-0.088,0.062l-0.029,0.026l-0.027,0.029v0.061l0.061,0.089l0.061,0.061
		l0.027,0.029l0.062,0.061l0.119,0.06h0.025l0.029,0.03h0.09l0.146-0.03l0.119,0.03l0.061,0.027l0.059,0.061l0.031,0.089
		l0.027,0.146v0.09l-0.027,0.062l-0.061,0.061l-0.088,0.027l-0.119,0.09l-0.115-0.09l0.027-0.062l0.061-0.146v-0.027v-0.026
		l-0.029-0.029h-0.145l-0.029,0.029l-0.027,0.026l-0.029,0.062v0.026v0.09v0.062h0.029l0.027,0.026l0.061,0.062l0.062,0.029
		l-0.062,0.026l-0.029,0.062v0.088h0.029l0.029,0.119l0.029,0.026v0.062l0.061,0.088v0.029v0.028l-0.029,0.086v0.062l-0.09,0.146
		h-0.025v0.146v0.088l0.025,0.061l0.029,0.029l0.029,0.029h0.061l0.027,0.026l0.385-0.088h0.088h0.09l0.062,0.027l0.088,0.061v0.062
		l0.029,0.026v0.062l-0.061,0.062h-0.062h-0.145v-0.028h-0.029h-0.029v0.028l-0.027,0.025l-0.062,0.09l-0.029,0.062v0.061
		l0.029,0.09l0.029,0.088l0.119,0.179l0.025,0.09l0.029,0.235l0.027,0.089v0.09v0.026v0.027v0.031h-0.027v0.026l-0.029,0.027v0.029
		l-0.025,0.026l-0.062,0.062l-0.029,0.028v0.029v0.027v0.029v0.028v0.025l0.029,0.028l0.062,0.062l0.025,0.062h0.029l0.061,0.089
		h0.027v0.028l0.029,0.06l-0.029,0.09l-0.027,0.117l-0.027,0.061l-0.029,0.062l0.029,0.028v0.06l0.027,0.03l0.027,0.027l0.029,0.027
		h0.027l0.027,0.028l0.029,0.029h0.061l0.029,0.027l0.029,0.028h0.027l0.029,0.027l0.027,0.027l0.029,0.028v0.029v0.029l0.027,0.026
		l-0.027,0.119l-0.029,0.088l-0.027,0.117l-0.029,0.146l0.029,0.088v0.09l0.027,0.029v0.026l0.029,0.062l0.027,0.028l0.146,0.117
		l0.029,0.029v0.027h0.027l0.027,0.061v0.027v0.028v0.029v0.061v0.027l-0.027,0.031v0.024h-0.027v0.029h-0.029v0.029l-0.027,0.026
		l0,0l-0.119,0.029h-0.027v0.029h-0.027v0.026l-0.029,0.029l-0.027,0.027v0.061v0.027l0.027,0.061l0.062,0.119l0.029,0.117
		l0.027,0.029v0.026l-0.027,0.088l-0.029,0.119v0.029h-0.029v0.059l0.029,0.093l0.088,0.176l0.029,0.061v0.062v0.059l-0.029,0.029
		v0.029l-0.059,0.061l-0.029,0.027h-0.029l-0.027,0.026l-0.027,0.031h-0.029l-0.029,0.027h-0.029v0.026h-0.059l-0.029,0.029
		l-0.027,0.027l-0.027,0.03v0.025l-0.061,0.062l-0.029,0.088v0.091v0.059l0.029,0.148l0.025,0.026l0.062,0.062h0.027l0.062,0.028
		h0.025l0.029,0.027h0.029h0.029v0.029l0.059,0.061l0.029,0.062l0.027,0.059v0.062l0.029,0.088v0.028h0.027v0.027l0.061,0.061H1313
		l0.027,0.027h0.029v0.029l0.059,0.028h0.029l0.09,0.029h0.088h0.09l0.029,0.027l0.061,0.028l0.027,0.027l0.029,0.027l0.027,0.03
		l0.061,0.062v0.059h0.029v0.029v0.027h0.027v0.062v0.06v0.09l0.029,0.026l0.027,0.062h0.027l0.062,0.061l0.061,0.029v0.027
		l0.027,0.028v0.029h0.029v0.027v0.028l-0.029,0.029l-0.027,0.059l-0.061,0.062l-0.062,0.061l-0.027,0.029l-0.061,0.088v0.062
		l0.027,0.09l0.09,0.114v0.062l0.027,0.029l-0.027,0.026v0.062l-0.029,0.061v0.062v0.028l0.029,0.027l0.027,0.061l0.061,0.029h0.09
		h0.119h0.088l0.061-0.061h0.027h0.088l0.031,0.061l0.029,0.029l0.115-0.091v-0.088l-0.027-0.028v-0.119l0.027-0.088v-0.088
		l0.061-0.062l0.09-0.025h0.088l0.062,0.091l0.062,0.088l0.059,0.026l0.029,0.091v0.024v0.148v0.061l-0.061,0.09l-0.09,0.027
		l-0.234,0.117l-0.027,0.028h-0.062l0.09,0.027h0.027l0.027,0.029l0.029,0.029l0.029,0.026v0.027v0.061l-0.029,0.062l-0.029,0.028
		l-0.088,0.025v0.029v0.028v0.029l0.027,0.062v0.026l0.09,0.062l0.029,0.028l0.061,0.027l0.059,0.061l0.182-0.061h0.025h0.029h0.029
		h0.027v0.029v0.026l-0.027,0.119l-0.029,0.027l0.029,0.062l0.027,0.025l0.027,0.028h0.029v0.029v0.029l-0.061,0.027l-0.027,0.028
		l-0.09,0.027v0.061h-0.027v0.029v0.059l0.027,0.091l0.09,0.116l0.027,0.062l0.061,0.119l0.029,0.117v0.028v0.088v0.027l0.027,0.061
		l0.027,0.029l0.062,0.029l0.025,0.026v0.029h0.027l0.027,0.061v0.027v0.029l0.029,0.059v0.031l-0.029,0.059l-0.059,0.062
		l-0.029,0.029l-0.145,0.061l-0.062,0.029l-0.027,0.059v0.031v0.059v0.029l0.027,0.027h0.029l0.062,0.028h0.025l0.09-0.028
		l0.117-0.089h0.062v-0.026h0.027h0.027h0.029l0.027,0.026h0.029l0.059,0.029l0.09,0.088l0.027,0.027h0.062h0.146l0.027,0.029h0.027
		l0.061,0.028l0.061,0.062v0.026l0.029,0.029v0.027v0.062l-0.061,0.117v0.059l0.027,0.029v0.029l0.027,0.026l0.061,0.029l0.27,0.119
		h0.059l0.178-0.029h0.092l0.061,0.029l0.027,0.027l0.061,0.026l0.062,0.088l0.027,0.091v0.028v0.088v0.029v0.029l-0.027,0.024
		v0.031l-0.029,0.06l-0.059,0.118v0.029v0.027v0.061l0.025,0.029v0.026l0.029,0.029l0.029,0.029v0.027l0.061,0.061h0.027
		l0.088,0.088l0.061,0.029l0.117,0.061h0.027h0.029l0.027,0.062v0.028l0.029,0.027v0.088v0.029l0.029,0.028v0.027v0.029l0.025,0.026
		l0.061,0.062h0.029h0.029l0.088,0.028h0.029h0.025h0.029l0.029,0.029l0.029,0.027v0.029h0.025v0.026v0.027
		c0.65,0.92,0.303,1.871,0.65,1.938c0,0-39.66,0-44.193,0c-5.363,0-10.562,0-16.088,0c-1.738,0-8.592,0-10.914,0
		c0,0,0-7.994,0-13.489c0,0-18.656,0-20.229,0C1227.374,679.346,1227.374,660.061,1227.374,652.165z"/>
</g>
</svg>
