<?xml version="1.0" encoding="utf-8"?>
<!-- Generator: Adobe Illustrator 15.1.0, SVG Export Plug-In . SVG Version: 6.00 Build 0)  -->
<!DOCTYPE svg PUBLIC "-//W3C//DTD SVG 1.1//EN" "http://www.w3.org/Graphics/SVG/1.1/DTD/svg11.dtd">
<svg version="1.1" id="Layer_1" xmlns="http://www.w3.org/2000/svg" xmlns:xlink="http://www.w3.org/1999/xlink" x="0px" y="0px"
	 width="91.334px" height="64px" viewBox="0 0 91.334 64" enable-background="new 0 0 91.334 64" xml:space="preserve">
<g opacity="0.5">
	<path fill="#E6E7E8" d="M44.857,22.003v20.168c0,12.565-9.671,19.92-21.491,19.92c-11.985,0-21.656-7.354-21.656-19.92V22.003
		c0-12.481,9.671-19.92,21.656-19.92C35.187,2.083,44.857,9.522,44.857,22.003z M33.038,43.495c0.165-1.405,0.248-2.894,0.248-4.629
		V25.392c0-1.653-0.083-3.224-0.248-4.711c-0.579-5.208-4.629-7.77-9.671-7.77c-5.29,0-9.175,2.562-9.753,7.77
		c-0.166,1.487-0.248,3.058-0.248,4.711v13.474c0,1.735,0.083,3.224,0.248,4.629c0.579,5.042,4.463,7.769,9.753,7.769
		C28.409,51.264,32.459,48.537,33.038,43.495z"/>
	<path fill="#E6E7E8" d="M70.403,12.746c-3.307,0-7.191,1.653-7.191,7.356h-10.58c0-11.323,6.778-17.937,18.104-17.937
		c16.365,0,22.563,16.531,11.074,31.823c-1.734,2.396-4.297,6.695-11.653,16.199h18.846v10.748H51.89v-2.646l20.498-28.764
		c2.065-2.893,4.133-6.199,4.381-9.588C77.017,15.143,73.792,12.746,70.403,12.746z"/>
</g>
</svg>
