<?xml version="1.0" encoding="utf-8"?>
<!-- Generator: Adobe Illustrator 15.1.0, SVG Export Plug-In . SVG Version: 6.00 Build 0)  -->
<!DOCTYPE svg PUBLIC "-//W3C//DTD SVG 1.1//EN" "http://www.w3.org/Graphics/SVG/1.1/DTD/svg11.dtd">
<svg version="1.1" id="Layer_1" xmlns="http://www.w3.org/2000/svg" xmlns:xlink="http://www.w3.org/1999/xlink" x="0px" y="0px"
	 width="98.667px" height="64px" viewBox="0 0 98.667 64" enable-background="new 0 0 98.667 64" xml:space="preserve">
<g opacity="0.5">
	<path fill="#E6E7E8" d="M45.084,21.917v20.168c0,12.564-9.671,19.919-21.491,19.919c-11.984,0-21.655-7.355-21.655-19.919V21.917
		c0-12.481,9.671-19.921,21.655-19.921C35.413,1.996,45.084,9.435,45.084,21.917z M33.264,43.407
		c0.166-1.405,0.248-2.893,0.248-4.629V25.305c0-1.653-0.082-3.224-0.248-4.712c-0.578-5.207-4.628-7.77-9.671-7.77
		c-5.29,0-9.175,2.562-9.753,7.77c-0.165,1.488-0.248,3.059-0.248,4.712v13.473c0,1.736,0.083,3.224,0.248,4.629
		c0.578,5.042,4.463,7.769,9.753,7.769C28.636,51.176,32.686,48.449,33.264,43.407z"/>
	<path fill="#E6E7E8" d="M90.628,60.848H79.47v-11.49H52.44v-5.372L77.816,2.988h12.812v36.369h5.373v10.001h-5.373V60.848z
		 M80.709,16.792L66.41,39.77h13.804V28.777l0.578-11.985H80.709z"/>
</g>
</svg>
