<?xml version="1.0" encoding="utf-8"?>
<!-- Generator: Adobe Illustrator 15.1.0, SVG Export Plug-In . SVG Version: 6.00 Build 0)  -->
<!DOCTYPE svg PUBLIC "-//W3C//DTD SVG 1.1//EN" "http://www.w3.org/Graphics/SVG/1.1/DTD/svg11.dtd">
<svg version="1.1" id="Layer_1" xmlns="http://www.w3.org/2000/svg" xmlns:xlink="http://www.w3.org/1999/xlink" x="0px" y="0px"
	 width="150px" height="150px" viewBox="0 0 150 150" enable-background="new 0 0 150 150" xml:space="preserve">
<g>
	<path fill="#D1D3D4" d="M269.856,60.713c0,0.649,0,1.23,0,1.88c0,18.969-14.424,40.845-40.811,40.845
		c-8.101,0-15.723-1.777-22.046-5.845c1.127,0.171,2.256,0.239,3.418,0.239c6.699,0,12.954-2.905,17.807-6.802
		c-6.221-0.068-11.586-4.307-13.363-9.98c0.889,0.172,1.777,0.274,2.666,0.274c1.299,0,2.598-0.172,3.828-0.515
		c-6.562-1.299-11.519-7.108-11.519-14.081c0-0.068,0-0.068,0-0.171c1.948,1.059,4.136,1.709,6.494,1.777
		c-3.896-2.598-6.427-6.973-6.427-11.895c0-2.666,0.753-4.854,1.949-6.973c7.144,8.682,17.67,14.082,29.565,14.731
		c-0.239-1.025-0.308-2.187-0.308-3.315c0-7.93,6.392-14.321,14.321-14.321c4.136,0,7.861,1.777,10.562,4.512
		c3.212-0.649,6.321-1.846,9.056-3.486c-1.059,3.35-3.313,6.187-6.323,7.964c2.94-0.342,5.674-1.128,8.272-2.29
		C275.051,56.201,272.624,58.696,269.856,60.713z"/>
</g>
<g>
	<path fill="#D1D3D4" d="M326.051,103.438V77.533h8.331l1.399-9.6h-9.73v-7.55c0-2.734,1.399-4.295,4.166-4.295h6.248v-8.657
		c0,0-2.799-0.455-6.834-0.455c-9.145,0-13.766,5.076-13.766,12.659v8.298h-8.33v9.6h8.33v25.904H326.051z"/>
</g>
<polyline fill="none" stroke="#D1D3D4" stroke-width="3" stroke-miterlimit="10" points="61.375,45.979 88.625,75 61.375,104.021 
	"/>
</svg>
