<?xml version="1.0" encoding="utf-8"?>
<!-- Generator: Adobe Illustrator 16.2.1, SVG Export Plug-In . SVG Version: 6.00 Build 0)  -->
<!DOCTYPE svg PUBLIC "-//W3C//DTD SVG 1.1//EN" "http://www.w3.org/Graphics/SVG/1.1/DTD/svg11.dtd">
<svg version="1.1" id="Layer_1" xmlns="http://www.w3.org/2000/svg" xmlns:xlink="http://www.w3.org/1999/xlink" x="0px" y="0px"
	 width="96px" height="40px" viewBox="96 52 96 40" enable-background="new 96 52 96 40" xml:space="preserve">
<g>
	<path fill="#FFFFFF" d="M124.567,71.457l-4.229,0.294c-2.102,0.146-3.593,0.733-3.593,2.616c0,2.542,2.566,2.835,4.082,2.835
		c2.493,0,5.793-1.124,5.793-4.106v-2.298h-0.049C126.303,71.091,125.643,71.384,124.567,71.457z"/>
	<path fill="#FFFFFF" d="M96,52v34.124h40.697L144,92l7.303-5.876H192V52H96z M114.213,77.789h-1.124v-2.738h-0.05
		c-0.586,1.492-2.322,3.13-5.548,3.13c-4.4,0-6.673-3.13-6.673-6.675c0-3.984,2.86-6.624,6.673-6.624
		c3.08,0,4.816,1.687,5.548,3.056h0.05v-7.603h1.124V77.789z M129.676,77.839c-0.343,0.121-0.807,0.195-1.368,0.195
		c-1.54,0-1.54-1.076-1.54-2.738h-0.049c-1.394,2.567-4.327,2.885-5.965,2.885c-1.076,0-5.134,0-5.134-3.813
		c0-2.567,2.176-3.448,4.718-3.594l4.376-0.294c1.296-0.098,1.906-0.244,1.906-1.784c0-1.687-0.953-2.836-4.645-2.836
		c-3.3,0-4.326,1.027-4.669,3.276h-1.124c0.416-3.154,2.029-4.254,5.817-4.254c3.643,0,5.745,0.856,5.745,3.667v7.017
		c0,0.929,0,1.49,0.831,1.49c0.366,0,0.732-0.073,1.1-0.194V77.839L129.676,77.839z M138.695,78.181
		c-7.089,0-9.264-5.696-9.264-9.119c0-3.422,2.175-9.118,9.264-9.118c7.09,0,9.265,5.695,9.265,9.118S145.785,78.181,138.695,78.181
		z M169.709,77.789h-1.124V61.9h-0.048l-8.435,15.889h-1.123L150.544,61.9h-0.047v15.889h-1.125V60.335h1.687l8.482,16.036
		l8.482-16.036h1.688v17.454H169.709z M186.209,77.789l-2.566-5.622h-9.631l-2.566,5.622h-1.27l8.019-17.454h1.27l8.018,17.454
		H186.209z"/>
	<path fill="#FFFFFF" d="M138.695,60.922c-5.255,0-8.14,3.96-8.14,8.14c0,4.181,2.885,8.141,8.14,8.141
		c5.256,0,8.14-3.96,8.14-8.141C146.836,64.882,143.951,60.922,138.695,60.922z"/>
	<polygon fill="#FFFFFF" points="174.451,71.188 183.202,71.188 178.826,61.606 	"/>
	<path fill="#FFFFFF" d="M107.515,65.859c-2.884,0-5.573,1.809-5.573,5.622c0,3.594,2.322,5.721,5.427,5.721
		c4.693,0,5.866-3.323,5.866-5.55C113.234,67.254,110.057,65.859,107.515,65.859z"/>
</g>
</svg>
