<?xml version="1.0" encoding="utf-8"?>
<!-- Generator: Adobe Illustrator 16.2.1, SVG Export Plug-In . SVG Version: 6.00 Build 0)  -->
<!DOCTYPE svg PUBLIC "-//W3C//DTD SVG 1.1//EN" "http://www.w3.org/Graphics/SVG/1.1/DTD/svg11.dtd">
<svg version="1.1" id="Layer_1" xmlns="http://www.w3.org/2000/svg" xmlns:xlink="http://www.w3.org/1999/xlink" x="0px" y="0px"
	 width="400px" height="285px" viewBox="-66.341 113.604 400 285" enable-background="new -66.341 113.604 400 285"
	 xml:space="preserve">
<g>
	<g>
		<polygon fill="#EC207A" points="327.001,226.865 324.394,229.344 328.59,233.829 324.141,238.057 326.602,240.684 
			333.659,233.978 		"/>
		<path fill="#231F20" d="M-54.329,387.407l0.637,0.765c1.01-0.854,2.024-1.706,3.042-2.553l-0.631-0.771
			C-52.301,385.696-53.316,386.55-54.329,387.407z"/>
		<path fill="#231F20" d="M-60.371,392.589l0.647,0.758c0.999-0.87,2.001-1.734,3.007-2.598l-0.643-0.761
			C-58.367,390.854-59.371,391.72-60.371,392.589z"/>
		<path fill="#231F20" d="M-66.341,397.855l0.658,0.748c0.986-0.883,1.977-1.764,2.97-2.641l-0.653-0.751
			C-64.361,396.091-65.353,396.971-66.341,397.855z"/>
		<path fill="#231F20" d="M-48.216,382.312l0.626,0.775c1.022-0.84,2.048-1.679,3.078-2.511l-0.621-0.779
			C-46.165,380.633-47.192,381.471-48.216,382.312z"/>
		<path fill="#231F20" d="M-42.033,377.305l0.616,0.782c1.034-0.826,2.071-1.647,3.112-2.467l-0.61-0.788
			C-39.958,375.652-40.998,376.477-42.033,377.305z"/>
		<polygon fill="#231F20" points="23.359,332.178 23.862,333.038 27.286,331.014 26.785,330.151 		"/>
		<path fill="#231F20" d="M9.777,340.478l0.525,0.847c1.119-0.705,2.24-1.406,3.364-2.104l-0.52-0.851
			C12.021,339.068,10.897,339.771,9.777,340.478z"/>
		<path fill="#231F20" d="M-35.783,372.383l0.605,0.792c1.045-0.812,2.093-1.618,3.145-2.422l-0.599-0.796
			C-33.686,370.763-34.736,371.571-35.783,372.383z"/>
		<path fill="#231F20" d="M-3.548,349.135l0.549,0.831c1.098-0.734,2.198-1.467,3.303-2.196l-0.543-0.834
			C-1.346,347.664-2.448,348.397-3.548,349.135z"/>
		<path fill="#231F20" d="M16.535,336.284l0.514,0.854c1.13-0.691,2.263-1.377,3.398-2.062l-0.508-0.856
			C18.801,334.904,17.666,335.593,16.535,336.284z"/>
		<path fill="#231F20" d="M3.085,344.761l0.537,0.839c1.108-0.72,2.219-1.435,3.333-2.148l-0.531-0.844
			C5.308,343.322,4.195,344.04,3.085,344.761z"/>
		<path fill="#231F20" d="M-29.464,367.553l0.593,0.799c1.056-0.794,2.115-1.586,3.179-2.377l-0.588-0.804
			C-27.345,365.962-28.406,366.756-29.464,367.553z"/>
		<path fill="#231F20" d="M-23.081,362.812l0.583,0.809c1.067-0.781,2.137-1.559,3.21-2.333l-0.577-0.812
			C-20.94,361.25-22.012,362.029-23.081,362.812z"/>
		<path fill="#231F20" d="M-10.12,353.602l0.559,0.823c1.088-0.75,2.179-1.497,3.273-2.24l-0.554-0.829
			C-7.938,352.102-9.03,352.851-10.12,353.602z"/>
		<path fill="#231F20" d="M-16.632,358.161l0.571,0.816c1.077-0.767,2.158-1.528,3.242-2.288l-0.565-0.819
			C-14.47,356.63-15.553,357.394-16.632,358.161z"/>
		<path fill="#231F20" d="M165.765,261.562l0.327,0.943c1.247-0.438,2.497-0.875,3.75-1.305l-0.319-0.947
			C168.266,260.686,167.014,261.121,165.765,261.562z"/>
		<path fill="#231F20" d="M219.237,246.116l0.217,0.976c1.287-0.291,2.578-0.578,3.874-0.86l-0.209-0.975
			C221.821,245.538,220.526,245.825,219.237,246.116z"/>
		<path fill="#231F20" d="M227.009,244.426l0.201,0.979c1.292-0.27,2.587-0.535,3.889-0.796l-0.194-0.979
			C229.602,243.89,228.303,244.155,227.009,244.426z"/>
		<path fill="#231F20" d="M211.494,247.936l0.232,0.973c1.282-0.314,2.569-0.622,3.859-0.926l-0.227-0.973
			C214.067,247.314,212.778,247.622,211.494,247.936z"/>
		<path fill="#231F20" d="M173.291,258.976l0.312,0.947c1.254-0.419,2.51-0.833,3.771-1.243l-0.305-0.951
			C175.805,258.139,174.546,258.557,173.291,258.976z"/>
		<path fill="#231F20" d="M234.806,242.865l0.187,0.98c1.295-0.249,2.596-0.492,3.899-0.73l-0.176-0.983
			C237.408,242.372,236.105,242.616,234.806,242.865z"/>
		<path fill="#231F20" d="M188.461,254.177l0.281,0.957c1.266-0.378,2.535-0.75,3.809-1.119l-0.273-0.959
			C191.001,253.424,189.729,253.799,188.461,254.177z"/>
		<path fill="#231F20" d="M180.856,256.514l0.297,0.953c1.26-0.398,2.523-0.792,3.79-1.183l-0.289-0.955
			C183.384,255.72,182.118,256.114,180.856,256.514z"/>
		<path fill="#231F20" d="M203.782,249.886l0.249,0.968c1.277-0.334,2.559-0.664,3.845-0.991l-0.242-0.967
			C206.346,249.222,205.062,249.552,203.782,249.886z"/>
		<path fill="#231F20" d="M196.104,251.968l0.265,0.962c1.271-0.355,2.548-0.708,3.827-1.055l-0.257-0.964
			C198.656,251.258,197.378,251.61,196.104,251.968z"/>
		<polygon fill="#231F20" points="30.214,328.129 30.713,328.991 34.145,326.978 33.646,326.113 		"/>
		<path fill="#231F20" d="M289.938,235.402l0.081,0.995c1.313-0.109,2.633-0.214,3.955-0.312l-0.074-0.997
			C292.574,235.188,291.253,235.293,289.938,235.402z"/>
		<path fill="#231F20" d="M250.473,240.125l0.155,0.987c1.302-0.207,2.609-0.41,3.92-0.606l-0.146-0.987
			C253.088,239.715,251.778,239.918,250.473,240.125z"/>
		<path fill="#231F20" d="M305.799,234.308l0.055,0.997c1.315-0.073,2.637-0.143,3.963-0.207l-0.048-0.997
			C308.44,234.165,307.117,234.234,305.799,234.308z"/>
		<path fill="#231F20" d="M313.74,233.917l0.043,0.999c1.317-0.056,2.638-0.109,3.965-0.156l-0.034-0.999
			C316.385,233.808,315.06,233.861,313.74,233.917z"/>
		<path fill="#231F20" d="M297.865,234.8l0.067,0.997c1.314-0.09,2.635-0.177,3.959-0.259l-0.06-0.997
			C300.504,234.623,299.182,234.71,297.865,234.8z"/>
		<path fill="#231F20" d="M282.02,236.113l0.095,0.995c1.312-0.128,2.63-0.25,3.951-0.369l-0.089-0.995
			C284.652,235.863,283.334,235.985,282.02,236.113z"/>
		<path fill="#231F20" d="M266.218,237.88l0.124,0.991c1.308-0.166,2.621-0.328,3.938-0.485l-0.115-0.991
			C268.843,237.552,267.527,237.715,266.218,237.88z"/>
		<path fill="#231F20" d="M258.336,238.94l0.14,0.989c1.305-0.186,2.615-0.367,3.931-0.544l-0.132-0.99
			C260.957,238.573,259.645,238.755,258.336,238.94z"/>
		<path fill="#231F20" d="M274.112,236.938l0.108,0.993c1.311-0.146,2.626-0.289,3.946-0.427l-0.103-0.993
			C276.742,236.649,275.425,236.792,274.112,236.938z"/>
		<path fill="#231F20" d="M242.629,241.433l0.17,0.983c1.298-0.227,2.602-0.449,3.911-0.667l-0.162-0.985
			C245.236,240.982,243.931,241.204,242.629,241.433z"/>
		<path fill="#231F20" d="M78.729,300.715l0.464,0.882c1.171-0.625,2.34-1.247,3.511-1.866l-0.461-0.884
			C81.072,299.466,79.9,300.088,78.729,300.715z"/>
		<path fill="#231F20" d="M92.851,293.328l0.448,0.891c1.186-0.606,2.371-1.21,3.557-1.808l-0.444-0.894
			C95.225,292.118,94.038,292.721,92.851,293.328z"/>
		<path fill="#231F20" d="M71.723,304.497l0.472,0.878c1.166-0.636,2.331-1.269,3.495-1.897l-0.468-0.88
			C74.057,303.227,72.89,303.859,71.723,304.497z"/>
		<path fill="#231F20" d="M85.766,296.993l0.457,0.886c1.175-0.614,2.352-1.227,3.527-1.835l-0.453-0.888
			C88.121,295.765,86.944,296.377,85.766,296.993z"/>
		<path fill="#231F20" d="M158.295,264.262l0.343,0.938c1.235-0.458,2.473-0.912,3.714-1.359l-0.334-0.94
			C160.774,263.349,159.533,263.803,158.295,264.262z"/>
		<path fill="#231F20" d="M43.968,320.106l0.492,0.866c1.151-0.664,2.3-1.326,3.447-1.984l-0.491-0.869
			C46.269,318.778,45.119,319.441,43.968,320.106z"/>
		<polygon fill="#231F20" points="37.083,324.104 37.579,324.968 41.018,322.966 40.522,322.1 		"/>
		<polygon fill="#231F20" points="50.872,316.141 51.359,317.011 54.817,315.044 54.331,314.173 		"/>
		<polygon fill="#231F20" points="57.797,312.215 58.28,313.087 61.75,311.141 61.269,310.268 		"/>
		<path fill="#231F20" d="M64.747,308.332l0.477,0.876c1.162-0.644,2.322-1.285,3.482-1.923l-0.474-0.876
			C67.071,307.047,65.909,307.688,64.747,308.332z"/>
		<path fill="#231F20" d="M143.499,270.003l0.37,0.927c1.225-0.496,2.45-0.988,3.679-1.477l-0.363-0.928
			C145.954,269.013,144.725,269.506,143.499,270.003z"/>
		<path fill="#231F20" d="M136.155,273.043l0.383,0.92c1.219-0.514,2.438-1.024,3.661-1.529l-0.376-0.924
			C138.599,272.017,137.376,272.526,136.155,273.043z"/>
		<path fill="#231F20" d="M150.879,267.075l0.356,0.933c1.23-0.478,2.462-0.95,3.696-1.418l-0.349-0.935
			C153.346,266.124,152.112,266.598,150.879,267.075z"/>
		<path fill="#231F20" d="M99.983,289.729l0.439,0.896c1.19-0.593,2.382-1.181,3.573-1.768l-0.435-0.896
			C102.367,288.546,101.175,289.137,99.983,289.729z"/>
		<path fill="#231F20" d="M128.849,276.188l0.396,0.915c1.213-0.532,2.427-1.06,3.642-1.582l-0.389-0.92
			C131.28,275.127,130.063,275.654,128.849,276.188z"/>
		<path fill="#231F20" d="M107.147,286.21l0.429,0.9c1.196-0.578,2.393-1.153,3.589-1.725l-0.424-0.903
			C109.543,285.056,108.345,285.631,107.147,286.21z"/>
		<path fill="#231F20" d="M114.345,282.778l0.419,0.905c1.201-0.565,2.403-1.125,3.606-1.683l-0.413-0.907
			C116.752,281.651,115.548,282.213,114.345,282.778z"/>
		<path fill="#231F20" d="M121.579,279.434l0.408,0.911c1.207-0.549,2.415-1.093,3.624-1.633l-0.402-0.913
			C123.998,278.339,122.788,278.885,121.579,279.434z"/>
		
			<rect x="322.285" y="233.582" transform="matrix(0.9996 -0.0276 0.0276 0.9996 -6.3289 8.9991)" fill="#231F20" width="1.984" height="0.999"/>
	</g>
	<g>
		<polygon fill="#EC207A" points="207.74,144.056 205.132,146.537 209.327,151.02 204.88,155.246 207.34,157.876 214.396,151.167 		
			"/>
		<path fill="#231F20" d="M42.94,139.823c1.312,0.216,2.623,0.428,3.934,0.637l0.155-0.986c-1.31-0.209-2.62-0.422-3.929-0.637
			L42.94,139.823z"/>
		<path fill="#231F20" d="M27.234,137.088c1.307,0.241,2.615,0.478,3.922,0.711l0.173-0.984c-1.307-0.233-2.612-0.47-3.917-0.71
			L27.234,137.088z"/>
		<path fill="#231F20" d="M35.082,138.493c1.309,0.228,2.619,0.453,3.928,0.675l0.165-0.985c-1.308-0.221-2.616-0.446-3.924-0.674
			L35.082,138.493z"/>
		<path fill="#231F20" d="M50.811,141.08c1.313,0.204,2.626,0.403,3.939,0.602l0.146-0.988c-1.312-0.198-2.624-0.397-3.935-0.6
			L50.811,141.08z"/>
		<path fill="#231F20" d="M74.486,144.41c1.317,0.167,2.636,0.33,3.954,0.491l0.119-0.992c-1.317-0.16-2.633-0.323-3.95-0.489
			L74.486,144.41z"/>
		<path fill="#231F20" d="M82.396,145.372c1.32,0.154,2.639,0.306,3.958,0.454l0.109-0.993c-1.317-0.148-2.636-0.299-3.954-0.453
			L82.396,145.372z"/>
		<path fill="#231F20" d="M58.692,142.264c1.314,0.191,2.63,0.379,3.944,0.564l0.138-0.989c-1.313-0.185-2.627-0.373-3.94-0.564
			L58.692,142.264z"/>
		<path fill="#231F20" d="M-27.294,125.216c1.29,0.325,2.579,0.647,3.869,0.966l0.236-0.97c-1.288-0.319-2.577-0.641-3.865-0.965
			L-27.294,125.216z"/>
		<path fill="#231F20" d="M-11.792,128.972c1.295,0.301,2.59,0.599,3.886,0.894l0.218-0.975c-1.294-0.295-2.587-0.591-3.881-0.893
			L-11.792,128.972z"/>
		<path fill="#231F20" d="M-19.552,127.13c1.292,0.313,2.585,0.623,3.878,0.93l0.228-0.973c-1.292-0.307-2.583-0.616-3.874-0.929
			L-19.552,127.13z"/>
		<path fill="#231F20" d="M19.4,135.611c1.305,0.252,2.61,0.501,3.916,0.748l0.182-0.982c-1.304-0.245-2.607-0.494-3.911-0.747
			L19.4,135.611z"/>
		<path fill="#231F20" d="M3.774,132.438c1.3,0.276,2.601,0.55,3.902,0.821l0.2-0.979c-1.299-0.27-2.598-0.543-3.896-0.82
			L3.774,132.438z"/>
		<path fill="#231F20" d="M11.581,134.061c1.302,0.265,2.605,0.526,3.908,0.784l0.191-0.98c-1.302-0.257-2.603-0.519-3.904-0.783
			L11.581,134.061z"/>
		<path fill="#231F20" d="M66.584,143.374c1.317,0.179,2.633,0.354,3.95,0.527l0.128-0.99c-1.315-0.172-2.63-0.348-3.945-0.527
			L66.584,143.374z"/>
		<path fill="#231F20" d="M90.315,146.261c1.32,0.142,2.641,0.281,3.962,0.417l0.101-0.994c-1.32-0.136-2.639-0.274-3.958-0.417
			L90.315,146.261z"/>
		<path fill="#231F20" d="M161.838,150.937c1.328,0.031,2.654,0.06,3.981,0.084l0.019-0.999c-1.325-0.025-2.651-0.053-3.976-0.085
			L161.838,150.937z"/>
		<path fill="#231F20" d="M145.917,150.414c1.327,0.056,2.653,0.108,3.98,0.159l0.037-0.998c-1.325-0.05-2.65-0.103-3.975-0.158
			L145.917,150.414z"/>
		<path fill="#231F20" d="M153.876,150.713c1.327,0.042,2.654,0.083,3.981,0.121l0.027-0.999c-1.326-0.037-2.651-0.078-3.977-0.121
			L153.876,150.713z"/>
		<path fill="#231F20" d="M193.664,150.096l0.014,0.999c1.327-0.018,2.653-0.039,3.979-0.063l-0.018-0.999
			C196.313,150.057,194.989,150.078,193.664,150.096z"/>
		<path fill="#231F20" d="M185.714,150.167l0.004,0.999c1.327-0.006,2.653-0.015,3.979-0.026l-0.009-0.999
			C188.364,150.152,187.04,150.161,185.714,150.167z"/>
		<path fill="#231F20" d="M177.759,151.164c1.327,0.006,2.654,0.01,3.98,0.01v-0.999c-1.324,0-2.65-0.004-3.975-0.01
			L177.759,151.164z"/>
		<path fill="#231F20" d="M169.799,151.087c1.327,0.019,2.654,0.035,3.98,0.047l0.009-0.998c-1.325-0.013-2.65-0.029-3.976-0.048
			L169.799,151.087z"/>
		<path fill="#231F20" d="M106.173,147.817c1.323,0.118,2.646,0.231,3.969,0.343l0.083-0.996c-1.321-0.111-2.643-0.225-3.964-0.342
			L106.173,147.817z"/>
		<path fill="#231F20" d="M114.112,148.485c1.324,0.105,2.648,0.207,3.971,0.306l0.074-0.996c-1.323-0.099-2.645-0.201-3.967-0.306
			L114.112,148.485z"/>
		<path fill="#231F20" d="M98.24,147.076c1.322,0.13,2.644,0.257,3.965,0.38l0.091-0.995c-1.319-0.123-2.64-0.25-3.96-0.379
			L98.24,147.076z"/>
		<path fill="#231F20" d="M137.959,150.042c1.326,0.068,2.652,0.133,3.978,0.195l0.046-0.998c-1.325-0.062-2.649-0.127-3.974-0.195
			L137.959,150.042z"/>
		<path fill="#231F20" d="M130.006,149.597c1.326,0.081,2.651,0.158,3.977,0.232l0.055-0.997c-1.325-0.074-2.648-0.151-3.972-0.231
			L130.006,149.597z"/>
		<path fill="#231F20" d="M122.057,149.079c1.325,0.092,2.65,0.182,3.974,0.269l0.064-0.997c-1.323-0.086-2.646-0.176-3.969-0.268
			L122.057,149.079z"/>
		<path fill="#231F20" d="M-4.017,130.741c1.298,0.289,2.596,0.575,3.894,0.857l0.209-0.977c-1.296-0.282-2.593-0.567-3.889-0.856
			L-4.017,130.741z"/>
		<path fill="#231F20" d="M-65.728,114.561c1.273,0.385,2.547,0.767,3.821,1.146l0.281-0.958c-1.272-0.379-2.545-0.76-3.817-1.145
			L-65.728,114.561z"/>
		<path fill="#231F20" d="M-42.725,121.17c1.283,0.349,2.567,0.695,3.851,1.039l0.253-0.966c-1.282-0.342-2.564-0.688-3.846-1.037
			L-42.725,121.17z"/>
		<path fill="#231F20" d="M-58.08,116.835c1.277,0.374,2.554,0.744,3.832,1.111l0.272-0.961c-1.276-0.366-2.552-0.736-3.828-1.109
			L-58.08,116.835z"/>
		<path fill="#231F20" d="M-50.412,119.038c1.28,0.361,2.56,0.72,3.841,1.074l0.263-0.962c-1.28-0.355-2.559-0.712-3.837-1.074
			L-50.412,119.038z"/>
		<path fill="#231F20" d="M-35.018,123.229c1.287,0.337,2.573,0.672,3.86,1.002l0.245-0.968c-1.286-0.331-2.571-0.664-3.855-1.001
			L-35.018,123.229z"/>
		
			<rect x="201.678" y="149.926" transform="matrix(0.9997 -0.0237 0.0237 0.9997 -3.5026 4.8377)" fill="#231F20" width="1.981" height="0.999"/>
	</g>
</g>
</svg>
