<?xml version="1.0" encoding="utf-8"?>
<!-- Generator: Adobe Illustrator 16.2.1, SVG Export Plug-In . SVG Version: 6.00 Build 0)  -->
<!DOCTYPE svg PUBLIC "-//W3C//DTD SVG 1.1//EN" "http://www.w3.org/Graphics/SVG/1.1/DTD/svg11.dtd">
<svg version="1.1" id="Layer_1" xmlns="http://www.w3.org/2000/svg" xmlns:xlink="http://www.w3.org/1999/xlink" x="0px" y="0px"
	 width="37px" height="30px" viewBox="56.498 59.998 37 30" enable-background="new 56.498 59.998 37 30" xml:space="preserve">
<g>
	<path fill="#C8C8C8" d="M89.69,67.464c0,0.342,0,0.648,0,0.991c0,10.005-7.607,21.543-21.525,21.543
		c-4.273,0-8.293-0.935-11.628-3.083c0.595,0.091,1.189,0.127,1.803,0.127c3.533,0,6.832-1.533,9.393-3.589
		c-3.282-0.035-6.111-2.271-7.049-5.263c0.469,0.091,0.938,0.145,1.406,0.145c0.686,0,1.37-0.091,2.02-0.272
		c-3.462-0.687-6.076-3.748-6.076-7.428c0-0.036,0-0.036,0-0.09c1.027,0.559,2.182,0.901,3.426,0.937
		c-2.056-1.37-3.391-3.678-3.391-6.274c0-1.405,0.397-2.56,1.028-3.677c3.768,4.579,9.319,7.427,15.594,7.769
		c-0.126-0.54-0.162-1.153-0.162-1.748c0-4.182,3.371-7.553,7.554-7.553c2.182,0,4.146,0.937,5.571,2.38
		c1.694-0.343,3.332-0.974,4.776-1.839c-0.561,1.767-1.747,3.264-3.334,4.2c1.55-0.181,2.992-0.595,4.362-1.208
		C92.431,65.084,91.151,66.399,89.69,67.464z"/>
</g>
</svg>
