<?xml version="1.0" encoding="utf-8"?>
<!-- Generator: Adobe Illustrator 15.1.0, SVG Export Plug-In . SVG Version: 6.00 Build 0)  -->
<!DOCTYPE svg PUBLIC "-//W3C//DTD SVG 1.1//EN" "http://www.w3.org/Graphics/SVG/1.1/DTD/svg11.dtd">
<svg version="1.1" id="Layer_1" xmlns="http://www.w3.org/2000/svg" xmlns:xlink="http://www.w3.org/1999/xlink" x="0px" y="0px"
	 width="150px" height="150px" viewBox="0 0 150 150" enable-background="new 0 0 150 150" xml:space="preserve">
<g>
	<path fill="#C8C8C8" d="M102.855,60.713c0,0.649,0,1.23,0,1.88c0,18.97-14.424,40.845-40.812,40.845
		c-8.101,0-15.723-1.774-22.046-5.845c1.127,0.171,2.256,0.239,3.418,0.239c6.699,0,12.954-2.905,17.807-6.803
		c-6.221-0.067-11.586-4.307-13.363-9.979c0.889,0.173,1.777,0.274,2.666,0.274c1.299,0,2.598-0.172,3.828-0.516
		c-6.562-1.301-11.519-7.107-11.519-14.083c0-0.068,0-0.068,0-0.171c1.948,1.059,4.136,1.709,6.494,1.777
		c-3.896-2.598-6.427-6.973-6.427-11.895c0-2.666,0.753-4.854,1.949-6.973c7.144,8.682,17.67,14.082,29.565,14.731
		c-0.239-1.025-0.308-2.188-0.308-3.315c0-7.93,6.392-14.321,14.323-14.321c4.137,0,7.859,1.777,10.562,4.512
		c3.212-0.649,6.319-1.846,9.056-3.486c-1.061,3.35-3.312,6.187-6.322,7.964c2.939-0.342,5.674-1.128,8.271-2.29
		C108.051,56.201,105.624,58.696,102.855,60.713z"/>
</g>
</svg>
