<?xml version="1.0" encoding="utf-8"?>
<!-- Generator: Adobe Illustrator 16.2.1, SVG Export Plug-In . SVG Version: 6.00 Build 0)  -->
<!DOCTYPE svg PUBLIC "-//W3C//DTD SVG 1.1//EN" "http://www.w3.org/Graphics/SVG/1.1/DTD/svg11.dtd">
<svg version="1.1" id="Layer_1" xmlns="http://www.w3.org/2000/svg" xmlns:xlink="http://www.w3.org/1999/xlink" x="0px" y="0px"
	 width="320px" height="220px" viewBox="-114.644 -77.913 320 220" enable-background="new -114.644 -77.913 320 220"
	 xml:space="preserve">
<g opacity="0.5">
	<path fill="#E6E7E8" d="M43.525-4.879v73.932c0,46.062-35.452,73.023-78.781,73.023c-43.936,0-79.388-26.961-79.388-73.023V-4.879
		c0-45.753,35.452-73.023,79.388-73.023C8.077-77.902,43.525-50.632,43.525-4.879z M0.2,73.907
		C0.805,68.756,1.109,63.3,1.109,56.938V7.545c0-6.059-0.304-11.819-0.909-17.27c-2.123-19.091-16.969-28.483-35.452-28.483
		c-19.393,0-33.635,9.392-35.754,28.483c-0.607,5.451-0.908,11.21-0.908,17.27v49.394c0,6.361,0.305,11.817,0.908,16.969
		c2.123,18.483,16.362,28.479,35.754,28.479C-16.769,102.386-1.923,92.391,0.2,73.907z"/>
	<path fill="#E6E7E8" d="M137.174-38.813c-12.122,0-26.362,6.059-26.362,26.966H72.026c0-41.509,24.849-65.754,66.364-65.754
		c59.992,0,82.714,60.599,40.597,116.658c-6.354,8.782-15.752,24.544-42.716,59.384h69.085v39.4H69.306v-9.701l75.143-105.445
		c7.571-10.605,15.15-22.723,16.06-35.147C161.417-30.026,149.596-38.813,137.174-38.813z"/>
</g>
</svg>
