<?xml version="1.0" encoding="utf-8"?>
<!-- Generator: Adobe Illustrator 16.2.1, SVG Export Plug-In . SVG Version: 6.00 Build 0)  -->
<!DOCTYPE svg PUBLIC "-//W3C//DTD SVG 1.1//EN" "http://www.w3.org/Graphics/SVG/1.1/DTD/svg11.dtd">
<svg version="1.1" id="Layer_1" xmlns="http://www.w3.org/2000/svg" xmlns:xlink="http://www.w3.org/1999/xlink" x="0px" y="0px"
	 width="320px" height="205px" viewBox="-111.03 -70.5 320 205" enable-background="new -111.03 -70.5 320 205"
	 xml:space="preserve">
<g opacity="0.5">
	<path fill="#E6E7E8" d="M35.75-2.301v68.61c0,42.739-32.9,67.763-73.112,67.763c-40.769,0-73.668-25.023-73.668-67.763v-68.61
		c0-42.46,32.899-67.771,73.668-67.771C2.851-70.072,35.75-44.765,35.75-2.301z M-4.46,70.807c0.565-4.78,0.844-9.844,0.844-15.75
		V9.225c0-5.625-0.279-10.968-0.844-16.032c-1.966-17.714-15.744-26.431-32.901-26.431c-17.995,0-31.212,8.713-33.179,26.431
		C-71.102-1.744-71.384,3.6-71.384,9.225v45.832c0,5.906,0.282,10.97,0.844,15.75c1.966,17.153,15.184,26.429,33.179,26.429
		C-20.204,97.235-6.426,87.96-4.46,70.807z"/>
	<path fill="#E6E7E8" d="M190.691,130.139h-37.96v-39.09H60.775V72.777l86.328-139.475h43.588V57.029h18.279v34.02h-18.279V130.139
		L190.691,130.139z M156.943-19.737l-48.644,78.168h46.963V21.035l1.967-40.772H156.943z"/>
</g>
</svg>
