<?xml version="1.0" encoding="utf-8"?>
<!-- Generator: Adobe Illustrator 16.0.0, SVG Export Plug-In . SVG Version: 6.00 Build 0)  -->
<!DOCTYPE svg PUBLIC "-//W3C//DTD SVG 1.1//EN" "http://www.w3.org/Graphics/SVG/1.1/DTD/svg11.dtd">
<svg version="1.1" id="Layer_1" xmlns="http://www.w3.org/2000/svg" xmlns:xlink="http://www.w3.org/1999/xlink" x="0px" y="0px"
	 width="89.363px" height="37.235px" viewBox="63.318 0 89.363 37.235" enable-background="new 63.318 0 89.363 37.235"
	 xml:space="preserve">
<g>
	<path fill="#E90C8B" d="M89.911,18.113l-3.937,0.273c-1.957,0.137-3.345,0.683-3.345,2.436c0,2.366,2.39,2.639,3.8,2.639
		c2.321,0,5.393-1.046,5.393-3.823v-2.139h-0.045C91.526,17.771,90.912,18.044,89.911,18.113z"/>
	<path fill="#E90C8B" d="M63.318,0v31.765h37.883l6.798,5.47l6.799-5.47h37.883V0L63.318,0L63.318,0z M80.272,24.006h-1.046v-2.548
		H79.18c-0.546,1.388-2.162,2.913-5.166,2.913c-4.096,0-6.212-2.913-6.212-6.213c0-3.709,2.663-6.166,6.212-6.166
		c2.867,0,4.482,1.57,5.166,2.844h0.045V7.759h1.046V24.006z M94.667,24.052c-0.319,0.113-0.751,0.182-1.274,0.182
		c-1.434,0-1.434-1.001-1.434-2.549h-0.045c-1.297,2.389-4.027,2.686-5.552,2.686c-1.001,0-4.778,0-4.778-3.55
		c0-2.39,2.025-3.209,4.392-3.346l4.073-0.273c1.206-0.091,1.774-0.228,1.774-1.661c0-1.57-0.888-2.64-4.323-2.64
		c-3.072,0-4.027,0.956-4.346,3.049h-1.046c0.387-2.936,1.889-3.959,5.415-3.959c3.391,0,5.348,0.797,5.348,3.414v6.531
		c0,0.865,0,1.388,0.773,1.388c0.341,0,0.683-0.068,1.024-0.181V24.052L94.667,24.052z M103.062,24.371
		c-6.598,0-8.623-5.302-8.623-8.488c0-3.185,2.025-8.487,8.623-8.487c6.6,0,8.625,5.302,8.625,8.487S109.661,24.371,103.062,24.371z
		 M131.933,24.006h-1.047V9.216h-0.045l-7.852,14.79h-1.047l-7.851-14.79h-0.045v14.79H113V7.759h1.57l7.896,14.928l7.896-14.928
		h1.571V24.006L131.933,24.006z M147.291,24.006l-2.389-5.233h-8.966l-2.388,5.233h-1.183L139.83,7.76h1.182l7.464,16.247H147.291z"
		/>
	<path fill="#E90C8B" d="M103.062,8.306c-4.892,0-7.577,3.687-7.577,7.577c0,3.892,2.685,7.578,7.577,7.578
		c4.893,0,7.577-3.687,7.577-7.578C110.64,11.991,107.955,8.306,103.062,8.306z"/>
	<polygon fill="#E90C8B" points="136.346,17.862 144.491,17.862 140.419,8.943 	"/>
	<path fill="#E90C8B" d="M74.037,12.901c-2.685,0-5.188,1.684-5.188,5.234c0,3.345,2.162,5.325,5.051,5.325
		c4.369,0,5.461-3.094,5.461-5.166C79.361,14.199,76.403,12.901,74.037,12.901z"/>
</g>
</svg>
