<?xml version="1.0" encoding="utf-8"?>
<!-- Generator: Adobe Illustrator 17.0.0, SVG Export Plug-In . SVG Version: 6.00 Build 0)  -->
<!DOCTYPE svg PUBLIC "-//W3C//DTD SVG 1.1//EN" "http://www.w3.org/Graphics/SVG/1.1/DTD/svg11.dtd">
<svg version="1.1" id="Layer_1" xmlns="http://www.w3.org/2000/svg" xmlns:xlink="http://www.w3.org/1999/xlink" x="0px" y="0px"
	 width="36px" height="24px" viewBox="0 0 36 24" enable-background="new 0 0 36 24" xml:space="preserve">
<g>
	<path fill="#CDCDCD" d="M34.531,0H1.468C0.657,0,0,0.704,0,1.569v20.862C0,23.296,0.657,24,1.468,24h33.063
		C35.343,24,36,23.296,36,22.431V1.569C36,0.704,35.343,0,34.531,0z M33.144,22.525l-7.497-9.695l-7.624,6.475l-7.468-6.44
		l-7.559,9.66H1.521l7.5-11.305L1.459,3.17l0.032-1.645L18.024,16.05L34.588,1.61v1.56l-7.435,8.05l7.435,11.27L33.144,22.525z"/>
</g>
</svg>
