<?xml version="1.0" encoding="utf-8"?>
<!-- Generator: Adobe Illustrator 15.1.0, SVG Export Plug-In . SVG Version: 6.00 Build 0)  -->
<!DOCTYPE svg PUBLIC "-//W3C//DTD SVG 1.1//EN" "http://www.w3.org/Graphics/SVG/1.1/DTD/svg11.dtd">
<svg version="1.1" id="Layer_1" xmlns="http://www.w3.org/2000/svg" xmlns:xlink="http://www.w3.org/1999/xlink" x="0px" y="0px"
	 width="400px" height="400px" viewBox="0 0 400 400" enable-background="new 0 0 400 400" xml:space="preserve">
<g>
	<g>
		<defs>
			<polygon id="SVGID_1_" points="-74.789,0 356.521,40.031 356.521,471.531 -74.789,431.5 			"/>
		</defs>
		<clipPath id="SVGID_2_">
			<use xlink:href="#SVGID_1_"  overflow="visible"/>
		</clipPath>
		<path clip-path="url(#SVGID_2_)" fill="none" stroke="#231F20" d="M229.821,107.66c-0.64-0.104-1.278-0.214-1.919-0.325"/>
	</g>
	<g>
		<path fill="none" stroke="#231F20" stroke-dasharray="4.025,4.025" d="M224.054,106.617
			c-31.815-6.265-62.454-20.742-88.579-43.672c-26.653-23.397-45.189-52.59-55.404-84.04"/>
	</g>
	<g>
		<polygon fill="#EC207A" points="230.852,114.702 229.562,112.507 234.739,109.464 231.699,104.287 233.895,102.998 
			238.226,110.374 		"/>
	</g>
	<g>
		<polygon fill="#FFFFFF" stroke="#FFFFFF" points="230.852,114.116 229.562,111.92 234.739,108.879 231.699,103.7 233.895,102.412 
			238.226,109.788 		"/>
	</g>
	<g>
		<path fill="none" stroke="#231F20" d="M63.858,536.848c0.226,0.608,0.452,1.215,0.685,1.821"/>
	</g>
	<g>
		<polygon fill="#EC207A" points="121.726,188.184 119.872,189.934 123.991,194.301 119.624,198.421 121.373,200.275 
			127.593,194.405 		"/>
	</g>
	<g>
		<polygon fill="#FFFFFF" stroke="#FFFFFF" points="121.726,188.184 119.872,189.934 123.991,194.301 119.624,198.421 
			121.373,200.275 127.593,194.405 		"/>
	</g>
	<g>
		<polygon fill="#EC207A" points="76.991,149.073 75.138,150.822 79.257,155.192 74.891,159.312 76.639,161.165 82.861,155.296 		
			"/>
	</g>
	<g>
		<polygon fill="#FFFFFF" stroke="#FFFFFF" points="76.991,149.073 75.138,150.822 79.257,155.192 74.891,159.312 76.639,161.165 
			82.861,155.296 		"/>
	</g>
	<g>
		<path fill="none" stroke="#231F20" stroke-dasharray="4.008,4.008" d="M-191.207,543.127
			c46.592-86.774,116.78-162.29,207.876-215.885c91.929-54.083,168.664-92.116,291.624-96.07"/>
	</g>
	<g>
		<path fill="none" stroke="#231F20" d="M310.249,231.112c0.647-0.019,1.297-0.037,1.948-0.053"/>
	</g>
	<g>
		<polygon fill="#EC207A" points="314.859,224.741 313.008,226.489 317.127,230.859 312.759,234.979 314.508,236.831 
			320.729,230.964 		"/>
	</g>
	<g>
		<polygon fill="#FFFFFF" stroke="#FFFFFF" points="314.859,224.741 313.008,226.489 317.127,230.859 312.759,234.979 
			314.508,236.831 320.729,230.964 		"/>
	</g>
	<g>
		<path fill="none" stroke="#231F20" stroke-dasharray="4.013,4.013" d="M-652.185,663.957
			c71.179-133.723,178.932-270.136,319.068-352.58c140.741-82.795,295.549-120.405,447.642-117.306"/>
	</g>
	<g>
		<path fill="none" stroke="#231F20" d="M116.482,194.114c0.647,0.014,1.296,0.03,1.944,0.046"/>
	</g>
	<g>
		<path fill="none" stroke="#231F20" stroke-dasharray="4.013,4.013" d="M-697.607-275.197
			C-626.43-141.474-518.675-45.089-378.54,37.354c140.744,82.793,295.549,120.403,447.641,117.305"/>
	</g>
	<g>
		<path fill="none" stroke="#231F20" d="M71.058,154.615c0.648-0.015,1.297-0.03,1.945-0.045"/>
	</g>
</g>
</svg>
