<?xml version="1.0" encoding="utf-8"?>
<!-- Generator: Adobe Illustrator 15.1.0, SVG Export Plug-In . SVG Version: 6.00 Build 0)  -->
<!DOCTYPE svg PUBLIC "-//W3C//DTD SVG 1.1//EN" "http://www.w3.org/Graphics/SVG/1.1/DTD/svg11.dtd">
<svg version="1.1" id="Layer_1" xmlns="http://www.w3.org/2000/svg" xmlns:xlink="http://www.w3.org/1999/xlink" x="0px" y="0px"
	 width="400px" height="400px" viewBox="0 0 400 400" enable-background="new 0 0 400 400" xml:space="preserve">
<g>
	<defs>
		<rect id="SVGID_1_" x="-71.594" y="37.774" width="443.111" height="629.461"/>
	</defs>
	<clipPath id="SVGID_2_">
		<use xlink:href="#SVGID_1_"  overflow="visible"/>
	</clipPath>
	<path clip-path="url(#SVGID_2_)" fill="none" stroke="#231F20" d="M70.847,518.162c0.231,0.625,0.465,1.249,0.703,1.871"/>
	<polygon clip-path="url(#SVGID_2_)" fill="#EC207A" points="208.385,144.637 206.48,146.434 210.713,150.922 206.227,155.154 
		208.021,157.059 214.414,151.029 	"/>
	<polygon clip-path="url(#SVGID_2_)" fill="none" stroke="#EC207A" points="208.385,144.637 206.48,146.434 210.713,150.922 
		206.227,155.154 208.021,157.059 214.414,151.029 	"/>
	<path clip-path="url(#SVGID_2_)" fill="none" stroke="#231F20" stroke-dasharray="4.008,4.008" d="M-191.199,554.637
		c47.867-89.148,119.976-166.73,213.565-221.792c94.444-55.562,173.279-94.638,299.604-98.699"/>
	<path clip-path="url(#SVGID_2_)" fill="none" stroke="#231F20" d="M323.979,234.084c0.665-0.02,1.332-0.038,2-0.055"/>
	<polygon clip-path="url(#SVGID_2_)" fill="#EC207A" points="328.716,227.539 326.813,229.334 331.046,233.824 326.558,238.057 
		328.354,239.959 334.747,233.932 	"/>
	<polygon clip-path="url(#SVGID_2_)" fill="none" stroke="#EC207A" points="328.716,227.539 326.813,229.334 331.046,233.824 
		326.558,238.057 328.354,239.959 334.747,233.932 	"/>
	<path clip-path="url(#SVGID_2_)" fill="none" stroke="#231F20" stroke-dasharray="4.013,4.013" d="M-587.41-311.807
		C-514.284-174.425-403.582-54.84-259.611,29.859c144.594,85.059,303.637,123.699,459.891,120.515"/>
	<path clip-path="url(#SVGID_2_)" fill="none" stroke="#231F20" d="M202.289,150.33c0.666-0.016,1.332-0.031,1.998-0.047"/>
</g>
</svg>
