<?xml version="1.0" encoding="utf-8"?>
<!-- Generator: Adobe Illustrator 17.0.0, SVG Export Plug-In . SVG Version: 6.00 Build 0)  -->
<!DOCTYPE svg PUBLIC "-//W3C//DTD SVG 1.1//EN" "http://www.w3.org/Graphics/SVG/1.1/DTD/svg11.dtd">
<svg version="1.1" id="Layer_1" xmlns="http://www.w3.org/2000/svg" xmlns:xlink="http://www.w3.org/1999/xlink" x="0px" y="0px"
	 width="35px" height="30px" viewBox="83.031 84.687 35 30" enable-background="new 83.031 84.687 35 30" xml:space="preserve">
<g>
	<path fill="#C8C8C8" d="M101.411,108.156c0,3.283-3.164,6.531-8.934,6.531c-5.025,0-9.272-2.047-9.272-5.33
		c0-3.333,3.892-6.548,8.9-6.548c0.559,0,1.049,0,1.574,0c-0.694-0.677-1.201-1.472-1.201-2.487c0-0.592,0.152-1.201,0.44-1.709
		c-0.288,0.034-0.575,0.034-0.846,0.034c-4.129,0-6.904-2.927-6.904-6.582c0-3.57,3.807-6.65,7.902-6.65c2.25,0,9.069,0,9.069,0
		l-2.048,1.472h-2.893c1.929,0.728,2.927,2.927,2.927,5.228c0,1.912-1.032,3.553-2.555,4.721c-1.455,1.167-1.726,1.641-1.726,2.606
		c0,0.846,1.557,2.251,2.403,2.809C100.616,103.977,101.411,105.551,101.411,108.156z M99.042,108.511
		c0-0.321-0.034-0.609-0.068-0.93c-0.406-1.472-1.777-2.234-3.655-3.553c-0.677-0.203-1.438-0.321-2.25-0.372
		c-3.486,0-6.582,2.132-6.582,4.738c0,2.64,2.487,4.856,5.99,4.856C97.367,113.249,99.042,111.151,99.042,108.511z M96.876,92.302
		c-0.389-3.08-2.606-5.533-4.974-5.601c-2.318-0.084-3.892,2.284-3.486,5.33c0.406,3.079,2.657,5.618,4.975,5.685
		C95.726,97.801,97.282,95.364,96.876,92.302z M117.857,91.912h-5.769v5.77h-1.456v-5.77h-5.769v-1.455h5.769v-5.77h1.456v5.77
		h5.769V91.912z"/>
</g>
</svg>
