<?xml version="1.0" encoding="utf-8"?>
<!-- Generator: Adobe Illustrator 15.1.0, SVG Export Plug-In . SVG Version: 6.00 Build 0)  -->
<!DOCTYPE svg PUBLIC "-//W3C//DTD SVG 1.1//EN" "http://www.w3.org/Graphics/SVG/1.1/DTD/svg11.dtd">
<svg version="1.1" id="Layer_1" xmlns="http://www.w3.org/2000/svg" xmlns:xlink="http://www.w3.org/1999/xlink" x="0px" y="0px"
	 width="200px" height="200px" viewBox="0 0 200 200" enable-background="new 0 0 200 200" xml:space="preserve">
<g>
	<path fill="#C8C8C8" d="M103.282,126.159c0,10.261-9.891,20.415-27.926,20.415c-15.708,0-28.983-6.399-28.983-16.66
		c0-10.419,12.164-20.469,27.819-20.469c1.746,0,3.28,0,4.919,0c-2.168-2.116-3.755-4.602-3.755-7.775
		c0-1.851,0.476-3.754,1.375-5.341c-0.899,0.106-1.798,0.106-2.645,0.106c-12.905,0-21.579-9.15-21.579-20.574
		c0-11.159,11.9-20.786,24.699-20.786c7.034,0,28.349,0,28.349,0l-6.4,4.602h-9.044c6.03,2.274,9.15,9.149,9.15,16.342
		c0,5.977-3.226,11.107-7.986,14.756c-4.549,3.649-5.395,5.13-5.395,8.146c0,2.645,4.866,7.035,7.511,8.779
		C100.796,113.096,103.282,118.014,103.282,126.159z M95.877,127.269c0-1.004-0.106-1.904-0.211-2.908
		c-1.27-4.602-5.554-6.982-11.424-11.107c-2.115-0.634-4.496-1.004-7.034-1.163c-10.895,0-20.574,6.664-20.574,14.809
		c0,8.251,7.775,15.18,18.723,15.18C90.641,142.078,95.877,135.52,95.877,127.269z M89.107,76.601
		c-1.216-9.626-8.145-17.295-15.549-17.507c-7.246-0.264-12.165,7.14-10.896,16.661c1.269,9.625,8.304,17.559,15.55,17.771
		C85.511,93.79,90.376,86.174,89.107,76.601z M154.689,75.384h-18.034V93.42h-4.55V75.384h-18.034v-4.548h18.034V52.801h4.55v18.036
		h18.034V75.384z"/>
</g>
</svg>
