<?xml version="1.0" encoding="utf-8"?>
<!-- Generator: Adobe Illustrator 17.0.0, SVG Export Plug-In . SVG Version: 6.00 Build 0)  -->
<!DOCTYPE svg PUBLIC "-//W3C//DTD SVG 1.1//EN" "http://www.w3.org/Graphics/SVG/1.1/DTD/svg11.dtd">
<svg version="1.1" id="Layer_1" xmlns="http://www.w3.org/2000/svg" xmlns:xlink="http://www.w3.org/1999/xlink" x="0px" y="0px"
	 width="30px" height="30px" viewBox="85 84.999 30 30" enable-background="new 85 84.999 30 30" xml:space="preserve">
<g>
	<path fill="#C8C8C8" d="M98.864,112.628c-3.162,3.162-8.301,3.162-11.492,0c-3.162-3.191-3.162-8.33,0-11.492l4.275-4.26
		c-0.146,1.596,0.059,3.191,0.615,4.684l-2.211,2.211c-1.698,1.713-1.698,4.479,0,6.178c1.698,1.698,4.465,1.698,6.178,0
		l4.641-4.641c1.742-1.699,1.742-4.48,0-6.178c-0.732-0.732-0.732-1.947,0-2.679s1.947-0.732,2.679,0
		c3.147,3.191,3.147,8.33,0,11.492L98.864,112.628z M108.365,103.112c0.146-1.596-0.059-3.147-0.615-4.64l2.211-2.255
		c1.698-1.713,1.698-4.479,0-6.178c-1.699-1.698-4.465-1.698-6.178,0l-4.685,4.64c-1.698,1.742-1.698,4.48,0,6.222
		c0.776,0.717,0.776,1.903,0,2.635c-0.717,0.732-1.903,0.732-2.635,0c-3.147-3.191-3.147-8.33,0-11.492l4.656-4.641
		c3.191-3.206,8.33-3.206,11.477,0c3.206,3.147,3.206,8.286,0,11.477L108.365,103.112z"/>
</g>
</svg>
