<?xml version="1.0" encoding="utf-8"?>
<!-- Generator: Adobe Illustrator 15.1.0, SVG Export Plug-In . SVG Version: 6.00 Build 0)  -->
<!DOCTYPE svg PUBLIC "-//W3C//DTD SVG 1.1//EN" "http://www.w3.org/Graphics/SVG/1.1/DTD/svg11.dtd">
<svg version="1.1" id="Layer_1" xmlns="http://www.w3.org/2000/svg" xmlns:xlink="http://www.w3.org/1999/xlink" x="0px" y="0px"
	 width="200px" height="200px" viewBox="0 0 200 200" enable-background="new 0 0 200 200" xml:space="preserve">
<g>
	<path fill="#C8C8C8" d="M96.589,137.903c-9.491,9.491-24.914,9.491-34.493,0c-9.491-9.579-9.491-25.002,0-34.493l12.831-12.786
		c-0.439,4.79,0.176,9.579,1.846,14.06l-6.635,6.635c-5.097,5.141-5.097,13.445,0,18.543c5.097,5.097,13.402,5.097,18.543,0
		l13.929-13.929c5.229-5.098,5.229-13.446,0-18.542c-2.197-2.197-2.197-5.844,0-8.041s5.844-2.197,8.041,0
		c9.447,9.579,9.447,25.001,0,34.493L96.589,137.903z M125.106,109.342c0.439-4.789-0.176-9.446-1.845-13.928l6.635-6.767
		c5.097-5.141,5.097-13.445,0-18.542c-5.098-5.097-13.402-5.097-18.543,0L97.292,84.033c-5.097,5.229-5.097,13.446,0,18.674
		c2.329,2.153,2.329,5.712,0,7.909c-2.153,2.197-5.712,2.197-7.909,0c-9.447-9.579-9.447-25.001,0-34.492l13.974-13.929
		c9.579-9.623,25.002-9.623,34.449,0c9.622,9.447,9.622,24.87,0,34.449L125.106,109.342z"/>
</g>
</svg>
