<?xml version="1.0" encoding="utf-8"?>
<!-- Generator: Adobe Illustrator 16.2.1, SVG Export Plug-In . SVG Version: 6.00 Build 0)  -->
<!DOCTYPE svg PUBLIC "-//W3C//DTD SVG 1.1//EN" "http://www.w3.org/Graphics/SVG/1.1/DTD/svg11.dtd">
<svg version="1.1" id="Layer_1" xmlns="http://www.w3.org/2000/svg" xmlns:xlink="http://www.w3.org/1999/xlink" x="0px" y="0px"
	 width="32px" height="32px" viewBox="0 0 32 32" enable-background="new 0 0 32 32" xml:space="preserve">
<path fill="#EC008C" d="M31.745,13.171c-1.563-8.696-9.88-14.478-18.576-12.915C4.474,1.819-1.308,10.135,0.255,18.83
	s9.879,14.479,18.574,12.915C27.525,30.184,33.309,21.867,31.745,13.171z M9.79,19.715l-2.248,1.471
	c-3.975-6.787,1.06-11.589,1.06-11.589c2.688-2.99,6.373-3.022,7.976-2.867l0.625-2.946l3.314,5.1l-5.101,3.315l0.604-2.846
	c-3.05-0.279-5.235,1.864-5.235,1.864C6.729,15.573,9.79,19.715,9.79,19.715z M23.395,22.409c-2.688,2.989-6.373,3.018-7.976,2.862
	l-0.626,2.947l-3.314-5.102l5.102-3.314l-0.605,2.85c3.049,0.279,5.235-1.863,5.235-1.863c4.061-4.358,1.001-8.501,1.001-8.501
	l2.249-1.467C28.434,17.607,23.395,22.409,23.395,22.409z"/>
</svg>
