<?xml version="1.0" encoding="utf-8"?>
<!-- Generator: Adobe Illustrator 16.2.1, SVG Export Plug-In . SVG Version: 6.00 Build 0)  -->
<!DOCTYPE svg PUBLIC "-//W3C//DTD SVG 1.1//EN" "http://www.w3.org/Graphics/SVG/1.1/DTD/svg11.dtd">
<svg version="1.1" id="Layer_1" xmlns="http://www.w3.org/2000/svg" xmlns:xlink="http://www.w3.org/1999/xlink" x="0px" y="0px"
	 width="32px" height="32px" viewBox="0 0 32 32" enable-background="new 0 0 32 32" xml:space="preserve">
<g>
	<path fill="#CC0000" d="M6,10.773C6,16.599,12.486,31.344,16,32V0C10.999,0.149,6,4.91,6,10.773z"/>
</g>
<g>
	<path fill="#A31128" d="M26,10.773c0,5.826-6.486,20.57-10,21.227V0C21.001,0.149,26,4.91,26,10.773z"/>
</g>
<path fill="#FFFFFF" d="M16,6.5c-2.209,0-4,1.791-4,4c0,2.209,1.791,4,4,4V6.5z"/>
<path fill="#E6E6E6" d="M16,6.5c2.209,0,4,1.791,4,4c0,2.209-1.791,4-4,4V6.5z"/>
</svg>
