<?xml version="1.0" encoding="utf-8"?>
<!-- Generator: Adobe Illustrator 16.2.1, SVG Export Plug-In . SVG Version: 6.00 Build 0)  -->
<!DOCTYPE svg PUBLIC "-//W3C//DTD SVG 1.1//EN" "http://www.w3.org/Graphics/SVG/1.1/DTD/svg11.dtd">
<svg version="1.1" id="Layer_1" xmlns="http://www.w3.org/2000/svg" xmlns:xlink="http://www.w3.org/1999/xlink" x="0px" y="0px"
	 width="32px" height="32px" viewBox="0 0 32 32" enable-background="new 0 0 32 32" xml:space="preserve">
<g>
	<path fill="#FFFFFF" d="M6.298,25.125l-4.602-4.602l-1.355,7.805c0.73,0.154,1.417,0.51,1.984,1.073L6.298,25.125z"/>
	<path fill="#E6E6E6" d="M6.298,25.125l-3.973,4.276c0.026,0.026,0.057,0.047,0.084,0.074c0.575,0.604,0.934,1.352,1.091,2.146
		l7.664-1.63L6.298,25.125z"/>
	<path fill="#CC0000" d="M2.325,29.401c-0.567-0.563-1.254-0.919-1.984-1.073L0.07,30.842l-0.06,0.985L2.325,29.401z"/>
	<path fill="#A31128" d="M2.325,29.401l-2.314,2.426L0,32l3.5-0.379c-0.157-0.794-0.516-1.541-1.091-2.146
		C2.382,29.448,2.352,29.428,2.325,29.401z"/>
</g>
<path fill="#CC0000" d="M12.75,30.391c-0.328,0.327-0.852,0.335-1.171,0.016l-4.891-4.892l-5.095-5.094
	c-0.318-0.319-0.312-0.843,0.016-1.17L20.61,0.25c0.327-0.327,0.851-0.334,1.17-0.015l9.985,9.985
	c0.318,0.32,0.312,0.843-0.016,1.171L12.75,30.391z"/>
<path fill="#A31128" d="M26.854,5.309L6.668,25.495l0.021,0.02l4.891,4.892c0.319,0.319,0.843,0.312,1.171-0.016l19-19
	c0.327-0.328,0.334-0.851,0.016-1.171L26.854,5.309z"/>
</svg>
