<?xml version="1.0" encoding="utf-8"?>
<!-- Generator: Adobe Illustrator 16.2.1, SVG Export Plug-In . SVG Version: 6.00 Build 0)  -->
<!DOCTYPE svg PUBLIC "-//W3C//DTD SVG 1.1//EN" "http://www.w3.org/Graphics/SVG/1.1/DTD/svg11.dtd">
<svg version="1.1" id="Layer_1" xmlns="http://www.w3.org/2000/svg" xmlns:xlink="http://www.w3.org/1999/xlink" x="0px" y="0px"
	 width="32px" height="32px" viewBox="0 0 32 32" enable-background="new 0 0 32 32" xml:space="preserve">
<g>
	<path fill="#CC0000" d="M1.071,5C0.48,5,0,5.481,0,6.075v19.85C0,26.519,0.48,27,1.071,27H16V5H1.071z"/>
</g>
<g>
	<path fill="#A31128" d="M30.929,5C31.52,5,32,5.481,32,6.075v19.85C32,26.519,31.52,27,30.929,27H16V5H30.929z"/>
</g>
<g>
	<g>
		<path fill="#FFFFFF" d="M16,25h12.004l0.04-0.441c0.082-0.89,0.724-1.65,1.598-1.894l0.358-0.1V9.489l-0.447-0.04
			c-1.074-0.096-1.916-0.938-2.002-2.002L27.516,7H16v0.947h10.64c0.268,1.177,1.19,2.124,2.378,2.398v11.508
			c-0.938,0.386-1.642,1.227-1.879,2.199H16V25z"/>
	</g>
</g>
<g>
	<g>
		<path fill="#FFFFFF" d="M16,25H3.996l-0.04-0.441c-0.082-0.89-0.724-1.65-1.598-1.894L2,22.565V9.489l0.447-0.04
			c1.074-0.096,1.916-0.938,2.002-2.002L4.484,7H16v0.947H5.36c-0.268,1.177-1.19,2.124-2.378,2.398v11.508
			c0.938,0.386,1.642,1.227,1.879,2.199H16V25z"/>
	</g>
</g>
<path fill="#E6E6E6" d="M16.611,15.142v-3.011c0.579,0.138,1.055,0.449,1.293,0.871c0.217,0.381,0.766,0.544,1.222,0.365
	c0.459-0.179,0.655-0.635,0.438-1.016c-0.54-0.949-1.657-1.605-2.952-1.778V9H16v14h0.611v-1.842
	c1.876-0.241,3.314-1.497,3.314-3.01C19.926,16.642,18.495,15.39,16.611,15.142z M16.557,19.597v-2.894
	c0.89,0.2,1.538,0.769,1.538,1.446C18.095,18.828,17.446,19.396,16.557,19.597z"/>
<path fill="#FFFFFF" d="M15.376,9v1.563c-1.793,0.223-3.172,1.485-3.172,3.01c0,1.52,1.374,2.781,3.172,3.008v3.032
	c-0.578-0.13-1.059-0.453-1.294-0.896c-0.204-0.382-0.721-0.545-1.154-0.367c-0.433,0.18-0.619,0.633-0.416,1.015
	c0.518,0.971,1.607,1.641,2.864,1.801V23H16V9H15.376z M15.376,15.027c-0.828-0.188-1.438-0.765-1.438-1.454
	s0.609-1.267,1.438-1.454V15.027z"/>
</svg>
