<?xml version="1.0" encoding="utf-8"?>
<!-- Generator: Adobe Illustrator 16.2.1, SVG Export Plug-In . SVG Version: 6.00 Build 0)  -->
<!DOCTYPE svg PUBLIC "-//W3C//DTD SVG 1.1//EN" "http://www.w3.org/Graphics/SVG/1.1/DTD/svg11.dtd">
<svg version="1.1" id="Layer_1" xmlns="http://www.w3.org/2000/svg" xmlns:xlink="http://www.w3.org/1999/xlink" x="0px" y="0px"
	 width="32px" height="32px" viewBox="0 0 32 32" enable-background="new 0 0 32 32" xml:space="preserve">
<g>
	<path fill="#CC0000" d="M0,14.407c0,3.958,2.851,7.442,7.171,9.478l-1.087,5.073l5.683-3.591c1.349,0.263,2.767,0.405,4.233,0.405
		V3.042C7.163,3.042,0,8.13,0,14.407z"/>
	<path fill="#A31128" d="M16,3.042v22.73c8.837,0,16-5.088,16-11.365S24.837,3.042,16,3.042z"/>
</g>
<g>
	<rect x="8" y="10" fill="#FFFFFF" width="8" height="1"/>
	<rect x="16" y="10" fill="#E6E6E6" width="8" height="1"/>
	<rect x="8" y="14" fill="#FFFFFF" width="8" height="1"/>
	<rect x="16" y="14" fill="#E6E6E6" width="8" height="1"/>
	<rect x="8" y="18" fill="#FFFFFF" width="8" height="1"/>
	<rect x="16" y="18" fill="#E6E6E6" width="8" height="1"/>
</g>
</svg>
