<?xml version="1.0" encoding="utf-8"?>
<!-- Generator: Adobe Illustrator 16.0.0, SVG Export Plug-In . SVG Version: 6.00 Build 0)  -->
<!DOCTYPE svg PUBLIC "-//W3C//DTD SVG 1.1//EN" "http://www.w3.org/Graphics/SVG/1.1/DTD/svg11.dtd">
<svg version="1.1" id="Layer_1" xmlns="http://www.w3.org/2000/svg" xmlns:xlink="http://www.w3.org/1999/xlink" x="0px" y="0px"
	 width="51.787px" height="24.015px" viewBox="0 0 51.787 24.015" enable-background="new 0 0 51.787 24.015" xml:space="preserve">
<path fill="#FFFFFF" d="M6.661,9.016C6.792,8.969,6.86,8.918,6.938,8.803c0.151-0.223,0.25-0.77,0.244-1.759
	c0.002-0.712-0.045-1.202-0.146-1.499C6.936,5.244,6.841,5.156,6.655,5.082C6.528,5.035,6.345,5.008,6.098,5.011H5.203V9.08h0.895
	C6.349,9.08,6.538,9.06,6.661,9.016z M20.246,4.566c-0.445,0-0.698,0.084-0.831,0.209c-0.135,0.122-0.22,0.337-0.221,0.746v12.835
	c0.001,0.412,0.086,0.625,0.221,0.746c0.133,0.125,0.386,0.213,0.831,0.213c0.448,0,0.702-0.088,0.834-0.213
	c0.133-0.123,0.219-0.334,0.221-0.746V5.521c-0.002-0.409-0.088-0.625-0.221-0.746C20.948,4.65,20.694,4.566,20.246,4.566z
	 M6.732,13.853c-0.157-0.055-0.402-0.074-0.728-0.074H5.206v5.092h0.799c0.321,0,0.562-0.021,0.714-0.074
	c0.149-0.055,0.227-0.115,0.311-0.253c0.171-0.284,0.253-0.979,0.28-2.218c0-0.956-0.04-1.584-0.139-1.948
	C7.054,14,6.966,13.933,6.732,13.853z M45.533,5.011h-0.797v13.858h0.797c0.442-0.007,0.646-0.091,0.791-0.294
	c0.155-0.209,0.266-0.651,0.266-1.396V6.696c0-0.74-0.104-1.186-0.266-1.395C46.176,5.099,45.977,5.015,45.533,5.011z
	 M12.518,18.647c0,1.56-0.378,2.815-1.267,3.666c-0.891,0.848-2.235,1.256-4.063,1.256h-6.9c-0.071,0-0.146-0.029-0.202-0.084
	C0.032,23.437,0,23.36,0,23.287V0.598c0-0.077,0.032-0.152,0.085-0.206c0.057-0.054,0.131-0.081,0.202-0.081h6.77
	c1.836,0,3.181,0.405,4.066,1.252c0.895,0.851,1.271,2.104,1.271,3.667v1.972c-0.001,0.892-0.146,1.8-0.604,2.59
	c-0.35,0.608-0.883,1.135-1.642,1.516c0.685,0.223,1.228,0.598,1.612,1.118c0.524,0.709,0.757,1.655,0.757,2.815V18.647
	L12.518,18.647z M26.507,18.394c0.002,2.16-0.489,3.605-1.568,4.483c-1.079,0.872-2.636,1.131-4.691,1.138
	c-2.054-0.007-3.61-0.267-4.689-1.138c-1.079-0.878-1.568-2.323-1.564-4.483V5.487C13.989,3.326,14.479,1.881,15.558,1
	c1.079-0.868,2.852-0.993,4.906-1c2.055,0.007,3.396,0.132,4.478,1c1.079,0.881,1.57,2.326,1.568,4.487L26.507,18.394L26.507,18.394
	z M38.062,23.286c0,0.074-0.031,0.148-0.081,0.199c-0.053,0.054-0.129,0.084-0.203,0.084h-9.532c-0.071,0-0.146-0.03-0.2-0.084
	c-0.055-0.051-0.08-0.125-0.08-0.199V0.598c0-0.077,0.025-0.152,0.08-0.206c0.055-0.054,0.129-0.081,0.2-0.081h4.645
	c0.072,0,0.146,0.027,0.197,0.081c0.054,0.054,0.084,0.128,0.084,0.206v18.271h4.606c0.074,0,0.15,0.03,0.203,0.084
	c0.05,0.047,0.081,0.122,0.081,0.198V23.286L38.062,23.286z M51.787,17.944c0.003,2.164-0.484,3.605-1.562,4.49
	c-1.075,0.868-2.637,1.131-4.69,1.135h-5.723c-0.074,0-0.149-0.03-0.199-0.084c-0.055-0.051-0.085-0.125-0.085-0.199V0.598
	c0-0.077,0.03-0.152,0.085-0.206c0.05-0.054,0.125-0.081,0.199-0.081h5.723c2.057,0,3.615,0.263,4.69,1.134
	c1.076,0.878,1.564,2.323,1.562,4.488V17.944z"/>
</svg>
