<?xml version="1.0" encoding="utf-8"?>
<!-- Generator: Adobe Illustrator 16.0.0, SVG Export Plug-In . SVG Version: 6.00 Build 0)  -->
<!DOCTYPE svg PUBLIC "-//W3C//DTD SVG 1.1//EN" "http://www.w3.org/Graphics/SVG/1.1/DTD/svg11.dtd">
<svg version="1.1" id="Layer_1" xmlns="http://www.w3.org/2000/svg" xmlns:xlink="http://www.w3.org/1999/xlink" x="0px" y="0px"
	 width="17.901px" height="18.896px" viewBox="0 0 17.901 18.896" enable-background="new 0 0 17.901 18.896" xml:space="preserve">
<g>
	<path fill="#E11E26" d="M17.762,12.118c0.131,0.087,0.175,0.263,0.11,0.416c-0.372,1.137-1.006,2.208-1.793,3.104
		c-0.11,0.131-0.263,0.175-0.416,0.109l-2.273-0.787c-0.569,0.459-1.202,0.831-1.881,1.093l-0.459,2.361
		c-0.021,0.153-0.153,0.285-0.306,0.307c-0.59,0.109-1.181,0.175-1.793,0.175s-1.203-0.065-1.793-0.175
		c-0.153-0.021-0.284-0.153-0.306-0.307l-0.458-2.361c-0.679-0.262-1.334-0.634-1.881-1.093l-2.273,0.787
		c-0.153,0.065-0.306,0.021-0.417-0.109c-0.786-0.896-1.42-1.968-1.792-3.104c-0.065-0.153-0.021-0.328,0.11-0.416l1.814-1.574
		c-0.065-0.35-0.087-0.722-0.087-1.093c0-0.371,0.022-0.743,0.087-1.093L0.14,6.783C0.008,6.696-0.036,6.521,0.03,6.368
		C0.402,5.231,1.036,4.16,1.822,3.263c0.11-0.131,0.263-0.174,0.417-0.109l2.273,0.787C5.059,3.482,5.714,3.11,6.393,2.848
		l0.458-2.361C6.874,0.334,7.005,0.202,7.158,0.18c1.181-0.24,2.405-0.24,3.586,0c0.153,0.022,0.284,0.154,0.306,0.307l0.459,2.361
		c0.679,0.263,1.312,0.634,1.881,1.093l2.273-0.787c0.153-0.065,0.306-0.021,0.416,0.109c0.787,0.896,1.421,1.968,1.793,3.104
		c0.064,0.153,0.021,0.329-0.11,0.416l-1.814,1.574c0.065,0.35,0.087,0.722,0.087,1.093c0,0.372-0.022,0.743-0.087,1.093
		L17.762,12.118z M12.493,9.451c0-1.946-1.596-3.542-3.542-3.542c-1.968,0-3.542,1.596-3.542,3.542c0,1.967,1.575,3.542,3.542,3.542
		C10.896,12.993,12.493,11.418,12.493,9.451z"/>
</g>
</svg>
