<?xml version="1.0" encoding="utf-8"?>
<!-- Generator: Adobe Illustrator 16.2.1, SVG Export Plug-In . SVG Version: 6.00 Build 0)  -->
<!DOCTYPE svg PUBLIC "-//W3C//DTD SVG 1.1//EN" "http://www.w3.org/Graphics/SVG/1.1/DTD/svg11.dtd">
<svg version="1.1" id="Layer_1" xmlns="http://www.w3.org/2000/svg" xmlns:xlink="http://www.w3.org/1999/xlink" x="0px" y="0px"
	 width="20px" height="20px" viewBox="0 0 20 20" enable-background="new 0 0 20 20" xml:space="preserve">
<g>
	<path fill="#FFFFFF" d="M8.931,15.466l5.651,4.429C14.675,19.964,14.73,20,14.785,20c0.158,0,0.204-0.105,0.204-0.282v-4.185
		c0-0.296,0.194-0.531,0.456-0.531L17.5,15c1.85,0,2.5-0.911,2.5-1.667c0-0.755,0-10.833,0-11.666C20,0.833,19.376,0,17.489,0H2.491
		C0.668,0,0,0.807,0,1.667s0,10.858,0,11.666S0.689,15,2.5,15h5C7.5,15,8.546,15.029,8.931,15.466L8.931,15.466z"/>
</g>
</svg>
