<?xml version="1.0" encoding="utf-8"?>
<!-- Generator: Adobe Illustrator 16.2.1, SVG Export Plug-In . SVG Version: 6.00 Build 0)  -->
<!DOCTYPE svg PUBLIC "-//W3C//DTD SVG 1.1//EN" "http://www.w3.org/Graphics/SVG/1.1/DTD/svg11.dtd">
<svg version="1.1" id="Layer_1" xmlns="http://www.w3.org/2000/svg" xmlns:xlink="http://www.w3.org/1999/xlink" x="0px" y="0px"
	 width="32px" height="32px" viewBox="0 0 32 32" enable-background="new 0 0 32 32" xml:space="preserve">
<rect fill="#DD4B39" width="32" height="32"/>
<path id="g" fill="#FFFFFF" d="M19.998,17.843c-0.589-0.417-1.715-1.431-1.715-2.026c0-0.698,0.199-1.042,1.25-1.864
	c1.078-0.842,1.841-1.918,1.841-3.295c0-1.639-0.73-3.657-2.101-3.657h2.065l1.458-2c0,0-4.886,0-6.515,0
	c-2.921,0-5.67,2.58-5.67,5.143c0,2.619,1.991,4.917,4.963,4.917c0.206,0,0.407,0.087,0.604,0.074
	c-0.192,0.369-0.331,0.831-0.331,1.262c0,0.728,0.392,1.341,0.887,1.823c-0.374,0-0.735,0.021-1.129,0.021
	c-3.618,0-6.402,2.311-6.402,4.699c0,2.354,3.053,3.828,6.67,3.828c4.125,0,6.403-2.338,6.403-4.691
	C22.276,20.189,21.72,19.061,19.998,17.843z M16.518,14.579c-1.679-0.051-3.273-1.878-3.563-4.082
	c-0.29-2.205,0.836-3.892,2.514-3.842c1.679,0.051,3.274,1.819,3.563,4.023C19.321,12.883,18.195,14.629,16.518,14.579z
	 M15.86,25.73c-2.501,0-4.307-1.583-4.307-3.484c0-1.864,2.24-3.415,4.74-3.388c0.584,0.006,1.128,0.1,1.621,0.26
	c1.357,0.943,2.332,1.478,2.606,2.553c0.052,0.219,0.08,0.442,0.08,0.672C20.602,24.244,19.376,25.73,15.86,25.73z"/>
</svg>
