<?xml version="1.0" encoding="utf-8"?>
<!-- Generator: Adobe Illustrator 16.0.0, SVG Export Plug-In . SVG Version: 6.00 Build 0)  -->
<!DOCTYPE svg PUBLIC "-//W3C//DTD SVG 1.1//EN" "http://www.w3.org/Graphics/SVG/1.1/DTD/svg11.dtd">
<svg version="1.1" id="Layer_1" xmlns="http://www.w3.org/2000/svg" xmlns:xlink="http://www.w3.org/1999/xlink" x="0px" y="0px"
	 width="203.278px" height="49.414px" viewBox="0.411 0 203.278 49.414" enable-background="new 0.411 0 203.278 49.414"
	 xml:space="preserve">
<path fill="#FFFFFF" d="M90.703,11.062h3.591l5.181,13.546V11.062h4.065v24.687h-3.438l-5.328-14.361v14.361h-4.072L90.703,11.062
	L90.703,11.062z"/>
<path fill="#FFFFFF" d="M105.574,11.062h11.003v3.96h-6.452v5.293h5.706v3.96h-5.706v7.514h6.452v3.96h-11.003V11.062z"/>
<path fill="#FFFFFF" d="M118.598,11.062h7.148c4.589,0,5.701,1.186,5.701,6.253c0,3.406-0.518,4.479-2.628,5.442
	c2.705,0.593,3.147,1.371,3.147,5.442c0,3.553-0.48,5.255-1.852,6.293c-0.999,0.814-2.554,1.258-4.33,1.258h-7.187V11.062z
	 M124.894,20.905c1.557,0,2.224-0.923,2.224-3.035c0-2.219-0.482-2.849-2.147-2.849h-1.408v5.883H124.894z M124.894,31.788
	c1.853,0,2.261-0.52,2.261-2.999c0-3.773-0.296-4.33-2.221-4.33h-1.371v7.328H124.894z"/>
<path fill="#FFFFFF" d="M133.488,11.062h6.404c4.625,0,6.475,1.74,6.475,6.033c0,3.849-1.034,5.587-3.921,6.476l5.551,12.178h-5.071
	l-4.887-11.548v11.548h-4.552V11.062L133.488,11.062z M138.04,21.165c2.963,0,3.962-0.851,3.962-3.407
	c0-1.96-0.703-2.736-2.479-2.736h-1.482L138.04,21.165L138.04,21.165z"/>
<path fill="#FFFFFF" d="M170.241,18.944c0.039-0.444,0.039-0.815,0.039-0.998c0-2.554-0.519-3.552-1.853-3.552
	c-1.146,0-1.774,0.959-1.774,2.662c0,0.999,0.257,1.776,0.886,2.48c0.409,0.519,0.814,0.852,2.667,2.184
	c3.517,2.592,4.404,4.147,4.404,7.66c0,4.481-2.183,6.628-6.736,6.628c-2.74,0-4.442-0.89-5.255-2.739
	c-0.482-1.073-0.594-2.184-0.594-5.22l4.109-0.997c0.038,2.108,0.111,2.812,0.295,3.476c0.334,1.15,0.89,1.668,1.853,1.668
	c1.293,0,1.924-0.889,1.924-2.704c0-1.924-0.703-2.922-3.48-4.849c-3.701-2.592-4.516-3.849-4.516-7.107
	c0-4.366,2.221-6.736,6.367-6.736c2.479,0,4.219,0.927,4.996,2.63c0.444,0.999,0.558,1.922,0.594,4.55L170.241,18.944z"/>
<path fill="#FFFFFF" d="M176.428,11.062h4.554v9.956l4.109-9.956h4.441l-4.885,10.917l5.733,13.77h-4.736l-4.664-12.177v12.177
	h-4.553V11.062L176.428,11.062z"/>
<path fill="#FFFFFF" d="M203.689,35.749h-4.739l-0.851-4.481h-3.811l-0.778,4.481h-4.367l4.847-24.688h4.404L203.689,35.749z
	 M196.101,17.685l-1.406,9.848h2.776L196.101,17.685z"/>
<path fill="#FFFFFF" d="M161.374,35.749h-4.739l-0.851-4.481h-3.811l-0.778,4.481h-4.367l4.846-24.688h4.405L161.374,35.749z
	 M153.786,17.685l-1.406,9.848h2.776L153.786,17.685z"/>
<path fill="#FFFFFF" d="M20.867,17.405c0.163-0.059,0.251-0.124,0.347-0.268c0.19-0.283,0.316-0.973,0.31-2.219
	c0.001-0.9-0.059-1.517-0.18-1.89c-0.13-0.377-0.253-0.489-0.484-0.583c-0.159-0.061-0.39-0.093-0.701-0.092h-1.125v5.134h1.125
	C20.471,17.487,20.709,17.46,20.867,17.405z M37.997,11.792c-0.563,0-0.887,0.108-1.048,0.263c-0.168,0.154-0.276,0.424-0.277,0.943
	v16.186c0.001,0.519,0.109,0.791,0.277,0.943c0.162,0.154,0.485,0.264,1.048,0.263c0.564,0.001,0.883-0.109,1.05-0.263
	c0.165-0.152,0.273-0.424,0.275-0.943V12.998c-0.001-0.519-0.11-0.789-0.275-0.943C38.881,11.901,38.562,11.792,37.997,11.792z
	 M20.958,23.499c-0.203-0.064-0.51-0.09-0.92-0.087h-1.004v6.418h1.004c0.407,0.001,0.706-0.026,0.899-0.094
	c0.192-0.069,0.286-0.142,0.393-0.32c0.215-0.354,0.321-1.232,0.354-2.798c0.001-1.204-0.05-1.994-0.178-2.457
	C21.36,23.695,21.247,23.601,20.958,23.499z M69.888,12.354h-1.007V29.83h1.007c0.555-0.006,0.813-0.115,0.999-0.371
	c0.194-0.264,0.327-0.819,0.324-1.755V14.477c0.003-0.933-0.127-1.49-0.325-1.752C70.699,12.468,70.444,12.36,69.888,12.354z
	 M7.471,0L7.471,0L0.411,7.059v1.787l7.061-7.059v1.184l-7.061,7.061v1.787l7.061-7.06v1.184l-7.061,7.059v1.788L7.471,7.73v1.184
	l-7.061,7.057v1.789l7.061-7.058v1.183l-7.061,7.058v1.788l7.061-7.059v1.184l-7.061,7.059v1.788l7.061-7.059v1.183l-7.061,7.059
	v1.788l7.061-7.06v1.185l-7.061,7.059v1.788l7.061-7.061v1.184l-7.061,7.06v1.787l7.061-7.058v1.182l-7.061,7.061v1.787l7.061-7.058
	v1.182L0.411,36.77v1.788l7.061-7.059v1.184L0.411,39.74v1.788l7.061-7.06v1.184l-7.061,7.061v1.788l7.061-7.061v1.184l-7.061,7.06
	v1.787l7.061-7.061v1.187l-7.061,7.057v0.761h1.027l7.06-7.058h1.183l-7.059,7.058H4.41l7.059-7.058h1.184l-7.061,7.058H7.38
	l7.06-7.058h1.182l-7.058,7.058h1.788l7.059-7.058h1.183l-7.058,7.058h1.788l7.059-7.058h1.184l-7.059,7.058h1.787l7.058-7.058
	h1.185l-7.059,7.058h1.788l7.059-7.058h1.183l-7.06,7.058h1.79l7.058-7.058h1.184l-7.06,7.058h1.788l7.06-7.058h1.184l-7.061,7.058
	h1.789l7.06-7.058h1.183l-7.059,7.058h1.788l7.06-7.058h1.184l-7.059,7.058h1.786l7.061-7.058h1.185l-7.061,7.058h1.788l7.059-7.058
	h1.185l-7.06,7.058h1.788l7.06-7.058h1.183l-7.059,7.058h1.787l7.06-7.058h1.184l-7.06,7.058h1.788l7.06-7.058h1.183l-7.06,7.058
	h1.788l7.059-7.058h1.184l-7.059,7.058h1.788l7.059-7.058h1.184l-7.059,7.058h1.788l7.06-7.058h1.182l-7.057,7.058h1.787
	l7.058-7.058h1.185l-7.059,7.058h1.788l7.058-7.058h1.184l-7.06,7.058h1.789l7.06-7.058h1.182l-7.058,7.058h1.788l7.059-7.058h1.184
	l-7.06,7.058h1.788l7.059-7.058h1.184l-7.06,7.058h1.79l7.059-7.058h1.183l-7.06,7.058h1.781l7.06-7.058V0H7.471z M28.252,29.549
	c0,1.975-0.477,3.554-1.601,4.626c-1.121,1.07-2.818,1.581-5.126,1.581h-8.701c-0.093,0-0.186-0.037-0.253-0.104
	c-0.066-0.063-0.105-0.158-0.105-0.255V6.785c0-0.096,0.04-0.188,0.105-0.254c0.067-0.067,0.16-0.104,0.253-0.104h8.536
	c2.313,0,4.009,0.509,5.133,1.581c1.122,1.073,1.6,2.653,1.599,4.627v2.487c0,1.12-0.186,2.264-0.759,3.264
	c-0.442,0.767-1.114,1.431-2.071,1.908c0.862,0.285,1.547,0.753,2.037,1.411c0.665,0.894,0.953,2.089,0.953,3.556L28.252,29.549
	L28.252,29.549z M45.89,29.228c0.003,2.728-0.615,4.548-1.976,5.659c-1.359,1.098-3.326,1.428-5.917,1.434
	c-2.591-0.005-4.56-0.335-5.917-1.434c-1.361-1.11-1.979-2.931-1.977-5.659V12.955c-0.002-2.727,0.616-4.547,1.977-5.657
	c1.357-1.1,3.594-1.258,6.187-1.261c2.591,0.003,4.289,0.162,5.648,1.261c1.36,1.11,1.979,2.93,1.976,5.657V29.228z M60.466,35.397
	c0,0.097-0.04,0.192-0.104,0.255c-0.067,0.067-0.162,0.104-0.254,0.104H48.085c-0.096,0-0.188-0.037-0.253-0.104
	c-0.067-0.063-0.106-0.158-0.106-0.255V6.785c0-0.096,0.039-0.188,0.106-0.254c0.065-0.067,0.157-0.104,0.253-0.104h5.851
	c0.095,0,0.189,0.038,0.252,0.104c0.068,0.066,0.105,0.16,0.105,0.254V29.83h5.815c0.092,0,0.187,0.037,0.254,0.105
	c0.064,0.065,0.104,0.156,0.104,0.251L60.466,35.397L60.466,35.397z M77.778,28.667c0,2.728-0.617,4.547-1.976,5.66
	c-1.359,1.096-3.327,1.428-5.914,1.43H62.67c-0.094,0-0.187-0.037-0.252-0.104c-0.068-0.063-0.106-0.158-0.106-0.255V6.785
	c0-0.096,0.038-0.188,0.106-0.254c0.065-0.067,0.159-0.104,0.252-0.104h7.219c2.587,0.003,4.555,0.333,5.914,1.433
	c1.359,1.108,1.976,2.932,1.976,5.658V28.667z"/>
</svg>
