<?xml version="1.0" encoding="utf-8"?>
<!-- Generator: Adobe Illustrator 16.2.1, SVG Export Plug-In . SVG Version: 6.00 Build 0)  -->
<!DOCTYPE svg PUBLIC "-//W3C//DTD SVG 1.1//EN" "http://www.w3.org/Graphics/SVG/1.1/DTD/svg11.dtd">
<svg version="1.1" id="Layer_1" xmlns="http://www.w3.org/2000/svg" xmlns:xlink="http://www.w3.org/1999/xlink" x="0px" y="0px"
	 width="313.058px" height="76px" viewBox="0 0 313.058 76" enable-background="new 0 0 313.058 76" xml:space="preserve">
<path fill="#CC0000" d="M139.283,17.013h5.522l7.969,20.834V17.013h6.253v37.97h-5.287l-8.194-22.088v22.088h-6.264V17.013z"/>
<path fill="#CC0000" d="M162.154,17.013h16.924v6.09h-9.924v8.141h8.776v6.091h-8.776v11.556h9.924v6.092h-16.924V17.013z"/>
<path fill="#CC0000" d="M182.186,17.013h10.994c7.058,0,8.768,1.823,8.768,9.617c0,5.239-0.796,6.889-4.042,8.37
	c4.159,0.912,4.84,2.108,4.84,8.37c0,5.465-0.739,8.083-2.848,9.679c-1.536,1.252-3.928,1.935-6.659,1.935h-11.053V17.013z
	 M191.869,32.152c2.394,0,3.42-1.42,3.42-4.667c0-3.413-0.742-4.382-3.303-4.382h-2.165v9.049H191.869z M191.869,48.891
	c2.849,0,3.477-0.8,3.477-4.612c0-5.804-0.456-6.659-3.416-6.659h-2.108v11.271H191.869z"/>
<path fill="#CC0000" d="M205.087,17.013h9.849c7.114,0,9.959,2.676,9.959,9.278c0,5.92-1.59,8.594-6.03,9.961l8.538,18.73h-7.799
	l-7.516-17.761v17.761h-7.001V17.013z M212.088,32.552c4.556,0,6.093-1.309,6.093-5.24c0-3.015-1.081-4.209-3.812-4.209h-2.28
	V32.552z"/>
<path fill="#CC0000" d="M261.613,29.136c0.061-0.683,0.061-1.253,0.061-1.534c0-3.928-0.798-5.463-2.849-5.463
	c-1.764,0-2.73,1.475-2.73,4.095c0,1.536,0.395,2.732,1.363,3.814c0.629,0.798,1.252,1.31,4.101,3.358
	c5.409,3.986,6.774,6.378,6.774,11.782c0,6.892-3.357,10.194-10.361,10.194c-4.213,0-6.832-1.369-8.082-4.213
	c-0.741-1.65-0.913-3.359-0.913-8.028l6.321-1.534c0.058,3.242,0.171,4.326,0.453,5.347c0.513,1.768,1.369,2.565,2.849,2.565
	c1.99,0,2.959-1.367,2.959-4.158c0-2.959-1.081-4.495-5.353-7.457c-5.692-3.986-6.945-5.92-6.945-10.931
	c0-6.714,3.416-10.36,9.793-10.36c3.813,0,6.489,1.426,7.685,4.045c0.683,1.536,0.857,2.956,0.913,6.998L261.613,29.136z"/>
<path fill="#CC0000" d="M271.131,17.013h7.003v15.312l6.32-15.312h6.831l-7.513,16.791l8.819,21.179h-7.286l-7.172-18.73v18.73
	h-7.003V17.013z"/>
<path fill="#CC0000" d="M313.058,54.982h-7.289l-1.308-6.892h-5.862l-1.196,6.892h-6.717l7.454-37.97h6.775L313.058,54.982z
	 M301.387,27.2l-2.163,15.145h4.271L301.387,27.2z"/>
<path fill="#CC0000" d="M247.976,54.982h-7.289l-1.308-6.892h-5.862l-1.196,6.892h-6.717l7.454-37.97h6.775L247.976,54.982z
	 M236.305,27.2l-2.163,15.145h4.271L236.305,27.2z"/>
<path fill="#0156B9" d="M31.874,26.769c0.25-0.091,0.386-0.19,0.533-0.412c0.293-0.436,0.485-1.497,0.476-3.413
	c0.002-1.385-0.09-2.333-0.277-2.906c-0.199-0.581-0.389-0.753-0.744-0.898c-0.244-0.093-0.6-0.143-1.078-0.141h-1.73v7.897h1.73
	C31.264,26.896,31.63,26.854,31.874,26.769z M58.219,18.137c-0.866,0-1.363,0.167-1.612,0.404c-0.258,0.237-0.425,0.652-0.427,1.45
	v24.894c0.002,0.799,0.169,1.217,0.427,1.451c0.249,0.236,0.746,0.406,1.612,0.404c0.869,0.002,1.359-0.168,1.616-0.404
	c0.254-0.234,0.421-0.652,0.423-1.451V19.991c-0.002-0.798-0.169-1.213-0.423-1.45C59.578,18.304,59.088,18.137,58.219,18.137z
	 M32.013,36.141c-0.312-0.098-0.785-0.138-1.415-0.134h-1.544v9.872h1.544c0.626,0.002,1.085-0.041,1.383-0.145
	c0.296-0.105,0.44-0.219,0.604-0.492c0.33-0.545,0.494-1.895,0.545-4.303c0.002-1.851-0.077-3.067-0.274-3.779
	C32.631,36.443,32.458,36.299,32.013,36.141z M107.269,19h-1.549v26.879h1.549c0.854-0.01,1.25-0.178,1.536-0.57
	c0.299-0.406,0.503-1.26,0.499-2.699V22.266c0.005-1.435-0.196-2.292-0.5-2.695C108.516,19.176,108.123,19.011,107.269,19z M11.27,0
	L11.27,0L0.411,10.856v2.749L11.27,2.748v1.821L0.411,15.428v2.749L11.27,7.319v1.82L0.411,19.996v2.749L11.27,11.889v1.821
	L0.411,24.564v2.751L11.27,16.46v1.819L0.411,29.134v2.75L11.27,21.027v1.82L0.411,33.704v2.75L11.27,25.598v1.82L0.411,38.274v2.75
	L11.27,30.165v1.822L0.411,42.844v2.75L11.27,34.735v1.821L0.411,47.414v2.748L11.27,39.307v1.818L0.411,51.984v2.748L11.27,43.877
	v1.818L0.411,56.553v2.75L11.27,48.445v1.82L0.411,61.121v2.75L11.27,53.014v1.82L0.411,65.693v2.75L11.27,57.584v1.82L0.411,70.262
	v2.75L11.27,62.152v1.824L0.411,74.83V76h1.58l10.858-10.855h1.82L3.812,76h2.749l10.858-10.855h1.821L8.381,76h2.749l10.858-10.855
	h1.818L12.951,76h2.749l10.857-10.855h1.82L17.521,76h2.75l10.857-10.855h1.821L22.092,76h2.749l10.855-10.855h1.822L26.662,76
	h2.749l10.857-10.855h1.82L31.229,76h2.752l10.856-10.855h1.82L35.799,76h2.75l10.857-10.855h1.821L40.368,76h2.751l10.857-10.855
	h1.82L44.938,76h2.75l10.859-10.855h1.82L49.51,76h2.747l10.859-10.855h1.822L54.079,76h2.75l10.857-10.855h1.822L58.649,76h2.75
	l10.859-10.855h1.819L63.219,76h2.749l10.858-10.855h1.82L67.788,76h2.75l10.858-10.855h1.82L72.357,76h2.75l10.857-10.855h1.821
	L76.928,76h2.75l10.857-10.855h1.82L81.498,76h2.75l10.858-10.855h1.818L86.069,76h2.749l10.855-10.855h1.822L90.638,76h2.75
	l10.856-10.855h1.821L95.207,76h2.751l10.858-10.855h1.818L99.778,76h2.75l10.857-10.855h1.821L104.347,76h2.75l10.858-10.855h1.82
	L108.917,76h2.752l10.856-10.855h1.819L113.486,76h2.739l10.858-10.855V0H11.27z M43.231,45.447
	c0.001,3.037-0.733,5.467-2.462,7.115c-1.724,1.646-4.335,2.432-7.884,2.432H19.502c-0.144,0-0.286-0.057-0.389-0.16
	c-0.102-0.098-0.162-0.242-0.162-0.393V10.435c0-0.147,0.061-0.29,0.162-0.391c0.103-0.103,0.245-0.161,0.389-0.161h13.129
	c3.557,0,6.166,0.783,7.894,2.432c1.725,1.65,2.461,4.08,2.459,7.116v3.826c0,1.722-0.286,3.482-1.167,5.019
	c-0.68,1.18-1.714,2.201-3.185,2.935c1.326,0.438,2.379,1.159,3.132,2.17c1.022,1.375,1.466,3.213,1.466,5.468V45.447z
	 M70.359,44.953c0.005,4.195-0.946,6.996-3.038,8.703c-2.091,1.689-5.115,2.197-9.102,2.205c-3.985-0.008-7.012-0.516-9.1-2.205
	c-2.093-1.707-3.044-4.508-3.04-8.703V19.925c-0.004-4.194,0.947-6.995,3.04-8.701c2.088-1.691,5.528-1.935,9.516-1.94
	c3.984,0.005,6.595,0.249,8.686,1.94c2.092,1.707,3.043,4.507,3.038,8.701V44.953z M92.776,54.441c0,0.15-0.061,0.295-0.16,0.393
	c-0.104,0.104-0.249,0.16-0.391,0.16H73.735c-0.147,0-0.289-0.057-0.389-0.16c-0.103-0.098-0.163-0.242-0.163-0.393V10.435
	c0-0.147,0.06-0.29,0.163-0.391c0.101-0.103,0.242-0.161,0.389-0.161h8.998c0.147,0,0.292,0.058,0.388,0.161
	c0.105,0.101,0.162,0.245,0.162,0.391v35.444h8.943c0.142,0,0.287,0.057,0.391,0.162c0.099,0.1,0.16,0.24,0.16,0.387V54.441z
	 M119.403,44.09c0,4.195-0.948,6.994-3.038,8.705c-2.091,1.686-5.116,2.197-9.096,2.199H96.167c-0.145,0-0.288-0.057-0.388-0.16
	c-0.104-0.098-0.163-0.242-0.163-0.393V10.435c0-0.147,0.059-0.29,0.163-0.391c0.101-0.103,0.244-0.161,0.388-0.161h11.102
	c3.98,0.005,7.005,0.512,9.096,2.204c2.09,1.705,3.038,4.509,3.038,8.702V44.09z"/>
</svg>
