<?xml version="1.0" encoding="utf-8"?>
<!-- Generator: Adobe Illustrator 16.2.1, SVG Export Plug-In . SVG Version: 6.00 Build 0)  -->
<!DOCTYPE svg PUBLIC "-//W3C//DTD SVG 1.1//EN" "http://www.w3.org/Graphics/SVG/1.1/DTD/svg11.dtd">
<svg version="1.1" id="Layer_1" xmlns="http://www.w3.org/2000/svg" xmlns:xlink="http://www.w3.org/1999/xlink" x="0px" y="0px"
	 width="20px" height="20px" viewBox="0 0 20 20" enable-background="new 0 0 20 20" xml:space="preserve">
<g>
	<path fill="#245AA9" d="M19.58,20h-2.91c-0.234,0-0.42-0.186-0.42-0.42c0-8.75-7.08-15.83-15.83-15.83C0.186,3.75,0,3.564,0,3.33
		V0.42C0,0.186,0.186,0,0.42,0C11.23,0,20,8.77,20,19.58C20,19.814,19.814,20,19.58,20z M13.33,20h-2.91
		C10.186,20,10,19.814,10,19.58C10,14.287,5.713,10,0.42,10C0.186,10,0,9.814,0,9.58V6.67c0-0.234,0.186-0.42,0.42-0.42
		c7.354,0,13.33,5.977,13.33,13.33C13.75,19.814,13.564,20,13.33,20z M3.125,20C1.387,20,0,18.613,0,16.875
		c0-1.709,1.387-3.125,3.125-3.125c1.709,0,3.125,1.416,3.125,3.125C6.25,18.613,4.834,20,3.125,20z"/>
</g>
</svg>
