<?xml version="1.0" encoding="utf-8"?>
<!-- Generator: Adobe Illustrator 16.2.1, SVG Export Plug-In . SVG Version: 6.00 Build 0)  -->
<!DOCTYPE svg PUBLIC "-//W3C//DTD SVG 1.1//EN" "http://www.w3.org/Graphics/SVG/1.1/DTD/svg11.dtd">
<svg version="1.1" id="Layer_1" xmlns="http://www.w3.org/2000/svg" xmlns:xlink="http://www.w3.org/1999/xlink" x="0px" y="0px"
	 width="17.997px" height="17.997px" viewBox="0 0 17.997 17.997" enable-background="new 0 0 17.997 17.997" xml:space="preserve">
<path fill="#0055B8" d="M1.897,1.9C3.123,0.675,4.752,0,6.485,0s3.362,0.675,4.588,1.9c1.227,1.225,1.9,2.854,1.9,4.587
	c0,1.733-0.676,3.362-1.9,4.588c-1.226,1.225-2.855,1.898-4.588,1.898s-3.362-0.676-4.588-1.898C-0.632,8.544-0.632,4.429,1.897,1.9
	z M3.018,9.954c0.926,0.928,2.158,1.438,3.468,1.438s2.542-0.51,3.468-1.438c0.928-0.926,1.438-2.158,1.438-3.467
	c0-1.31-0.51-2.541-1.438-3.467C9.027,2.093,7.795,1.583,6.485,1.583s-2.542,0.51-3.468,1.436C1.105,4.931,1.105,8.042,3.018,9.954z
	"/>
<path fill="#0055B8" d="M17.997,16.104l-1.893,1.895l-4.869-4.869l1.893-1.893L17.997,16.104z"/>
</svg>
