<?xml version="1.0" encoding="utf-8"?>
<!-- Generator: Adobe Illustrator 16.2.1, SVG Export Plug-In . SVG Version: 6.00 Build 0)  -->
<!DOCTYPE svg PUBLIC "-//W3C//DTD SVG 1.1//EN" "http://www.w3.org/Graphics/SVG/1.1/DTD/svg11.dtd">
<svg version="1.1" id="Layer_1" xmlns="http://www.w3.org/2000/svg" xmlns:xlink="http://www.w3.org/1999/xlink" x="0px" y="0px"
	 width="15.537px" height="17.997px" viewBox="0 0 15.537 17.997" enable-background="new 0 0 15.537 17.997" xml:space="preserve">
<path fill="#FFFFFF" d="M12.892,6c1.657,0,3-1.343,3-3s-1.343-3-3-3c-1.656,0-3,1.343-3,3c0,0.107,0.021,0.208,0.031,0.312
	L5.4,5.719C4.864,5.217,4.148,4.903,3.355,4.903c-1.657,0-3,1.344-3,3c0,1.656,1.343,3,3,3c0.531,0,1.022-0.148,1.455-0.393
	l3.654,3.544c-0.1,0.298-0.166,0.61-0.166,0.942c0,1.655,1.344,3,3,3c1.657,0,3-1.345,3-3c0-1.656-1.343-3-3-3
	c-0.59,0-1.135,0.176-1.599,0.469L6.137,9.012c0.137-0.343,0.218-0.716,0.218-1.108c0-0.139-0.022-0.271-0.041-0.404l4.46-2.375
	C11.317,5.666,12.065,6,12.892,6z"/>
</svg>
