<?xml version="1.0" encoding="utf-8"?>
<!-- Generator: Adobe Illustrator 16.0.0, SVG Export Plug-In . SVG Version: 6.00 Build 0)  -->
<!DOCTYPE svg PUBLIC "-//W3C//DTD SVG 1.1//EN" "http://www.w3.org/Graphics/SVG/1.1/DTD/svg11.dtd">
<svg version="1.1" id="Layer_1" xmlns="http://www.w3.org/2000/svg" xmlns:xlink="http://www.w3.org/1999/xlink" x="0px" y="0px"
	 width="100px" height="100px" viewBox="0 0 100 100" enable-background="new 0 0 100 100" xml:space="preserve">
<g>
	<g>
		<path fill-rule="evenodd" clip-rule="evenodd" fill="#0156B9" d="M46,0.063H6c-3.314,0-6,2.686-6,6V39h46V0.063z"/>
		<path fill-rule="evenodd" clip-rule="evenodd" fill="#0156B9" d="M46,47H0v46.937c0,3.314,2.686,6,6,6h40V47z"/>
		<path fill-rule="evenodd" clip-rule="evenodd" fill="#0156B9" d="M94,0.063H54V39h46V6.063C100,2.749,97.312,0.063,94,0.063z"/>
		<path fill-rule="evenodd" clip-rule="evenodd" fill="#0156B9" d="M54,99.937h40c3.312,0,6-2.686,6-6V47H54V99.937z"/>
	</g>
	<path fill-rule="evenodd" clip-rule="evenodd" fill="#2C4093" d="M94,99.999H6c-3.313,0-6-2.686-6-6V80c0,3.313,2.687,6,6,6h88
		c3.313,0,6-2.687,6-6v13.999C100,97.313,97.313,99.999,94,99.999z"/>
	<g>
		<g>
			<path fill-rule="evenodd" clip-rule="evenodd" fill="#2C4093" d="M72.901,48.539c-0.906-0.89-2.035-1.655-3.285-2.321
				l-40.08-0.079c-1.311,0.684-2.494,1.476-3.438,2.401c-2.935,2.88-4.551,6.708-4.551,10.782c0.001,3.983,1.558,7.704,4.384,10.477
				C28.692,72.508,32.363,74,36.268,74c3.996,0,7.776-1.552,10.646-4.367c1.004-0.984,1.856-2.229,2.586-3.605
				c0.729,1.377,1.581,2.621,2.585,3.605C54.956,72.448,58.736,74,62.732,74c3.903,0,7.575-1.492,10.336-4.201
				c2.826-2.772,4.383-6.492,4.384-10.477C77.452,55.251,75.837,51.422,72.901,48.539z"/>
		</g>
	</g>
	<g>
		<g>
			<path fill-rule="evenodd" clip-rule="evenodd" fill="#FFFFFF" d="M69.616,43.243c1.354-0.731,2.475-1.551,3.399-2.485
				c5.881-5.943,5.956-15.537,0.168-21.385c-2.774-2.803-6.479-4.345-10.43-4.345c-4.043,0-7.855,1.603-10.74,4.516
				c-0.946,0.956-1.772,2.124-2.511,3.538c-0.74-1.42-1.568-2.594-2.518-3.553C44.104,16.617,40.289,15,36.247,15
				c-3.952,0-7.655,1.514-10.43,4.315c-5.789,5.849-5.714,15.385,0.169,21.329c0.957,0.967,2.131,1.791,3.55,2.52
				c-1.311,0.684-2.494,1.476-3.438,2.401c-2.935,2.88-4.551,6.708-4.551,10.782c0.001,3.983,1.558,7.704,4.384,10.477
				c2.761,2.709,6.432,4.201,10.336,4.201c3.996,0,7.776-1.552,10.646-4.367c1.004-0.984,1.856-2.229,2.586-3.605
				c0.729,1.377,1.581,2.621,2.585,3.605c2.871,2.815,6.651,4.367,10.647,4.367c3.903,0,7.575-1.492,10.336-4.201
				c2.826-2.772,4.383-6.492,4.384-10.477c0-4.071-1.615-7.9-4.551-10.783C71.995,44.675,70.866,43.909,69.616,43.243z"/>
		</g>
	</g>
	<path fill-rule="evenodd" clip-rule="evenodd" fill="#FFFFFF" d="M100,47H54v53h-8V47H0v-8h46V0h8v39h46V47z"/>
	<path fill-rule="evenodd" clip-rule="evenodd" fill="#CC0000" d="M45.289,39.01c0,0-6.888-0.869-11.222-2.739
		c-0.979-0.318-1.902-0.86-2.681-1.638c-2.63-2.63-2.63-6.895,0-9.525c2.63-2.63,6.895-2.63,9.525,0
		c0.778,0.778,1.319,1.701,1.638,2.681C44.42,32.122,45.289,39.01,45.289,39.01z M64.932,36.272c0.98-0.318,1.902-0.859,2.681-1.638
		c2.631-2.631,2.631-6.896,0-9.525c-2.63-2.63-6.895-2.63-9.524,0c-0.778,0.778-1.32,1.701-1.639,2.681
		c-1.87,4.334-2.739,11.222-2.739,11.222S60.599,38.142,64.932,36.272z M56.45,58.223c0.318,0.98,0.859,1.902,1.638,2.681
		c2.631,2.631,6.896,2.631,9.525,0c2.63-2.63,2.63-6.895,0-9.524c-0.778-0.778-1.701-1.32-2.681-1.639
		c-4.334-1.869-11.222-2.738-11.222-2.738S54.58,53.89,56.45,58.223z M34.068,49.74c-0.98,0.318-1.902,0.859-2.681,1.637
		c-2.631,2.631-2.631,6.896,0,9.525c2.63,2.63,6.895,2.63,9.524,0c0.778-0.777,1.32-1.701,1.639-2.68
		C44.421,53.889,45.29,47,45.29,47S38.401,47.869,34.068,49.74z"/>
	<g>
		<path fill="#A31128" d="M67.613,51.379c-0.778-0.778-1.701-1.32-2.681-1.639c-4.334-1.869-11.222-2.738-11.222-2.738
			s0.132,1.037,0.399,2.553c1.512,0.213,7.102,1.079,10.822,2.683c0.979,0.318,1.902,0.861,2.681,1.639
			c0.996,0.996,1.612,2.227,1.854,3.514C69.864,55.278,69.247,53.013,67.613,51.379z"/>
		<path fill="#A31128" d="M56.449,30.288c0.318-0.979,0.86-1.902,1.639-2.681c2.63-2.63,6.895-2.63,9.524,0
			c0.996,0.996,1.613,2.226,1.855,3.513c0.396-2.112-0.221-4.377-1.855-6.012c-2.63-2.63-6.895-2.63-9.524,0
			c-0.778,0.778-1.32,1.701-1.639,2.681c-1.87,4.334-2.739,11.222-2.739,11.222s0.15-0.02,0.399-0.055
			C54.534,36.555,55.303,32.945,56.449,30.288z"/>
		<path fill="#A31128" d="M31.387,27.606c2.63-2.63,6.895-2.63,9.525,0c0.778,0.778,1.319,1.701,1.638,2.681
			c1.146,2.656,1.915,6.267,2.34,8.668c0.249,0.035,0.399,0.055,0.399,0.055s-0.869-6.888-2.739-11.222
			c-0.318-0.98-0.859-1.902-1.638-2.681c-2.631-2.63-6.896-2.63-9.525,0c-1.634,1.634-2.251,3.899-1.854,6.012
			C29.774,29.833,30.391,28.602,31.387,27.606z"/>
		<path fill="#A31128" d="M31.388,51.377c-1.635,1.635-2.252,3.9-1.855,6.013c0.242-1.288,0.859-2.519,1.855-3.515
			c0.778-0.777,1.7-1.318,2.681-1.637c3.72-1.606,9.311-2.472,10.822-2.685C45.158,48.037,45.29,47,45.29,47
			s-6.889,0.869-11.222,2.74C33.088,50.059,32.166,50.6,31.388,51.377z"/>
	</g>
</g>
</svg>
