<?xml version="1.0" encoding="utf-8"?>
<!-- Generator: Adobe Illustrator 16.0.0, SVG Export Plug-In . SVG Version: 6.00 Build 0)  -->
<!DOCTYPE svg PUBLIC "-//W3C//DTD SVG 1.1//EN" "http://www.w3.org/Graphics/SVG/1.1/DTD/svg11.dtd">
<svg version="1.1" id="Layer_1" xmlns="http://www.w3.org/2000/svg" xmlns:xlink="http://www.w3.org/1999/xlink" x="0px" y="0px"
	 width="96px" height="100.235px" viewBox="0 0 96 100.235" enable-background="new 0 0 96 100.235" xml:space="preserve">
<g>
	<path fill-rule="evenodd" clip-rule="evenodd" fill="#2C4093" d="M2,38h92.001C95.105,38,96,38.898,96,40.008v22.095
		c0,1.109-0.895,2.008-1.999,2.008H2c-1.104,0-2-0.898-2-2.008V40.008C0,38.898,0.896,38,2,38z"/>
	<path fill-rule="evenodd" clip-rule="evenodd" fill="#EDF1F2" d="M93,15.848v82.16c0,1.117-0.896,2.021-1.999,2.021H5
		c-1.104,0-2-0.904-2-2.021V2.021C3,0.904,3.896,0,5,0h72.284L93,15.848z"/>
	<path fill="#CCCCCC" d="M93,39L46.009,63.098L3.019,43.017v26.838H93V39z"/>
	<path fill-rule="evenodd" clip-rule="evenodd" fill="#A31128" d="M96,97.992c0,1.109-0.895,2.008-1.999,2.008H2.021
		c-1.104,0-2-0.898-2-2.008V86.947c0-0.133,0.015-0.261,0.039-0.386V41.645l47.95,29.237l47.95-29.037v44.717
		C95.985,86.687,96,86.814,96,86.947V97.992z"/>
	<path fill-rule="evenodd" clip-rule="evenodd" fill="#CCCCCC" d="M93.039,16.381L68,24.702L76.943,0L93.039,16.381z"/>
	<path fill-rule="evenodd" clip-rule="evenodd" fill="#0156B9" d="M93.001,15.989L77,16V0.015L93.001,15.989z"/>
	<path fill="#CC0000" d="M0,42v58.235l47.99-29.25L0,42z"/>
	<path fill="#CC0000" d="M95.891,42l0.011,54.381L48,71.216L95.891,42z"/>
</g>
</svg>
