<?xml version="1.0" encoding="utf-8"?>
<!-- Generator: Adobe Illustrator 16.0.0, SVG Export Plug-In . SVG Version: 6.00 Build 0)  -->
<!DOCTYPE svg PUBLIC "-//W3C//DTD SVG 1.1//EN" "http://www.w3.org/Graphics/SVG/1.1/DTD/svg11.dtd">
<svg version="1.1" id="Layer_1" xmlns="http://www.w3.org/2000/svg" xmlns:xlink="http://www.w3.org/1999/xlink" x="0px" y="0px"
	 width="100px" height="100.004px" viewBox="0 0 100 100.004" enable-background="new 0 0 100 100.004" xml:space="preserve">
<g>
	<g>
		<path fill-rule="evenodd" clip-rule="evenodd" fill="#CC0000" d="M84.991,71.989c0,0.003-0.001,0.006-0.001,0.009v1.158
			c0,3.222-2.643,5.834-5.901,5.834h-4.684c-0.014,0-0.025,0.002-0.038,0.002L67.92,79c-1.113,0-1.942,0.984-1.942,2.23v17.585
			c0,0.738-0.2,1.188-0.863,1.188c-0.233,0-0.473-0.154-0.866-0.457L37.955,80.951c-1.64-1.834-6.084-1.957-6.084-1.957
			l-21.247-0.002c-0.014,0-0.026-0.002-0.04-0.002H5.902C2.643,78.99,0,76.378,0,73.156V20.835C0,17.613,2.643,15,5.902,15h73.187
			c3.259,0,5.901,2.613,5.901,5.835v1.157c0,0.004,0.001,0.007,0.001,0.01C84.991,25.505,84.991,68.818,84.991,71.989z"/>
		<path fill-rule="evenodd" clip-rule="evenodd" fill="#FFFFFF" d="M9,20h67c1.657,0,3,1.344,3,3.001v45.978c0,1.656-1.343,3-3,3H9
			c-1.656,0-3-1.344-3-3V23.001C6,21.344,7.344,20,9,20z"/>
		<path fill="#0156B9" d="M58.5,36.072c-1.178,0.523-2.443,0.875-3.771,1.035c1.355-0.812,2.396-2.101,2.887-3.633
			c-1.268,0.752-2.674,1.298-4.168,1.595c-1.198-1.277-2.904-2.075-4.792-2.075c-3.626,0-6.565,2.939-6.565,6.566
			c0,0.512,0.058,1.016,0.17,1.497c-5.456-0.275-10.294-2.89-13.532-6.86c-0.564,0.969-0.889,2.096-0.889,3.299
			c0,2.279,1.159,4.287,2.921,5.465c-1.076-0.033-2.089-0.33-2.974-0.822c-0.001,0.027-0.001,0.055-0.001,0.084
			c0,3.182,2.264,5.835,5.267,6.438c-0.551,0.15-1.131,0.229-1.729,0.229c-0.423,0-0.835-0.039-1.235-0.117
			c0.835,2.609,3.26,4.508,6.133,4.559c-2.247,1.762-5.078,2.812-8.153,2.812c-0.53,0-1.053-0.031-1.566-0.092
			C29.405,57.912,32.856,59,36.563,59c12.076,0,18.679-10.003,18.679-18.68c0-0.283-0.006-0.568-0.018-0.85
			C56.508,38.545,57.619,37.39,58.5,36.072z"/>
		<path fill-rule="evenodd" clip-rule="evenodd" fill="#0156B9" d="M94,0H21c-3.313,0-6,2.687-6,6v7h64.089C84,13,87,16,87,20.835
			V64h7c3.314,0,6-2.686,6-6V6C100,2.687,97.314,0,94,0z"/>
	</g>
	<g>
		<path fill-rule="evenodd" clip-rule="evenodd" fill="#A31128" d="M57,81h8.978v18.105L57,81z"/>
	</g>
</g>
</svg>
