<?xml version="1.0" encoding="utf-8"?>
<!-- Generator: Adobe Illustrator 16.2.1, SVG Export Plug-In . SVG Version: 6.00 Build 0)  -->
<!DOCTYPE svg PUBLIC "-//W3C//DTD SVG 1.1//EN" "http://www.w3.org/Graphics/SVG/1.1/DTD/svg11.dtd">
<svg version="1.1" id="Layer_1" xmlns="http://www.w3.org/2000/svg" xmlns:xlink="http://www.w3.org/1999/xlink" x="0px" y="0px"
	 width="30px" height="25px" viewBox="0.793 0.417 30 25" enable-background="new 0.793 0.417 30 25" xml:space="preserve">
<g>
	<g>
		<path id="SVGID_1_" fill="#0156B9" d="M30.617,3.757c-1.09,0.48-2.264,0.807-3.495,0.955c1.259-0.751,2.224-1.939,2.677-3.354
			c-1.177,0.694-2.477,1.199-3.861,1.47c-1.108-1.177-2.691-1.915-4.438-1.915c-3.359,0-6.083,2.713-6.083,6.061
			c0,0.474,0.054,0.938,0.157,1.382C10.518,8.104,6.034,5.69,3.036,2.023C2.513,2.917,2.211,3.959,2.211,5.072
			c0,2.101,1.074,3.956,2.707,5.045c-0.999-0.034-1.936-0.306-2.756-0.76c0,0.028,0,0.051,0,0.077c0,2.938,2.095,5.387,4.877,5.941
			c-0.509,0.139-1.048,0.213-1.599,0.213c-0.396,0-0.776-0.037-1.148-0.107c0.775,2.408,3.022,4.162,5.679,4.211
			c-2.078,1.625-4.701,2.594-7.551,2.594c-0.49,0-0.974-0.027-1.45-0.086c2.691,1.721,5.89,2.723,9.327,2.723
			c11.188,0,17.303-9.233,17.303-17.245c0-0.262-0.005-0.521-0.017-0.784C28.771,6.039,29.803,4.972,30.617,3.757L30.617,3.757z"/>
	</g>
	<g>
		<defs>
			<path id="SVGID_2_" d="M30.617,3.757c-1.09,0.48-2.264,0.807-3.495,0.955c1.259-0.751,2.224-1.939,2.677-3.354
				c-1.177,0.694-2.477,1.199-3.861,1.47c-1.108-1.177-2.691-1.915-4.438-1.915c-3.359,0-6.083,2.713-6.083,6.061
				c0,0.474,0.054,0.938,0.157,1.382C10.518,8.104,6.034,5.69,3.036,2.023C2.513,2.917,2.211,3.959,2.211,5.072
				c0,2.101,1.074,3.956,2.707,5.045c-0.999-0.034-1.936-0.306-2.756-0.76c0,0.028,0,0.051,0,0.077c0,2.938,2.095,5.387,4.877,5.941
				c-0.509,0.139-1.048,0.213-1.599,0.213c-0.396,0-0.776-0.037-1.148-0.107c0.775,2.408,3.022,4.162,5.679,4.211
				c-2.078,1.625-4.701,2.594-7.551,2.594c-0.49,0-0.974-0.027-1.45-0.086c2.691,1.721,5.89,2.723,9.327,2.723
				c11.188,0,17.303-9.233,17.303-17.245c0-0.262-0.005-0.521-0.017-0.784C28.771,6.039,29.803,4.972,30.617,3.757L30.617,3.757z"/>
		</defs>
		<use xlink:href="#SVGID_2_"  overflow="visible" fill="#0156B9"/>
		<clipPath id="SVGID_3_">
			<use xlink:href="#SVGID_2_"  overflow="visible"/>
		</clipPath>
	</g>
</g>
</svg>
