<?xml version="1.0" encoding="utf-8"?>
<!-- Generator: Adobe Illustrator 16.2.1, SVG Export Plug-In . SVG Version: 6.00 Build 0)  -->
<!DOCTYPE svg PUBLIC "-//W3C//DTD SVG 1.1//EN" "http://www.w3.org/Graphics/SVG/1.1/DTD/svg11.dtd">
<svg version="1.1" id="Layer_1" xmlns="http://www.w3.org/2000/svg" xmlns:xlink="http://www.w3.org/1999/xlink" x="0px" y="0px"
	 width="32px" height="32px" viewBox="0 0 32 32" enable-background="new 0 0 32 32" xml:space="preserve">
<g>
	<rect fill="#00ACED" width="32" height="32"/>
	<path fill="#FFFFFF" d="M27.238,9.029c-0.827,0.365-1.717,0.614-2.65,0.726c0.954-0.571,1.686-1.476,2.029-2.552
		c-0.893,0.528-1.879,0.913-2.929,1.119c-0.841-0.896-2.041-1.458-3.365-1.458c-2.549,0-4.612,2.065-4.612,4.613
		c0,0.361,0.041,0.713,0.119,1.051c-3.832-0.192-7.232-2.028-9.505-4.819C5.928,8.39,5.699,9.183,5.699,10.028
		c0,1.6,0.815,3.01,2.053,3.839c-0.758-0.026-1.468-0.232-2.091-0.578c0,0.021,0,0.038,0,0.059c0,2.234,1.588,4.099,3.699,4.522
		c-0.388,0.104-0.794,0.161-1.213,0.161c-0.301,0-0.588-0.029-0.871-0.083c0.588,1.832,2.292,3.167,4.308,3.203
		c-1.576,1.237-3.564,1.975-5.727,1.975c-0.37,0-0.738-0.021-1.1-0.066c2.042,1.31,4.467,2.072,7.073,2.072
		c8.481,0,13.119-7.027,13.119-13.122c0-0.199-0.004-0.398-0.013-0.596C25.839,10.764,26.62,9.953,27.238,9.029z"/>
</g>
</svg>
