<?xml version="1.0" encoding="utf-8"?>
<!-- Generator: Adobe Illustrator 15.1.0, SVG Export Plug-In . SVG Version: 6.00 Build 0)  -->
<!DOCTYPE svg PUBLIC "-//W3C//DTD SVG 1.1//EN" "http://www.w3.org/Graphics/SVG/1.1/DTD/svg11.dtd">
<svg version="1.1" id="Layer_1" xmlns="http://www.w3.org/2000/svg" xmlns:xlink="http://www.w3.org/1999/xlink" x="0px" y="0px"
	 width="88px" height="64px" viewBox="0 0 88 64" enable-background="new 0 0 88 64" xml:space="preserve">
<g opacity="0.5">
	<path fill="#E6E7E8" d="M44.854,22.004v20.167c0,12.563-9.669,19.918-21.49,19.918c-11.984,0-21.655-7.354-21.655-19.918V22.004
		c0-12.48,9.671-19.919,21.655-19.919C35.184,2.085,44.854,9.524,44.854,22.004z M33.035,43.495
		c0.165-1.405,0.248-2.894,0.248-4.629V25.393c0-1.652-0.083-3.223-0.248-4.71c-0.579-5.208-4.629-7.77-9.671-7.77
		c-5.29,0-9.174,2.562-9.752,7.77c-0.166,1.487-0.248,3.058-0.248,4.71v13.473c0,1.735,0.083,3.224,0.248,4.629
		c0.578,5.041,4.463,7.769,9.752,7.769C28.406,51.264,32.456,48.536,33.035,43.495z"/>
	<path fill="#E6E7E8" d="M55.354,12.748V3.077h20.414v48.351H85.77v9.506H54.195v-9.506h9.755v-38.68H55.354z"/>
</g>
</svg>
