<?xml version="1.0" encoding="utf-8"?>
<!-- Generator: Adobe Illustrator 15.1.0, SVG Export Plug-In . SVG Version: 6.00 Build 0)  -->
<!DOCTYPE svg PUBLIC "-//W3C//DTD SVG 1.1//EN" "http://www.w3.org/Graphics/SVG/1.1/DTD/svg11.dtd">
<svg version="1.1" id="Layer_1" xmlns="http://www.w3.org/2000/svg" xmlns:xlink="http://www.w3.org/1999/xlink" x="0px" y="0px"
	 width="95px" height="64px" viewBox="0 0 95 64" enable-background="new 0 0 95 64" xml:space="preserve">
<g opacity="0.5">
	<path fill="#E6E7E8" d="M44.816,21.922V42.09c0,12.564-9.671,19.92-21.491,19.92c-11.984,0-21.655-7.355-21.655-19.92V21.922
		c0-12.481,9.671-19.92,21.655-19.92C35.146,2.002,44.816,9.44,44.816,21.922z M32.996,43.413c0.166-1.405,0.248-2.894,0.248-4.629
		V25.311c0-1.653-0.082-3.224-0.248-4.711c-0.578-5.208-4.628-7.77-9.671-7.77c-5.29,0-9.175,2.562-9.753,7.77
		c-0.165,1.487-0.248,3.058-0.248,4.711v13.474c0,1.734,0.083,3.224,0.248,4.629c0.578,5.042,4.463,7.77,9.753,7.77
		C28.368,51.182,32.418,48.455,32.996,43.413z"/>
	<path fill="#E6E7E8" d="M63.238,43.908c0.332,4.877,3.639,7.355,8.598,7.355c5.373,0,8.762-3.719,8.846-9.009
		c-0.248-9.258-8.846-10.58-16.285-9.258v-1.736l10.664-18.35H54.645V3.076h36.781v1.735L78.861,24.98
		c9.258,1.57,13.474,9.174,13.474,17.192c0,10.249-7.272,19.755-20.334,19.755c-10.828,0-19.176-6.86-19.589-18.02L63.238,43.908
		L63.238,43.908z"/>
</g>
</svg>
