<?xml version="1.0" encoding="utf-8"?>
<!-- Generator: Adobe Illustrator 15.1.0, SVG Export Plug-In . SVG Version: 6.00 Build 0)  -->
<!DOCTYPE svg PUBLIC "-//W3C//DTD SVG 1.1//EN" "http://www.w3.org/Graphics/SVG/1.1/DTD/svg11.dtd">
<svg version="1.1" id="Layer_1" xmlns="http://www.w3.org/2000/svg" xmlns:xlink="http://www.w3.org/1999/xlink" x="0px" y="0px"
	 width="48.333px" height="789.118px" viewBox="0 0 48.333 789.118" enable-background="new 0 0 48.333 789.118"
	 xml:space="preserve">
<g>
	<g>
		<path fill="#EC008C" d="M7.653,14.929L6.771,16.81H5.189v-0.194l4.202-8.95h0.7l4.176,8.95v0.194h-1.569l-0.895-1.881H7.653z
			 M8.146,13.658h3.178l-1.583-3.631L8.146,13.658z"/>
		<path fill="#EC008C" d="M13.83,9.066V7.73h6.744v1.336h-2.633v7.743h-1.479V9.066H13.83z"/>
		<path fill="#EC008C" d="M23.469,15.448h3.904v1.362h-5.421V7.73h1.518V15.448z"/>
	</g>
	<g>
		<path fill="#EC008C" d="M10.377,32.535c-2.49,0-4.604-1.738-4.604-4.695s2.166-4.695,4.63-4.695c2.477,0,4.617,1.738,4.617,4.695
			C15.02,30.602,13.113,32.535,10.377,32.535z M10.403,31.108c1.699,0,3.113-1.154,3.113-3.269c0-2.075-1.401-3.281-3.1-3.281
			c-1.712,0-3.113,1.18-3.113,3.281C7.303,29.954,8.69,31.108,10.403,31.108z"/>
		<path fill="#EC008C" d="M24.142,32.158v0.221h-1.531l-2.257-3.165h-1.997v3.165h-1.518V23.3h3.749
			c1.971,0,3.151,1.336,3.151,2.957c0,1.258-0.752,2.309-1.906,2.724L24.142,32.158z M20.575,27.969
			c0.986,0,1.699-0.713,1.699-1.699c0-0.947-0.701-1.66-1.699-1.66h-2.244v3.359H20.575z"/>
		<path fill="#EC008C" d="M29.008,23.313c2.827,0,4.436,2.127,4.436,4.514c0,2.386-1.582,4.552-4.436,4.552h-3.281v-9.066H29.008z
			 M28.982,31.004c1.88,0,2.957-1.453,2.957-3.165s-1.089-3.165-2.944-3.165h-1.764v6.329H28.982z"/>
	</g>
	<g>
		<path fill="#EC008C" d="M7.822,46.585h3.904v1.362H6.304v-9.079h1.518V46.585z"/>
		<path fill="#EC008C" d="M14.983,46.066l-0.882,1.881H12.52v-0.194l4.202-8.95h0.7l4.176,8.95v0.194h-1.569l-0.895-1.881H14.983z
			 M15.477,44.795h3.178l-1.583-3.631L15.477,44.795z"/>
		<path fill="#EC008C" d="M26.439,42.228l1.05-1.738l1.051-1.622h1.608v0.221l-2.814,4.06l3.139,4.591v0.208h-1.608l-1.271-1.972
			l-1.142-1.854H26.4l-1.115,1.816l-1.31,2.01h-1.608V47.74l3.152-4.591l-2.828-4.06v-0.221h1.622l1.063,1.66l1.024,1.699H26.439z"
			/>
	</g>
	<g>
		<path fill="#EC008C" d="M9.599,54.451c2.827,0,4.436,2.127,4.436,4.514c0,2.386-1.582,4.552-4.436,4.552H6.317v-9.066H9.599z
			 M9.573,62.142c1.88,0,2.957-1.453,2.957-3.165s-1.089-3.165-2.944-3.165H7.822v6.329H9.573z"/>
		<path fill="#EC008C" d="M20.963,59.989h-3.606v3.528h-1.504v-9.079h5.473v1.323h-3.969v2.892h3.606V59.989z"/>
		<path fill="#EC008C" d="M28.799,54.593l2.179,6.161h0.026l0.908-3.255l0.96-3.061h1.595v0.221l-3.022,8.923h-0.778l-2.192-5.824
			h-0.026l-2.192,5.824h-0.83l-3.009-8.923v-0.221h1.57l0.985,3.061l0.947,3.269h0.026l2.179-6.174H28.799z"/>
	</g>
	<g>
		<path fill="#EC008C" d="M7.822,77.724h3.904v1.362H6.304v-9.079h1.518V77.724z"/>
		<path fill="#EC008C" d="M14.97,77.205l-0.882,1.881h-1.582v-0.194l4.202-8.95h0.7l4.176,8.95v0.194h-1.569l-0.895-1.881H14.97z
			 M15.463,75.934h3.178l-1.583-3.631L15.463,75.934z"/>
		<path fill="#EC008C" d="M23.702,76.505c0.065,1.024,1.181,1.401,2.166,1.401c0.96,0,2.102-0.286,2.102-1.414
			c0-1.193-1.232-1.31-2.283-1.414c-1.66-0.143-3.307-0.674-3.307-2.49c0-1.868,1.647-2.75,3.411-2.75
			c1.725,0,3.359,0.778,3.398,2.633h-1.427c-0.064-0.973-1.089-1.284-1.984-1.284c-0.83,0-1.906,0.337-1.906,1.362
			c0,1.025,1.024,1.155,2.075,1.297c1.842,0.208,3.528,0.571,3.528,2.659c0,1.998-1.881,2.75-3.58,2.75
			c-1.777,0.039-3.632-0.843-3.671-2.75H23.702z"/>
	</g>
	<g>
		<path fill="#EC008C" d="M9.599,85.59c2.827,0,4.436,2.127,4.436,4.514c0,2.386-1.582,4.552-4.436,4.552H6.317V85.59H9.599z
			 M9.573,93.281c1.88,0,2.957-1.453,2.957-3.165s-1.089-3.165-2.944-3.165H7.822v6.329H9.573z"/>
		<path fill="#EC008C" d="M21.378,86.9h-4.008V89.3h3.787v1.336h-3.787v2.646h4.085v1.375h-5.603v-9.079h5.525V86.9z"/>
		<path fill="#EC008C" d="M24.779,88.482l0.104,2.879v3.294h-1.492v-9.105h0.545l5.512,6.109l-0.104-2.775v-3.308h1.504v9.092H30.33
			L24.779,88.482z"/>
	</g>
	<g>
		<path fill="#EC008C" d="M6.304,110.225v-9.079h3.761c2.023,0,3.204,1.479,3.204,3.204c0,1.699-1.206,3.152-3.204,3.152H7.822
			v2.724H6.304z M10.065,106.178c1.024,0,1.751-0.817,1.751-1.867c0-1.051-0.7-1.855-1.751-1.855h-2.27v3.722H10.065z"/>
		<path fill="#EC008C" d="M20.444,110.225v-4.047h-4.15v4.047h-1.504v-9.079h1.504v3.645h4.15v-3.645h1.518v9.079H20.444z"/>
		<path fill="#EC008C" d="M27.373,104.505l1.05-1.738l1.051-1.622h1.608v0.221l-2.814,4.06l3.139,4.591v0.208h-1.608l-1.271-1.972
			l-1.142-1.854h-0.052l-1.115,1.816l-1.31,2.01H23.3v-0.208l3.152-4.591l-2.828-4.06v-0.221h1.622l1.063,1.66l1.024,1.699H27.373z"
			/>
	</g>
	<g>
		<path fill="#EC008C" d="M12.374,122.772c0,1.984-1.518,3.152-3.437,3.152c-1.907,0-3.359-1.167-3.359-3.152v-1.025h1.414v0.999
			c0,1.193,0.804,1.829,1.945,1.829c1.142,0,1.933-0.648,1.933-1.829v-4.721H8.95v-1.31h3.424V122.772z"/>
		<path fill="#EC008C" d="M19.757,122.266h-3.606v3.528h-1.504v-9.079h5.473v1.323h-3.969v2.892h3.606V122.266z"/>
		<path fill="#EC008C" d="M23.209,120.736c0.688,0,1.375-0.013,1.777-0.221c0.532-0.285,0.791-1.206,1.038-2.153
			c0.324-1.167,1.024-1.984,2.892-1.634v1.038c-0.908-0.065-1.232,0.104-1.504,1.038c-0.272,0.986-0.571,1.868-1.18,2.425
			l2.983,4.345v0.221h-1.712l-2.594-3.969c-0.389,0.143-1.258,0.143-1.699,0.143v3.826h-1.518v-9.079h1.518V120.736z"/>
	</g>
	<g>
		<path fill="#EC008C" d="M10.079,140.144v1.219H5.694v-1.219h1.44v-6.653H5.812v-1.207h4.15v1.207H8.639v6.653H10.079z"/>
		<path fill="#EC008C" d="M13.478,139.482l-0.882,1.881h-1.582v-0.194l4.202-8.95h0.7l4.176,8.95v0.194h-1.569l-0.895-1.881H13.478z
			 M13.971,138.211h3.178l-1.583-3.631L13.971,138.211z"/>
		<path fill="#EC008C" d="M27.022,141.363v-4.047h-4.15v4.047h-1.504v-9.079h1.504v3.645h4.15v-3.645h1.518v9.079H27.022z"/>
	</g>
	<g>
		<path fill="#EC008C" d="M14.242,147.827h0.558v9.105h-1.517v-5.681l-2.62,3.359h-0.208l-2.633-3.359v5.681H6.304v-9.105h0.558
			l3.696,4.695L14.242,147.827z"/>
		<path fill="#EC008C" d="M18.123,154.351c0.065,1.024,1.181,1.401,2.166,1.401c0.96,0,2.102-0.286,2.102-1.414
			c0-1.193-1.232-1.31-2.283-1.414c-1.66-0.143-3.307-0.674-3.307-2.49c0-1.868,1.647-2.75,3.411-2.75
			c1.725,0,3.359,0.778,3.398,2.633h-1.427c-0.064-0.973-1.089-1.284-1.984-1.284c-0.83,0-1.906,0.337-1.906,1.362
			c0,1.025,1.024,1.155,2.075,1.297c1.842,0.208,3.528,0.571,3.528,2.659c0,1.998-1.881,2.75-3.58,2.75
			c-1.777,0.039-3.632-0.843-3.671-2.75H18.123z"/>
		<path fill="#EC008C" d="M25.713,156.932v-9.079h3.761c2.023,0,3.204,1.479,3.204,3.204c0,1.699-1.206,3.152-3.204,3.152h-2.244
			v2.724H25.713z M29.475,152.885c1.024,0,1.751-0.817,1.751-1.867c0-1.051-0.7-1.855-1.751-1.855h-2.27v3.722H29.475z"/>
	</g>
	<g>
		<path fill="#EC008C" d="M9.599,163.435c2.827,0,4.436,2.127,4.436,4.514c0,2.386-1.582,4.552-4.436,4.552H6.317v-9.066H9.599z
			 M9.573,171.126c1.88,0,2.957-1.453,2.957-3.165s-1.089-3.165-2.944-3.165H7.822v6.329H9.573z"/>
		<path fill="#EC008C" d="M14.647,164.758v-1.336h6.744v1.336h-2.633v7.743H17.28v-7.743H14.647z"/>
		<path fill="#EC008C" d="M28.735,163.578l2.179,6.161h0.026l0.908-3.255l0.96-3.061h1.595v0.221l-3.022,8.923h-0.778l-2.192-5.824
			h-0.026l-2.192,5.824h-0.83l-3.009-8.923v-0.221h1.57l0.985,3.061l0.947,3.269h0.026l2.179-6.174H28.735z"/>
	</g>
	<g>
		<path fill="#EC008C" d="M14.242,178.964h0.558v9.105h-1.517v-5.681l-2.62,3.359h-0.208l-2.633-3.359v5.681H6.304v-9.105h0.558
			l3.696,4.695L14.242,178.964z"/>
		<path fill="#EC008C" d="M21.236,178.887c1.777,0,3.619,0.985,4.099,3.035h-1.453c-0.454-1.128-1.466-1.647-2.659-1.66
			c-1.855,0-3.087,1.349-3.087,3.282c0,1.803,1.232,3.242,3.087,3.242c1.245,0,2.295-0.609,2.698-1.815h1.465
			c-0.454,2.218-2.322,3.19-4.163,3.19c-2.464,0-4.604-1.699-4.604-4.617C16.619,180.612,18.759,178.887,21.236,178.887z"/>
		<path fill="#EC008C" d="M31.2,188.225c-2.49,0-4.604-1.738-4.604-4.695s2.166-4.695,4.63-4.695c2.477,0,4.617,1.738,4.617,4.695
			C35.843,186.292,33.937,188.225,31.2,188.225z M31.226,186.798c1.699,0,3.113-1.154,3.113-3.269c0-2.075-1.401-3.281-3.1-3.281
			c-1.712,0-3.113,1.18-3.113,3.281C28.126,185.644,29.514,186.798,31.226,186.798z"/>
	</g>
	<g>
		<path fill="#EC008C" d="M11.83,195.883H7.822v2.399h3.787v1.336H7.822v2.646h4.085v1.375H6.304v-9.079h5.525V195.883z"/>
		<path fill="#EC008C" d="M19.471,194.715l2.179,6.161h0.026l0.908-3.255l0.96-3.061h1.595v0.221l-3.022,8.923h-0.778l-2.192-5.824
			h-0.026l-2.192,5.824h-0.83l-3.009-8.923v-0.221h1.57l0.985,3.061l0.947,3.269h0.026l2.179-6.174H19.471z"/>
		<path fill="#EC008C" d="M33.872,203.418v0.221h-1.531l-2.257-3.165h-1.997v3.165H26.57v-9.079h3.749
			c1.971,0,3.151,1.336,3.151,2.957c0,1.258-0.752,2.309-1.906,2.724L33.872,203.418z M30.305,199.229
			c0.986,0,1.699-0.713,1.699-1.699c0-0.947-0.701-1.66-1.699-1.66h-2.244v3.359H30.305z"/>
	</g>
	<g>
		<path fill="#EC008C" d="M7.238,216.629c0.065,1.024,1.181,1.401,2.166,1.401c0.96,0,2.101-0.286,2.101-1.414
			c0-1.193-1.232-1.31-2.282-1.414c-1.66-0.143-3.308-0.674-3.308-2.49c0-1.868,1.647-2.75,3.411-2.75
			c1.725,0,3.359,0.778,3.398,2.633h-1.426c-0.065-0.973-1.09-1.284-1.985-1.284c-0.83,0-1.906,0.337-1.906,1.362
			c0,1.025,1.024,1.155,2.075,1.297c1.842,0.208,3.528,0.571,3.528,2.659c0,1.998-1.881,2.75-3.58,2.75
			c-1.777,0.039-3.631-0.843-3.67-2.75H7.238z"/>
		<path fill="#EC008C" d="M19.938,215.682h-3.606v3.528h-1.504v-9.079h5.473v1.323h-3.969v2.892h3.606V215.682z"/>
		<path fill="#EC008C" d="M25.998,219.366c-2.49,0-4.604-1.738-4.604-4.695s2.166-4.695,4.63-4.695c2.477,0,4.617,1.738,4.617,4.695
			C30.641,217.433,28.734,219.366,25.998,219.366z M26.023,217.939c1.699,0,3.113-1.154,3.113-3.269c0-2.075-1.401-3.281-3.1-3.281
			c-1.712,0-3.113,1.18-3.113,3.281C22.923,216.785,24.311,217.939,26.023,217.939z"/>
	</g>
	<g>
		<path fill="#EC008C" d="M6.304,234.778v-9.079h3.761c2.023,0,3.204,1.479,3.204,3.204c0,1.699-1.206,3.152-3.204,3.152H7.822
			v2.724H6.304z M10.065,230.731c1.024,0,1.751-0.817,1.751-1.867c0-1.051-0.7-1.855-1.751-1.855h-2.27v3.722H10.065z"/>
		<path fill="#EC008C" d="M20.431,234.778v-4.047h-4.15v4.047h-1.504v-9.079h1.504v3.645h4.15v-3.645h1.518v9.079H20.431z"/>
		<path fill="#EC008C" d="M25.804,233.417h3.904v1.362h-5.421v-9.079h1.518V233.417z"/>
	</g>
	<g>
		<path fill="#EC008C" d="M14.242,241.242h0.558v9.105h-1.517v-5.681l-2.62,3.359h-0.208l-2.633-3.359v5.681H6.304v-9.105h0.558
			l3.696,4.695L14.242,241.242z"/>
		<path fill="#EC008C" d="M20.847,249.127v1.219h-4.384v-1.219h1.44v-6.653H16.58v-1.207h4.15v1.207h-1.323v6.653H20.847z"/>
		<path fill="#EC008C" d="M24.247,248.466l-0.882,1.881h-1.582v-0.194l4.202-8.95h0.7l4.176,8.95v0.194h-1.569l-0.895-1.881H24.247z
			 M24.74,247.195h3.178l-1.583-3.631L24.74,247.195z"/>
	</g>
	<g>
		<path fill="#EC008C" d="M7.238,263.335c0.065,1.024,1.181,1.401,2.166,1.401c0.96,0,2.101-0.286,2.101-1.414
			c0-1.193-1.232-1.31-2.282-1.414c-1.66-0.143-3.308-0.674-3.308-2.49c0-1.868,1.647-2.75,3.411-2.75
			c1.725,0,3.359,0.778,3.398,2.633h-1.426c-0.065-0.973-1.09-1.284-1.985-1.284c-0.83,0-1.906,0.337-1.906,1.362
			c0,1.025,1.024,1.155,2.075,1.297c1.842,0.208,3.528,0.571,3.528,2.659c0,1.998-1.881,2.75-3.58,2.75
			c-1.777,0.039-3.631-0.843-3.67-2.75H7.238z"/>
		<path fill="#EC008C" d="M20.354,258.16h-4.008v2.399h3.787v1.336h-3.787v2.646h4.085v1.375h-5.603v-9.079h5.525V258.16z"/>
		<path fill="#EC008C" d="M23.961,264.035l-0.882,1.881h-1.582v-0.194l4.202-8.95h0.7l4.176,8.95v0.194h-1.569l-0.895-1.881H23.961z
			 M24.455,262.764h3.178l-1.583-3.631L24.455,262.764z"/>
	</g>
	<g>
		<path fill="#EC008C" d="M10.39,272.302c1.777,0,3.619,0.985,4.099,3.035h-1.453c-0.454-1.128-1.466-1.647-2.659-1.66
			c-1.855,0-3.087,1.349-3.087,3.282c0,1.803,1.232,3.242,3.087,3.242c1.245,0,2.295-0.609,2.698-1.815h1.465
			c-0.454,2.218-2.322,3.19-4.163,3.19c-2.464,0-4.604-1.699-4.604-4.617C5.772,274.027,7.913,272.302,10.39,272.302z"/>
		<path fill="#EC008C" d="M17.773,280.123h3.904v1.362h-5.421v-9.079h1.518V280.123z"/>
		<path fill="#EC008C" d="M21.329,273.741v-1.336h6.744v1.336H25.44v7.743h-1.479v-7.743H21.329z"/>
	</g>
	<g>
		<path fill="#EC008C" d="M11.777,292.333c0.947,0.324,1.466,1.077,1.466,2.101c0,1.622-1.115,2.62-2.879,2.62h-4.06v-9.079h3.684
			c1.647,0,2.853,0.869,2.853,2.581C12.841,291.321,12.491,291.982,11.777,292.333z M7.809,289.285v2.555h2.075
			c0.869,0,1.466-0.363,1.479-1.245c0-0.895-0.597-1.31-1.479-1.31H7.809z M7.809,293.072v2.659h2.464
			c0.843,0,1.44-0.428,1.479-1.297c0-0.454-0.156-0.817-0.467-1.076c-0.35-0.26-0.765-0.286-1.18-0.286H7.809z"/>
		<path fill="#EC008C" d="M19.122,297.209c-2.49,0-4.604-1.738-4.604-4.695s2.166-4.695,4.63-4.695c2.477,0,4.617,1.738,4.617,4.695
			C23.765,295.277,21.858,297.209,19.122,297.209z M19.147,295.783c1.699,0,3.113-1.154,3.113-3.269c0-2.075-1.401-3.281-3.1-3.281
			c-1.712,0-3.113,1.18-3.113,3.281C16.047,294.628,17.435,295.783,19.147,295.783z"/>
		<path fill="#EC008C" d="M26.465,294.473c0.065,1.024,1.181,1.401,2.166,1.401c0.96,0,2.101-0.286,2.101-1.414
			c0-1.193-1.232-1.31-2.282-1.414c-1.66-0.143-3.308-0.674-3.308-2.49c0-1.868,1.647-2.75,3.411-2.75
			c1.725,0,3.359,0.778,3.398,2.633h-1.426c-0.065-0.973-1.09-1.284-1.985-1.284c-0.83,0-1.906,0.337-1.906,1.362
			c0,1.025,1.024,1.155,2.075,1.297c1.842,0.208,3.528,0.571,3.528,2.659c0,1.998-1.881,2.75-3.58,2.75
			c-1.777,0.039-3.631-0.843-3.67-2.75H26.465z"/>
	</g>
	<g>
		<path fill="#EC008C" d="M10.079,311.404v1.219H5.694v-1.219h1.44v-6.653H5.812v-1.207h4.15v1.207H8.639v6.653H10.079z"/>
		<path fill="#EC008C" d="M13.478,310.742l-0.882,1.881h-1.582v-0.194l4.202-8.95h0.7l4.176,8.95v0.194h-1.569l-0.895-1.881H13.478z
			 M13.971,309.471h3.178l-1.583-3.631L13.971,309.471z"/>
		<path fill="#EC008C" d="M24.662,303.557c2.827,0,4.436,2.127,4.436,4.514c0,2.386-1.582,4.552-4.436,4.552H21.38v-9.066H24.662z
			 M24.636,311.248c1.88,0,2.957-1.453,2.957-3.165s-1.089-3.165-2.944-3.165h-1.764v6.329H24.636z"/>
	</g>
	<g>
		<path fill="#EC008C" d="M7.822,326.832h3.904v1.362H6.304v-9.079h1.518V326.832z"/>
		<path fill="#EC008C" d="M16.955,318.998c1.803,0,3.515,0.83,4.073,2.84h-1.492c-0.506-1.05-1.388-1.479-2.594-1.479
			c-1.906,0-3.048,1.466-3.048,3.282c0,1.919,1.18,3.294,3.048,3.294c1.557,0,2.685-0.623,2.932-2.36h-2.828v-1.284h4.254
			c0.039,0.869-0.026,1.673-0.324,2.464c-0.687,1.725-2.244,2.555-4.034,2.555c-2.477,0-4.578-1.751-4.578-4.669
			C12.363,320.736,14.516,318.998,16.955,318.998z"/>
		<path fill="#EC008C" d="M24.13,326.312l-0.882,1.881h-1.582v-0.194l4.202-8.95h0.7l4.176,8.95v0.194h-1.569l-0.895-1.881H24.13z
			 M24.623,325.042h3.178l-1.583-3.631L24.623,325.042z"/>
	</g>
	<g>
		<path fill="#EC008C" d="M10.39,334.579c1.777,0,3.619,0.985,4.099,3.035h-1.453c-0.454-1.128-1.466-1.647-2.659-1.66
			c-1.855,0-3.087,1.349-3.087,3.282c0,1.803,1.232,3.242,3.087,3.242c1.245,0,2.295-0.609,2.698-1.815h1.465
			c-0.454,2.218-2.322,3.19-4.163,3.19c-2.464,0-4.604-1.699-4.604-4.617C5.772,336.304,7.913,334.579,10.39,334.579z"/>
		<path fill="#EC008C" d="M19.277,341.181l1.193-3.294l1.31-3.204h1.595v0.221l-3.813,8.936H18.94l-3.852-8.936v-0.221h1.608
			l1.297,3.139l1.245,3.359H19.277z"/>
		<path fill="#EC008C" d="M28.462,334.566c1.803,0,3.515,0.83,4.073,2.84h-1.492c-0.506-1.05-1.388-1.479-2.594-1.479
			c-1.906,0-3.048,1.466-3.048,3.282c0,1.919,1.18,3.294,3.048,3.294c1.557,0,2.685-0.623,2.932-2.36h-2.828v-1.284h4.254
			c0.039,0.869-0.026,1.673-0.324,2.464c-0.687,1.725-2.244,2.555-4.034,2.555c-2.477,0-4.578-1.751-4.578-4.669
			C23.871,336.304,26.024,334.566,28.462,334.566z"/>
	</g>
	<g>
		<path fill="#EC008C" d="M11.415,355.803H7.809v3.528H6.304v-9.079h5.473v1.323H7.809v2.892h3.606V355.803z"/>
		<path fill="#EC008C" d="M14.867,357.969h3.904v1.362h-5.421v-9.079h1.518V357.969z"/>
		<path fill="#EC008C" d="M21.652,357.969h3.904v1.362h-5.421v-9.079h1.518V357.969z"/>
	</g>
	<g>
		<path fill="#EC008C" d="M7.238,372.319c0.065,1.024,1.181,1.401,2.166,1.401c0.96,0,2.101-0.286,2.101-1.414
			c0-1.193-1.232-1.31-2.282-1.414c-1.66-0.143-3.308-0.674-3.308-2.49c0-1.868,1.647-2.75,3.411-2.75
			c1.725,0,3.359,0.778,3.398,2.633h-1.426c-0.065-0.973-1.09-1.284-1.985-1.284c-0.83,0-1.906,0.337-1.906,1.362
			c0,1.025,1.024,1.155,2.075,1.297c1.842,0.208,3.528,0.571,3.528,2.659c0,1.998-1.881,2.75-3.58,2.75
			c-1.777,0.039-3.631-0.843-3.67-2.75H7.238z"/>
		<path fill="#EC008C" d="M16.346,373.539h3.904v1.362h-5.421v-9.079h1.518V373.539z"/>
		<path fill="#EC008C" d="M25.492,365.718c1.777,0,3.619,0.985,4.099,3.035h-1.453c-0.454-1.128-1.466-1.647-2.659-1.66
			c-1.855,0-3.087,1.349-3.087,3.282c0,1.803,1.232,3.242,3.087,3.242c1.245,0,2.295-0.609,2.698-1.815h1.465
			c-0.454,2.218-2.322,3.19-4.163,3.19c-2.464,0-4.604-1.699-4.604-4.617C20.875,367.443,23.015,365.718,25.492,365.718z"/>
	</g>
	<g>
		<path fill="#EC008C" d="M11.777,385.748c0.947,0.324,1.466,1.077,1.466,2.101c0,1.622-1.115,2.62-2.879,2.62h-4.06v-9.079h3.684
			c1.647,0,2.853,0.869,2.853,2.581C12.841,384.736,12.491,385.397,11.777,385.748z M7.809,382.7v2.555h2.075
			c0.869,0,1.466-0.363,1.479-1.245c0-0.895-0.597-1.31-1.479-1.31H7.809z M7.809,386.487v2.659h2.464
			c0.843,0,1.44-0.428,1.479-1.297c0-0.454-0.156-0.817-0.467-1.076c-0.35-0.26-0.765-0.286-1.18-0.286H7.809z"/>
		<path fill="#EC008C" d="M20.379,381.545l2.179,6.161h0.026l0.908-3.255l0.96-3.061h1.595v0.221l-3.022,8.923h-0.778l-2.192-5.824
			h-0.026l-2.192,5.824h-0.83l-3.009-8.923v-0.221h1.57l0.985,3.061l0.947,3.269h0.026l2.179-6.174H20.379z"/>
		<path fill="#EC008C" d="M31.486,389.25v1.219h-4.384v-1.219h1.44v-6.653h-1.323v-1.207h4.15v1.207h-1.323v6.653H31.486z"/>
	</g>
	<g>
		<path fill="#EC008C" d="M11.959,406.037v-4.047h-4.15v4.047H6.304v-9.079h1.504v3.645h4.15v-3.645h1.518v9.079H11.959z"/>
		<path fill="#EC008C" d="M17.202,399.863l0.104,2.879v3.294h-1.492v-9.105h0.545l5.512,6.109l-0.104-2.775v-3.308h1.504v9.092
			h-0.519L17.202,399.863z"/>
		<path fill="#EC008C" d="M27.127,404.675h3.904v1.362H25.61v-9.079h1.518V404.675z"/>
	</g>
	<g>
		<path fill="#EC008C" d="M5.422,413.863v-1.336h6.744v1.336H9.534v7.743H8.055v-7.743H5.422z"/>
		<path fill="#EC008C" d="M13.557,421.606v-9.079h3.761c2.023,0,3.204,1.479,3.204,3.204c0,1.699-1.206,3.152-3.204,3.152h-2.244
			v2.724H13.557z M17.318,417.56c1.025,0,1.751-0.817,1.751-1.867c0-1.051-0.7-1.855-1.751-1.855h-2.27v3.722H17.318z"/>
		<path fill="#EC008C" d="M22.858,419.726l-0.882,1.881h-1.582v-0.194l4.202-8.95h0.7l4.176,8.95v0.194h-1.569l-0.895-1.881H22.858z
			 M23.352,418.455h3.178l-1.583-3.631L23.352,418.455z"/>
	</g>
	<g>
		<path fill="#EC008C" d="M7.238,434.595c0.065,1.024,1.181,1.401,2.166,1.401c0.96,0,2.101-0.286,2.101-1.414
			c0-1.193-1.232-1.31-2.282-1.414c-1.66-0.143-3.308-0.674-3.308-2.49c0-1.868,1.647-2.75,3.411-2.75
			c1.725,0,3.359,0.778,3.398,2.633h-1.426c-0.065-0.973-1.09-1.284-1.985-1.284c-0.83,0-1.906,0.337-1.906,1.362
			c0,1.025,1.024,1.155,2.075,1.297c1.842,0.208,3.528,0.571,3.528,2.659c0,1.998-1.881,2.75-3.58,2.75
			c-1.777,0.039-3.631-0.843-3.67-2.75H7.238z"/>
		<path fill="#EC008C" d="M16.112,435.295l-0.882,1.881h-1.582v-0.194l4.202-8.95h0.7l4.176,8.95v0.194h-1.569l-0.895-1.881H16.112z
			 M16.605,434.024h3.178l-1.583-3.631L16.605,434.024z"/>
		<path fill="#EC008C" d="M25.389,431.002l0.104,2.879v3.294h-1.492v-9.105h0.545l5.512,6.109l-0.104-2.775v-3.308h1.504v9.092
			H30.94L25.389,431.002z"/>
	</g>
	<g>
		<path fill="#EC008C" d="M9.599,443.682c2.827,0,4.436,2.127,4.436,4.514c0,2.386-1.582,4.552-4.436,4.552H6.317v-9.066H9.599z
			 M9.573,451.373c1.88,0,2.957-1.453,2.957-3.165s-1.089-3.165-2.944-3.165H7.822v6.329H9.573z"/>
		<path fill="#EC008C" d="M19.952,443.565c1.777,0,3.619,0.985,4.099,3.035h-1.453c-0.454-1.128-1.466-1.647-2.659-1.66
			c-1.855,0-3.087,1.349-3.087,3.282c0,1.803,1.232,3.242,3.087,3.242c1.245,0,2.295-0.609,2.698-1.815h1.465
			c-0.454,2.218-2.322,3.19-4.163,3.19c-2.464,0-4.604-1.699-4.604-4.617C15.334,445.291,17.475,443.565,19.952,443.565z"/>
		<path fill="#EC008C" d="M26.997,450.867l-0.882,1.881h-1.582v-0.194l4.202-8.95h0.7l4.176,8.95v0.194h-1.569l-0.895-1.881H26.997z
			 M27.49,449.596h3.178l-1.583-3.631L27.49,449.596z"/>
	</g>
	<g>
		<path fill="#EC008C" d="M14.242,459.209h0.558v9.105h-1.517v-5.681l-2.62,3.359h-0.208l-2.633-3.359v5.681H6.304v-9.105h0.558
			l3.696,4.695L14.242,459.209z"/>
		<path fill="#EC008C" d="M20.432,459.249c2.827,0,4.436,2.127,4.436,4.514c0,2.386-1.582,4.552-4.436,4.552H17.15v-9.066H20.432z
			 M20.406,466.939c1.88,0,2.957-1.453,2.957-3.165s-1.089-3.165-2.944-3.165h-1.764v6.329H20.406z"/>
		<path fill="#EC008C" d="M31.9,459.391l2.179,6.161h0.026l0.908-3.255l0.96-3.061h1.595v0.221l-3.022,8.923h-0.778l-2.192-5.824
			H31.55l-2.192,5.824h-0.83l-3.009-8.923v-0.221h1.569l0.985,3.061l0.947,3.269h0.026l2.179-6.174H31.9z"/>
	</g>
	<g>
		<path fill="#EC008C" d="M10.377,484.039c-2.49,0-4.604-1.738-4.604-4.695s2.166-4.695,4.63-4.695c2.477,0,4.617,1.738,4.617,4.695
			C15.02,482.106,13.113,484.039,10.377,484.039z M10.403,482.612c1.699,0,3.113-1.154,3.113-3.269c0-2.075-1.401-3.281-3.1-3.281
			c-1.712,0-3.113,1.18-3.113,3.281C7.303,481.458,8.69,482.612,10.403,482.612z"/>
		<path fill="#EC008C" d="M17.851,482.002l-0.882,1.881h-1.582v-0.194l4.202-8.95h0.7l4.176,8.95v0.194h-1.569l-0.895-1.881H17.851z
			 M18.344,480.731h3.178l-1.583-3.631L18.344,480.731z"/>
		<path fill="#EC008C" d="M27.257,478.825c0.688,0,1.375-0.013,1.777-0.221c0.532-0.285,0.791-1.206,1.038-2.153
			c0.324-1.167,1.024-1.984,2.892-1.634v1.038c-0.908-0.065-1.232,0.104-1.504,1.038c-0.272,0.986-0.571,1.868-1.18,2.425
			l2.983,4.345v0.221H31.55l-2.594-3.969c-0.389,0.143-1.258,0.143-1.699,0.143v3.826h-1.518v-9.079h1.518V478.825z"/>
	</g>
	<g>
		<path fill="#EC008C" d="M7.238,496.872c0.065,1.024,1.181,1.401,2.166,1.401c0.96,0,2.101-0.286,2.101-1.414
			c0-1.193-1.232-1.31-2.282-1.414c-1.66-0.143-3.308-0.674-3.308-2.49c0-1.868,1.647-2.75,3.411-2.75
			c1.725,0,3.359,0.778,3.398,2.633h-1.426c-0.065-0.973-1.09-1.284-1.985-1.284c-0.83,0-1.906,0.337-1.906,1.362
			c0,1.025,1.024,1.155,2.075,1.297c1.842,0.208,3.528,0.571,3.528,2.659c0,1.998-1.881,2.75-3.58,2.75
			c-1.777,0.039-3.631-0.843-3.67-2.75H7.238z"/>
		<path fill="#EC008C" d="M13.869,491.71v-1.336h6.744v1.336H17.98v7.743h-1.479v-7.743H13.869z"/>
		<path fill="#EC008C" d="M23.507,498.091h3.904v1.362H21.99v-9.079h1.518V498.091z"/>
	</g>
	<g>
		<path fill="#EC008C" d="M6.304,515.021v-9.079h3.761c2.023,0,3.204,1.479,3.204,3.204c0,1.699-1.206,3.152-3.204,3.152H7.822
			v2.724H6.304z M10.065,510.975c1.024,0,1.751-0.817,1.751-1.867c0-1.051-0.7-1.855-1.751-1.855h-2.27v3.722H10.065z"/>
		<path fill="#EC008C" d="M18.071,505.956c2.827,0,4.436,2.127,4.436,4.514c0,2.386-1.582,4.552-4.436,4.552h-3.282v-9.066H18.071z
			 M18.045,513.646c1.88,0,2.957-1.453,2.957-3.165s-1.089-3.165-2.944-3.165h-1.764v6.329H18.045z"/>
		<path fill="#EC008C" d="M27.036,509.302l1.05-1.738l1.051-1.622h1.608v0.221l-2.814,4.06l3.139,4.591v0.208h-1.608l-1.271-1.972
			l-1.142-1.854h-0.052l-1.115,1.816l-1.31,2.01h-1.608v-0.208l3.152-4.591l-2.828-4.06v-0.221h1.622l1.063,1.66l1.024,1.699H27.036
			z"/>
	</g>
	<g>
		<path fill="#EC008C" d="M14.242,521.485h0.558v9.105h-1.517v-5.681l-2.62,3.359h-0.208l-2.633-3.359v5.681H6.304v-9.105h0.558
			l3.696,4.695L14.242,521.485z"/>
		<path fill="#EC008C" d="M22.676,522.834h-4.008v2.399h3.787v1.336h-3.787v2.646h4.085v1.375h-5.603v-9.079h5.525V522.834z"/>
		<path fill="#EC008C" d="M32.613,521.485h0.558v9.105h-1.517v-5.681l-2.62,3.359h-0.208l-2.633-3.359v5.681h-1.518v-9.105h0.558
			l3.696,4.695L32.613,521.485z"/>
	</g>
	<g>
		<path fill="#EC008C" d="M10.39,536.978c1.777,0,3.619,0.985,4.099,3.035h-1.453c-0.454-1.128-1.466-1.647-2.659-1.66
			c-1.855,0-3.087,1.349-3.087,3.282c0,1.803,1.232,3.242,3.087,3.242c1.245,0,2.295-0.609,2.698-1.815h1.465
			c-0.454,2.218-2.322,3.19-4.163,3.19c-2.464,0-4.604-1.699-4.604-4.617C5.772,538.703,7.913,536.978,10.39,536.978z"/>
		<path fill="#EC008C" d="M17.773,544.798h3.904v1.362h-5.421v-9.079h1.518V544.798z"/>
		<path fill="#EC008C" d="M28.566,538.404h-4.008v2.399h3.787v1.336h-3.787v2.646h4.085v1.375h-5.603v-9.079h5.525V538.404z"/>
	</g>
	<g>
		<path fill="#EC008C" d="M7.238,559.147c0.065,1.024,1.181,1.401,2.166,1.401c0.96,0,2.101-0.286,2.101-1.414
			c0-1.193-1.232-1.31-2.282-1.414c-1.66-0.143-3.308-0.674-3.308-2.49c0-1.868,1.647-2.75,3.411-2.75
			c1.725,0,3.359,0.778,3.398,2.633h-1.426c-0.065-0.973-1.09-1.284-1.985-1.284c-0.83,0-1.906,0.337-1.906,1.362
			c0,1.025,1.024,1.155,2.075,1.297c1.842,0.208,3.528,0.571,3.528,2.659c0,1.998-1.881,2.75-3.58,2.75
			c-1.777,0.039-3.631-0.843-3.67-2.75H7.238z"/>
		<path fill="#EC008C" d="M20.989,558.707c0,1.984-1.518,3.152-3.437,3.152c-1.907,0-3.359-1.167-3.359-3.152v-1.025h1.414v0.999
			c0,1.193,0.804,1.829,1.945,1.829c1.142,0,1.933-0.648,1.933-1.829v-4.721h-1.919v-1.31h3.424V558.707z"/>
		<path fill="#EC008C" d="M23.196,558.681v-6.031h1.504v5.992c0,1.193,0.895,1.855,2.049,1.855c1.142,0,2.023-0.662,2.023-1.855
			v-5.992h1.492v6.031c0,2.023-1.583,3.165-3.515,3.165C24.792,561.845,23.196,560.704,23.196,558.681z"/>
	</g>
	<g>
		<path fill="#EC008C" d="M7.238,574.718c0.065,1.024,1.181,1.401,2.166,1.401c0.96,0,2.101-0.286,2.101-1.414
			c0-1.193-1.232-1.31-2.282-1.414c-1.66-0.143-3.308-0.674-3.308-2.49c0-1.868,1.647-2.75,3.411-2.75
			c1.725,0,3.359,0.778,3.398,2.633h-1.426c-0.065-0.973-1.09-1.284-1.985-1.284c-0.83,0-1.906,0.337-1.906,1.362
			c0,1.025,1.024,1.155,2.075,1.297c1.842,0.208,3.528,0.571,3.528,2.659c0,1.998-1.881,2.75-3.58,2.75
			c-1.777,0.039-3.631-0.843-3.67-2.75H7.238z"/>
		<path fill="#EC008C" d="M20.989,574.277c0,1.984-1.518,3.152-3.437,3.152c-1.907,0-3.359-1.167-3.359-3.152v-1.025h1.414v0.999
			c0,1.193,0.804,1.829,1.945,1.829c1.142,0,1.933-0.648,1.933-1.829v-4.721h-1.919v-1.31h3.424V574.277z"/>
		<path fill="#EC008C" d="M27.321,568.116c1.777,0,3.619,0.985,4.099,3.035h-1.453c-0.454-1.128-1.466-1.647-2.659-1.66
			c-1.855,0-3.087,1.349-3.087,3.282c0,1.803,1.232,3.242,3.087,3.242c1.245,0,2.295-0.609,2.698-1.815h1.465
			c-0.454,2.218-2.322,3.19-4.163,3.19c-2.464,0-4.604-1.699-4.604-4.617C22.704,569.841,24.844,568.116,27.321,568.116z"/>
	</g>
	<g>
		<path fill="#EC008C" d="M6.304,592.869v-9.079h3.761c2.023,0,3.204,1.479,3.204,3.204c0,1.699-1.206,3.152-3.204,3.152H7.822
			v2.724H6.304z M10.065,588.822c1.024,0,1.751-0.817,1.751-1.867c0-1.051-0.7-1.855-1.751-1.855h-2.27v3.722H10.065z"/>
		<path fill="#EC008C" d="M18.499,591.65v1.219h-4.384v-1.219h1.439v-6.654h-1.323v-1.207h4.15v1.207h-1.323v6.654H18.499z"/>
		<path fill="#EC008C" d="M19.5,585.126v-1.336h6.744v1.336h-2.633v7.743h-1.479v-7.743H19.5z"/>
	</g>
	<g>
		<path fill="#EC008C" d="M7.238,605.854c0.065,1.024,1.181,1.4,2.166,1.4c0.96,0,2.101-0.285,2.101-1.413
			c0-1.193-1.232-1.311-2.282-1.414c-1.66-0.143-3.308-0.675-3.308-2.49c0-1.867,1.647-2.75,3.411-2.75
			c1.725,0,3.359,0.778,3.398,2.634h-1.426c-0.065-0.974-1.09-1.284-1.985-1.284c-0.83,0-1.906,0.337-1.906,1.361
			s1.024,1.154,2.075,1.297c1.842,0.208,3.528,0.571,3.528,2.659c0,1.997-1.881,2.75-3.58,2.75c-1.777,0.038-3.631-0.844-3.67-2.75
			H7.238z"/>
		<path fill="#EC008C" d="M22.766,599.331h0.558v9.104h-1.517v-5.681l-2.62,3.359h-0.208l-2.633-3.359v5.681h-1.518v-9.104h0.558
			l3.696,4.694L22.766,599.331z"/>
		<path fill="#EC008C" d="M30.785,604.908h-3.606v3.527h-1.504v-9.079h5.473v1.323h-3.969v2.893h3.606V604.908z"/>
	</g>
	<g>
		<path fill="#EC008C" d="M14.242,614.901h0.558v9.104h-1.517v-5.681l-2.62,3.359h-0.208l-2.633-3.359v5.681H6.304v-9.104h0.558
			l3.696,4.694L14.242,614.901z"/>
		<path fill="#EC008C" d="M21.236,614.823c1.777,0,3.619,0.985,4.099,3.035h-1.453c-0.454-1.129-1.466-1.647-2.659-1.66
			c-1.855,0-3.087,1.349-3.087,3.281c0,1.803,1.232,3.242,3.087,3.242c1.245,0,2.295-0.609,2.698-1.815h1.465
			c-0.454,2.218-2.322,3.19-4.163,3.19c-2.464,0-4.604-1.699-4.604-4.617C16.619,616.548,18.759,614.823,21.236,614.823z"/>
		<path fill="#EC008C" d="M30.643,622.787v1.219h-4.384v-1.219h1.439v-6.654h-1.323v-1.206h4.15v1.206h-1.323v6.654H30.643z"/>
	</g>
	<g>
		<path fill="#EC008C" d="M7.238,636.995c0.065,1.024,1.181,1.4,2.166,1.4c0.96,0,2.101-0.285,2.101-1.413
			c0-1.193-1.232-1.311-2.282-1.414c-1.66-0.143-3.308-0.675-3.308-2.49c0-1.867,1.647-2.75,3.411-2.75
			c1.725,0,3.359,0.778,3.398,2.634h-1.426c-0.065-0.974-1.09-1.284-1.985-1.284c-0.83,0-1.906,0.337-1.906,1.361
			s1.024,1.154,2.075,1.297c1.842,0.208,3.528,0.571,3.528,2.659c0,1.997-1.881,2.75-3.58,2.75c-1.777,0.038-3.631-0.844-3.67-2.75
			H7.238z"/>
		<path fill="#EC008C" d="M16.216,633.402l0.104,2.88v3.294h-1.492v-9.104h0.545l5.512,6.108l-0.104-2.775v-3.308h1.504v9.092
			h-0.519L16.216,633.402z"/>
		<path fill="#EC008C" d="M26.011,637.695l-0.882,1.881h-1.582v-0.194l4.202-8.949h0.7l4.176,8.949v0.194h-1.569l-0.895-1.881
			H26.011z M26.504,636.425h3.178l-1.583-3.632L26.504,636.425z"/>
	</g>
	<g>
		<path fill="#EC008C" d="M13.606,654.922v0.221h-1.531l-2.257-3.165H7.822v3.165H6.304v-9.079h3.749
			c1.971,0,3.151,1.336,3.151,2.957c0,1.259-0.752,2.309-1.906,2.724L13.606,654.922z M10.04,650.732
			c0.986,0,1.699-0.713,1.699-1.698c0-0.947-0.701-1.66-1.699-1.66H7.796v3.358H10.04z"/>
		<path fill="#EC008C" d="M18.473,646.076c2.827,0,4.436,2.128,4.436,4.514c0,2.387-1.582,4.553-4.436,4.553h-3.282v-9.066H18.473z
			 M18.447,653.768c1.88,0,2.957-1.452,2.957-3.164c0-1.713-1.089-3.165-2.944-3.165h-1.764v6.329H18.447z"/>
		<path fill="#EC008C" d="M24.624,652.095v-6.031h1.504v5.992c0,1.193,0.895,1.854,2.049,1.854c1.142,0,2.023-0.661,2.023-1.854
			v-5.992h1.492v6.031c0,2.023-1.583,3.165-3.515,3.165C26.219,655.26,24.624,654.118,24.624,652.095z"/>
	</g>
	<g>
		<path fill="#EC008C" d="M11.777,665.994c0.947,0.324,1.466,1.076,1.466,2.101c0,1.621-1.115,2.62-2.879,2.62h-4.06v-9.079h3.684
			c1.647,0,2.853,0.869,2.853,2.581C12.841,664.982,12.491,665.644,11.777,665.994z M7.809,662.946v2.555h2.075
			c0.869,0,1.466-0.363,1.479-1.245c0-0.895-0.597-1.31-1.479-1.31H7.809z M7.809,666.733v2.658h2.464
			c0.843,0,1.44-0.428,1.479-1.297c0-0.454-0.156-0.817-0.467-1.076c-0.35-0.26-0.765-0.285-1.18-0.285H7.809z"/>
		<path fill="#EC008C" d="M16.501,664.541l0.104,2.88v3.294h-1.492v-9.104h0.545l5.512,6.108l-0.104-2.775v-3.308h1.504v9.092
			h-0.519L16.501,664.541z"/>
		<path fill="#EC008C" d="M26.297,668.834l-0.882,1.881h-1.582v-0.194l4.202-8.949h0.7l4.176,8.949v0.194h-1.569l-0.895-1.881
			H26.297z M26.79,667.563h3.178l-1.583-3.632L26.79,667.563z"/>
	</g>
	<g>
		<path fill="#EC008C" d="M10.079,685.064v1.219H5.694v-1.219h1.44v-6.654H5.812v-1.206h4.15v1.206H8.639v6.654H10.079z"/>
		<path fill="#EC008C" d="M13.115,680.109l0.104,2.88v3.294h-1.492v-9.104h0.545l5.512,6.108l-0.104-2.775v-3.308h1.504v9.092
			h-0.519L13.115,680.109z"/>
		<path fill="#EC008C" d="M24.817,677.217c2.827,0,4.436,2.128,4.436,4.514c0,2.387-1.582,4.553-4.436,4.553h-3.281v-9.066H24.817z
			 M24.792,684.908c1.88,0,2.957-1.452,2.957-3.164c0-1.713-1.089-3.165-2.944-3.165h-1.764v6.329H24.792z"/>
	</g>
	<g>
		<path fill="#EC008C" d="M11.959,701.852v-4.047h-4.15v4.047H6.304v-9.079h1.504v3.645h4.15v-3.645h1.518v9.079H11.959z"/>
		<path fill="#EC008C" d="M19.9,702.007c-2.49,0-4.604-1.737-4.604-4.694c0-2.958,2.166-4.695,4.63-4.695
			c2.477,0,4.617,1.737,4.617,4.695C24.543,700.074,22.636,702.007,19.9,702.007z M19.926,700.58c1.699,0,3.113-1.154,3.113-3.268
			c0-2.075-1.401-3.282-3.1-3.282c-1.712,0-3.113,1.181-3.113,3.282C16.826,699.426,18.213,700.58,19.926,700.58z"/>
		<path fill="#EC008C" d="M26.271,698.804v-6.031h1.504v5.992c0,1.193,0.895,1.854,2.049,1.854c1.142,0,2.023-0.661,2.023-1.854
			v-5.992h1.492v6.031c0,2.023-1.583,3.165-3.515,3.165C27.867,701.969,26.271,700.827,26.271,698.804z"/>
	</g>
	<g>
		<path fill="#EC008C" d="M14.242,708.317h0.558v9.104h-1.517v-5.681l-2.62,3.359h-0.208l-2.633-3.359v5.681H6.304v-9.104h0.558
			l3.696,4.694L14.242,708.317z"/>
		<path fill="#EC008C" d="M18.11,714.841c0.065,1.024,1.181,1.4,2.166,1.4c0.96,0,2.102-0.285,2.102-1.413
			c0-1.193-1.232-1.311-2.283-1.414c-1.66-0.143-3.307-0.675-3.307-2.49c0-1.867,1.647-2.75,3.411-2.75
			c1.725,0,3.359,0.778,3.398,2.634H22.17c-0.064-0.974-1.089-1.284-1.984-1.284c-0.83,0-1.906,0.337-1.906,1.361
			s1.024,1.154,2.075,1.297c1.842,0.208,3.528,0.571,3.528,2.659c0,1.997-1.881,2.75-3.58,2.75c-1.777,0.038-3.632-0.844-3.671-2.75
			H18.11z"/>
		<path fill="#EC008C" d="M28.398,712.454l1.128-2.152l1.18-1.959h1.608v0.221l-3.19,5.175v3.684H27.62v-3.684l-3.204-5.175v-0.221
			h1.621l1.219,2.023l1.089,2.088H28.398z"/>
	</g>
	<g>
		<path fill="#EC008C" d="M13.606,732.77v0.221h-1.531l-2.257-3.165H7.822v3.165H6.304v-9.079h3.749
			c1.971,0,3.151,1.336,3.151,2.957c0,1.259-0.752,2.309-1.906,2.724L13.606,732.77z M10.04,728.58c0.986,0,1.699-0.713,1.699-1.698
			c0-0.947-0.701-1.66-1.699-1.66H7.796v3.358H10.04z"/>
		<path fill="#EC008C" d="M16.086,730.409c0.065,1.024,1.181,1.4,2.166,1.4c0.96,0,2.102-0.285,2.102-1.413
			c0-1.193-1.232-1.311-2.283-1.414c-1.66-0.143-3.307-0.675-3.307-2.49c0-1.867,1.647-2.75,3.411-2.75
			c1.725,0,3.359,0.778,3.398,2.634h-1.427c-0.064-0.974-1.089-1.284-1.984-1.284c-0.83,0-1.906,0.337-1.906,1.361
			s1.024,1.154,2.075,1.297c1.842,0.208,3.528,0.571,3.528,2.659c0,1.997-1.881,2.75-3.58,2.75c-1.777,0.038-3.632-0.844-3.671-2.75
			H16.086z"/>
		<path fill="#EC008C" d="M28.994,724.066l2.179,6.161h0.026l0.908-3.255l0.96-3.062h1.595v0.221l-3.022,8.923h-0.778l-2.192-5.823
			h-0.026l-2.192,5.823h-0.83l-3.009-8.923v-0.221h1.569l0.985,3.062l0.947,3.268h0.026l2.179-6.174H28.994z"/>
	</g>
	<g>
		<path fill="#EC008C" d="M7.653,746.678l-0.882,1.881H5.189v-0.194l4.202-8.949h0.7l4.176,8.949v0.194h-1.569l-0.895-1.881H7.653z
			 M8.146,745.407h3.178l-1.583-3.632L8.146,745.407z"/>
		<path fill="#EC008C" d="M15.101,745.511v-6.031h1.504v5.992c0,1.193,0.895,1.854,2.049,1.854c1.142,0,2.023-0.661,2.023-1.854
			v-5.992h1.492v6.031c0,2.023-1.583,3.165-3.515,3.165C16.696,748.676,15.101,747.534,15.101,745.511z"/>
		<path fill="#EC008C" d="M25.35,745.978c0.065,1.024,1.181,1.4,2.166,1.4c0.96,0,2.102-0.285,2.102-1.413
			c0-1.193-1.232-1.311-2.283-1.414c-1.66-0.143-3.307-0.675-3.307-2.49c0-1.867,1.647-2.75,3.411-2.75
			c1.725,0,3.359,0.778,3.398,2.634h-1.427c-0.064-0.974-1.089-1.284-1.984-1.284c-0.83,0-1.906,0.337-1.906,1.361
			s1.024,1.154,2.075,1.297c1.842,0.208,3.528,0.571,3.528,2.659c0,1.997-1.881,2.75-3.58,2.75c-1.777,0.038-3.632-0.844-3.671-2.75
			H25.35z"/>
	</g>
	<g>
		<path fill="#EC008C" d="M11.777,759.408c0.947,0.324,1.466,1.076,1.466,2.101c0,1.621-1.115,2.62-2.879,2.62h-4.06v-9.079h3.684
			c1.647,0,2.853,0.869,2.853,2.581C12.841,758.396,12.491,759.058,11.777,759.408z M7.809,756.36v2.555h2.075
			c0.869,0,1.466-0.363,1.479-1.245c0-0.895-0.597-1.31-1.479-1.31H7.809z M7.809,760.147v2.658h2.464
			c0.843,0,1.44-0.428,1.479-1.297c0-0.454-0.156-0.817-0.467-1.076c-0.35-0.26-0.765-0.285-1.18-0.285H7.809z"/>
		<path fill="#EC008C" d="M18.395,755.062c2.827,0,4.436,2.128,4.436,4.514c0,2.387-1.582,4.553-4.436,4.553h-3.282v-9.066H18.395z
			 M18.369,762.754c1.88,0,2.957-1.452,2.957-3.164c0-1.713-1.089-3.165-2.944-3.165h-1.764v6.329H18.369z"/>
		<path fill="#EC008C" d="M26.167,762.767h3.904v1.362h-5.421v-9.079h1.518V762.767z"/>
	</g>
	<g>
		<path fill="#EC008C" d="M7.238,777.116c0.065,1.024,1.181,1.4,2.166,1.4c0.96,0,2.101-0.285,2.101-1.413
			c0-1.193-1.232-1.311-2.282-1.414c-1.66-0.143-3.308-0.675-3.308-2.49c0-1.867,1.647-2.75,3.411-2.75
			c1.725,0,3.359,0.778,3.398,2.634h-1.426c-0.065-0.974-1.09-1.284-1.985-1.284c-0.83,0-1.906,0.337-1.906,1.361
			s1.024,1.154,2.075,1.297c1.842,0.208,3.528,0.571,3.528,2.659c0,1.997-1.881,2.75-3.58,2.75c-1.777,0.038-3.631-0.844-3.67-2.75
			H7.238z"/>
		<path fill="#EC008C" d="M16.099,777.816l-0.882,1.881h-1.582v-0.194l4.202-8.949h0.7l4.176,8.949v0.194h-1.569l-0.895-1.881
			H16.099z M16.592,776.546h3.178l-1.583-3.632L16.592,776.546z"/>
		<path fill="#EC008C" d="M22.275,771.954v-1.336h6.744v1.336h-2.633v7.743h-1.479v-7.743H22.275z"/>
	</g>
</g>
</svg>
