<?xml version="1.0" encoding="utf-8"?>
<!-- Generator: Adobe Illustrator 15.1.0, SVG Export Plug-In . SVG Version: 6.00 Build 0)  -->
<!DOCTYPE svg PUBLIC "-//W3C//DTD SVG 1.1//EN" "http://www.w3.org/Graphics/SVG/1.1/DTD/svg11.dtd">
<svg version="1.1" id="Layer_1" xmlns="http://www.w3.org/2000/svg" xmlns:xlink="http://www.w3.org/1999/xlink" x="0px" y="0px"
	 width="288px" height="144px" viewBox="0 0 288 144" enable-background="new 0 0 288 144" xml:space="preserve">
<g>
	<path d="M100.276,70.78l-9.515,0.66c-4.73,0.33-8.085,1.65-8.085,5.886c0,5.719,5.775,6.379,9.185,6.379
		c5.61,0,13.035-2.529,13.035-9.24v-5.169h-0.11C104.181,69.954,102.696,70.614,100.276,70.78z"/>
	<path d="M36,27v76.779h91.569L144,117l16.431-13.221H252V27H36z M76.979,85.025h-2.53v-6.16h-0.11
		c-1.32,3.355-5.225,7.041-12.485,7.041c-9.9,0-15.015-7.041-15.015-15.017c0-8.965,6.435-14.904,15.015-14.904
		c6.93,0,10.835,3.795,12.485,6.875h0.11V45.754h2.53V85.025z M111.771,85.137c-0.77,0.273-1.815,0.439-3.08,0.439
		c-3.465,0-3.465-2.42-3.465-6.16h-0.11c-3.135,5.775-9.735,6.49-13.42,6.49c-2.42,0-11.55,0-11.55-8.58
		c0-5.777,4.895-7.757,10.615-8.087l9.845-0.66c2.915-0.219,4.29-0.549,4.29-4.014c0-3.795-2.145-6.381-10.45-6.381
		c-7.425,0-9.735,2.311-10.505,7.371h-2.53c0.935-7.096,4.565-9.57,13.09-9.57c8.195,0,12.925,1.925,12.925,8.25v15.787
		c0,2.09,0,3.354,1.87,3.354c0.825,0,1.65-0.164,2.475-0.439V85.137z M132.065,85.906c-15.95,0-20.845-12.816-20.845-20.517
		c0-7.699,4.895-20.515,20.845-20.515c15.951,0,20.845,12.815,20.845,20.515C152.91,73.09,148.016,85.906,132.065,85.906z
		 M201.845,85.025h-2.529v-35.75h-0.11l-18.976,35.75H177.7l-18.976-35.75h-0.109v35.75h-2.53V45.754h3.795l19.085,36.082
		l19.085-36.082h3.795V85.025z M238.97,85.025l-5.775-12.65h-21.67l-5.775,12.65h-2.86l18.041-39.271h2.859l18.04,39.271H238.97z"/>
	<path d="M132.065,47.075c-11.825,0-18.315,8.91-18.315,18.314c0,9.406,6.49,18.316,18.315,18.316
		c11.825,0,18.315-8.91,18.315-18.316C150.38,55.985,143.89,47.075,132.065,47.075z"/>
	<polygon points="212.515,70.174 232.204,70.174 222.359,48.615 	"/>
	<path d="M61.908,58.184c-6.49,0-12.54,4.07-12.54,12.65c0,8.085,5.225,12.871,12.21,12.871c10.56,0,13.2-7.479,13.2-12.486
		C74.778,61.32,67.628,58.184,61.908,58.184z"/>
</g>
</svg>
