<?xml version="1.0" encoding="utf-8"?>
<!-- Generator: Adobe Illustrator 15.1.0, SVG Export Plug-In . SVG Version: 6.00 Build 0)  -->
<!DOCTYPE svg PUBLIC "-//W3C//DTD SVG 1.1//EN" "http://www.w3.org/Graphics/SVG/1.1/DTD/svg11.dtd">
<svg version="1.1" id="Layer_1" xmlns="http://www.w3.org/2000/svg" xmlns:xlink="http://www.w3.org/1999/xlink" x="0px" y="0px"
	 width="400px" height="300px" viewBox="0 0 400 300" enable-background="new 0 0 400 300" xml:space="preserve">
<g>
	<path fill="none" stroke="#231F20" d="M223.327,68.354c-0.593-0.097-1.185-0.199-1.778-0.302"/>
	<path fill="none" stroke="#231F20" stroke-dasharray="4.025,4.025" d="M217.981,67.387c-29.493-5.808-57.895-19.228-82.113-40.484
		c-24.707-21.689-41.89-48.751-51.359-77.905"/>
	<polygon fill="#EC207A" points="224.282,74.883 223.088,72.847 227.887,70.028 225.068,65.227 227.104,64.033 231.118,70.871 	"/>
	<path fill="none" stroke="#231F20" d="M103.609,195.052c-0.566,0.209-1.128,0.417-1.692,0.63"/>
	<path fill="none" stroke="#231F20" stroke-dasharray="4.025,4.025" d="M98.536,196.998c-27.898,11.195-53.307,29.666-73.145,55.054
		C5.148,277.959-6.702,307.747-10.581,338.15"/>
	<path fill="none" stroke="#231F20" d="M-10.801,339.942c-0.07,0.598-0.138,1.194-0.201,1.794"/>
	<polygon fill="#EC207A" points="103.432,188.997 102.637,191.218 107.877,193.098 106,198.34 108.224,199.134 110.897,191.671 	"/>
</g>
</svg>
