<?xml version="1.0" encoding="utf-8"?>
<!-- Generator: Adobe Illustrator 15.1.0, SVG Export Plug-In . SVG Version: 6.00 Build 0)  -->
<!DOCTYPE svg PUBLIC "-//W3C//DTD SVG 1.1//EN" "http://www.w3.org/Graphics/SVG/1.1/DTD/svg11.dtd">
<svg version="1.1" id="Layer_1" xmlns="http://www.w3.org/2000/svg" xmlns:xlink="http://www.w3.org/1999/xlink" x="0px" y="0px"
	 width="400px" height="400px" viewBox="0 0 400 400" enable-background="new 0 0 400 400" xml:space="preserve">
<g>
	<g>
		<g>
			<g>
				<path fill="none" stroke="#231F20" d="M267.311,153.084c-0.694-0.176-1.39-0.358-2.086-0.541"/>
			</g>
		</g>
	</g>
	<g>
		<g>
			<g>
				<path fill="none" stroke="#231F20" stroke-dasharray="4.025,4.025" d="M261.051,151.387
					c-34.484-9.925-66.893-28.792-93.52-56.55c-27.167-28.324-44.835-62.268-53.115-97.911"/>
			</g>
		</g>
	</g>
	<g>
		<g>
			<g>
				<polygon fill="#EC207A" points="267.777,160.945 266.564,158.403 272.562,155.54 269.701,149.543 272.243,148.33 
					276.318,156.873 				"/>
			</g>
		</g>
	</g>
	<g>
		<g>
			<g>
				<path fill="none" stroke="#231F20" d="M116.203,301.73c-0.581,0.152-1.162,0.313-1.741,0.473"/>
			</g>
		</g>
	</g>
	<g>
		<g>
			<g>
				<path fill="none" stroke="#231F20" stroke-dasharray="4.025,4.025" d="M110.974,303.208
					c-28.796,8.624-55.771,24.719-77.826,48.209c-22.505,23.969-37.002,52.561-43.617,82.487"/>
			</g>
		</g>
	</g>
	<g>
		<g>
			<g>
				<polygon fill="#EC207A" points="116.575,295.682 115.583,297.822 120.631,300.168 118.287,305.22 120.429,306.21 
					123.769,299.021 				"/>
			</g>
		</g>
	</g>
</g>
</svg>
