<?xml version="1.0" encoding="utf-8"?>
<!-- Generator: Adobe Illustrator 15.1.0, SVG Export Plug-In . SVG Version: 6.00 Build 0)  -->
<!DOCTYPE svg PUBLIC "-//W3C//DTD SVG 1.1//EN" "http://www.w3.org/Graphics/SVG/1.1/DTD/svg11.dtd">
<svg version="1.1" id="Layer_1" xmlns="http://www.w3.org/2000/svg" xmlns:xlink="http://www.w3.org/1999/xlink" x="0px" y="0px"
	 width="400px" height="400px" viewBox="0 0 400 400" enable-background="new 0 0 400 400" xml:space="preserve">
<g>
	<defs>
		<rect id="SVGID_1_" y="-39.942" width="400" height="399.823"/>
	</defs>
	<clipPath id="SVGID_2_">
		<use xlink:href="#SVGID_1_"  overflow="visible"/>
	</clipPath>
	<path clip-path="url(#SVGID_2_)" fill="none" stroke="#231F20" d="M-60.548,128.615c-0.564,0.209-1.127,0.419-1.688,0.635"/>
	<polygon clip-path="url(#SVGID_2_)" fill="#EC207A" points="224.093,142.227 222.472,140.509 218.422,144.327 214.603,140.279 
		212.885,141.9 218.325,147.666 	"/>
	<polygon clip-path="url(#SVGID_2_)" fill="#FFFFFF" stroke="#FFFFFF" points="224.093,142.227 222.472,140.509 218.422,144.327 
		214.603,140.279 212.885,141.9 218.325,147.666 	"/>
	<path clip-path="url(#SVGID_2_)" fill="none" stroke="#231F20" stroke-dasharray="4.008,4.008" d="M-66.369-147.861
		C14.07-104.67,84.073-39.606,133.756,44.84c50.134,85.218,85.392,156.351,89.057,270.335"/>
	<path clip-path="url(#SVGID_2_)" fill="none" stroke="#231F20" d="M222.868,316.987c0.018,0.601,0.034,1.202,0.049,1.805"/>
	<polygon clip-path="url(#SVGID_2_)" fill="#EC207A" points="228.773,321.261 227.154,319.545 223.103,323.363 219.283,319.313 
		217.567,320.936 223.006,326.703 	"/>
	<polygon clip-path="url(#SVGID_2_)" fill="#FFFFFF" stroke="#FFFFFF" points="228.773,321.261 227.154,319.545 223.103,323.363 
		219.283,319.313 217.567,320.936 223.006,326.703 	"/>
	<path clip-path="url(#SVGID_2_)" fill="none" stroke="#231F20" stroke-dasharray="4.013,4.013" d="M-198.395-575.187
		c123.961,65.983,231.862,165.87,308.287,295.776C186.644-148.943,221.509-5.437,218.635,135.553"/>
	<path clip-path="url(#SVGID_2_)" fill="none" stroke="#231F20" d="M218.596,137.366c-0.014,0.601-0.028,1.202-0.043,1.803"/>
</g>
</svg>
