<?xml version="1.0" encoding="utf-8"?>
<!-- Generator: Adobe Illustrator 15.1.0, SVG Export Plug-In . SVG Version: 6.00 Build 0)  -->
<!DOCTYPE svg PUBLIC "-//W3C//DTD SVG 1.1//EN" "http://www.w3.org/Graphics/SVG/1.1/DTD/svg11.dtd">
<svg version="1.1" id="Layer_1" xmlns="http://www.w3.org/2000/svg" xmlns:xlink="http://www.w3.org/1999/xlink" x="0px" y="0px"
	 width="400px" height="400px" viewBox="0 0 400 400" enable-background="new 0 0 400 400" xml:space="preserve">
<g>
	<defs>
		<rect id="SVGID_1_" x="-59.046" width="399.823" height="400"/>
	</defs>
	<clipPath id="SVGID_2_">
		<use xlink:href="#SVGID_1_"  overflow="visible"/>
	</clipPath>
	<path clip-path="url(#SVGID_2_)" fill="none" stroke="#231F20" d="M105.699,279.521c-0.41,0.44-0.817,0.883-1.222,1.327"/>
	<path clip-path="url(#SVGID_2_)" fill="none" stroke="#231F20" stroke-dasharray="4.025,4.025" d="M102.06,283.556
		c-19.782,22.634-34.044,50.622-40.204,82.248c-6.286,32.271-3.331,64.193,7.007,93.047"/>
	<path clip-path="url(#SVGID_2_)" fill="none" stroke="#231F20" d="M69.48,460.548c0.209,0.564,0.419,1.127,0.635,1.688"/>
	<polygon clip-path="url(#SVGID_2_)" fill="#EC207A" points="102.793,274.204 103.093,276.544 108.615,275.841 109.321,281.364 
		111.662,281.062 110.66,273.199 	"/>
	<polygon clip-path="url(#SVGID_2_)" fill="#FFFFFF" stroke="#FFFFFF" points="102.793,274.204 103.093,276.544 108.615,275.841 
		109.321,281.364 111.662,281.062 110.66,273.199 	"/>
</g>
</svg>
