<?xml version="1.0" encoding="utf-8"?>
<!-- Generator: Adobe Illustrator 15.1.0, SVG Export Plug-In . SVG Version: 6.00 Build 0)  -->
<!DOCTYPE svg PUBLIC "-//W3C//DTD SVG 1.1//EN" "http://www.w3.org/Graphics/SVG/1.1/DTD/svg11.dtd">
<svg version="1.1" id="Layer_1" xmlns="http://www.w3.org/2000/svg" xmlns:xlink="http://www.w3.org/1999/xlink" x="0px" y="0px"
	 width="400px" height="400px" viewBox="0 0 400 400" enable-background="new 0 0 400 400" xml:space="preserve">
<g>
	<defs>
		<rect id="SVGID_1_" x="-59.046" width="399.823" height="400"/>
	</defs>
	<clipPath id="SVGID_2_">
		<use xlink:href="#SVGID_1_"  overflow="visible"/>
	</clipPath>
	<path clip-path="url(#SVGID_2_)" fill="none" stroke="#231F20" d="M223.327,118.355c-0.593-0.097-1.185-0.199-1.778-0.302"/>
	<path clip-path="url(#SVGID_2_)" fill="none" stroke="#231F20" stroke-dasharray="4.025,4.025" d="M217.981,117.388
		c-29.493-5.808-57.895-19.228-82.113-40.484c-24.707-21.689-41.89-48.751-51.359-77.905"/>
	<polygon clip-path="url(#SVGID_2_)" fill="#EC207A" points="224.282,124.883 223.088,122.848 227.887,120.028 225.068,115.228 
		227.104,114.033 231.118,120.871 	"/>
	<polygon clip-path="url(#SVGID_2_)" fill="#FFFFFF" stroke="#FFFFFF" points="224.282,124.34 223.088,122.304 227.887,119.485 
		225.068,114.684 227.104,113.49 231.118,120.328 	"/>
	<path clip-path="url(#SVGID_2_)" fill="none" stroke="#231F20" d="M105.699,279.521c-0.41,0.44-0.817,0.883-1.222,1.327"/>
	<path clip-path="url(#SVGID_2_)" fill="none" stroke="#231F20" stroke-dasharray="4.025,4.025" d="M102.06,283.556
		c-19.782,22.634-34.044,50.622-40.204,82.248c-6.286,32.271-3.331,64.193,7.007,93.047"/>
	<path clip-path="url(#SVGID_2_)" fill="none" stroke="#231F20" d="M69.48,460.548c0.209,0.564,0.419,1.127,0.635,1.688"/>
	<polygon clip-path="url(#SVGID_2_)" fill="#EC207A" points="102.793,274.204 103.093,276.544 108.615,275.841 109.321,281.364 
		111.662,281.062 110.66,273.199 	"/>
	<polygon clip-path="url(#SVGID_2_)" fill="#FFFFFF" stroke="#FFFFFF" points="102.793,274.204 103.093,276.544 108.615,275.841 
		109.321,281.364 111.662,281.062 110.66,273.199 	"/>
	<polygon clip-path="url(#SVGID_2_)" fill="#EC207A" points="123.123,155.891 121.405,157.513 125.223,161.562 121.175,165.381 
		122.796,167.1 128.562,161.659 	"/>
	<polygon clip-path="url(#SVGID_2_)" fill="#FFFFFF" stroke="#FFFFFF" points="123.123,155.891 121.405,157.513 125.223,161.562 
		121.175,165.381 122.796,167.1 128.562,161.659 	"/>
	<polygon clip-path="url(#SVGID_2_)" fill="#EC207A" points="81.654,119.636 79.936,121.258 83.755,125.308 79.707,129.127 
		81.327,130.845 87.095,125.405 	"/>
	<polygon clip-path="url(#SVGID_2_)" fill="#FFFFFF" stroke="#FFFFFF" points="81.654,119.636 79.936,121.258 83.755,125.308 
		79.707,129.127 81.327,130.845 87.095,125.405 	"/>
	<path clip-path="url(#SVGID_2_)" fill="none" stroke="#231F20" stroke-dasharray="4.008,4.008" d="M-166.965,466.369
		C-123.774,385.93-58.71,315.927,25.736,266.244c85.218-50.134,156.351-85.392,270.335-89.057"/>
	<path clip-path="url(#SVGID_2_)" fill="none" stroke="#231F20" d="M297.884,177.132c0.601-0.018,1.202-0.035,1.805-0.049"/>
	<polygon clip-path="url(#SVGID_2_)" fill="#EC207A" points="302.157,171.226 300.441,172.846 304.26,176.897 300.21,180.716 
		301.832,182.433 307.6,176.994 	"/>
	<polygon clip-path="url(#SVGID_2_)" fill="#FFFFFF" stroke="#FFFFFF" points="302.157,171.226 300.441,172.846 304.26,176.897 
		300.21,180.716 301.832,182.433 307.6,176.994 	"/>
	<path clip-path="url(#SVGID_2_)" fill="none" stroke="#231F20" stroke-dasharray="4.013,4.013" d="M-594.291,578.379
		c65.983-123.961,165.87-231.862,295.776-308.287c130.467-76.751,273.974-111.616,414.963-108.743"/>
	<path clip-path="url(#SVGID_2_)" fill="none" stroke="#231F20" d="M118.262,161.389c0.601,0.013,1.202,0.028,1.803,0.042"/>
	<path clip-path="url(#SVGID_2_)" fill="none" stroke="#231F20" stroke-dasharray="4.013,4.013" d="M-636.398-292.216
		c65.982,123.961,165.87,231.864,295.775,308.288c130.469,76.75,273.974,111.614,414.963,108.742"/>
	<path clip-path="url(#SVGID_2_)" fill="none" stroke="#231F20" d="M76.154,124.774c0.601-0.014,1.202-0.028,1.803-0.042"/>
</g>
</svg>
