<?xml version="1.0" encoding="utf-8"?>
<!-- Generator: Adobe Illustrator 15.1.0, SVG Export Plug-In . SVG Version: 6.00 Build 0)  -->
<!DOCTYPE svg PUBLIC "-//W3C//DTD SVG 1.1//EN" "http://www.w3.org/Graphics/SVG/1.1/DTD/svg11.dtd">
<svg version="1.1" id="Layer_1" xmlns="http://www.w3.org/2000/svg" xmlns:xlink="http://www.w3.org/1999/xlink" x="0px" y="0px"
	 width="400px" height="400px" viewBox="0 0 400 400" enable-background="new 0 0 400 400" xml:space="preserve">
<g>
	<defs>
		<rect id="SVGID_1_" x="-59.046" width="399.823" height="400"/>
	</defs>
	<clipPath id="SVGID_2_">
		<use xlink:href="#SVGID_1_"  overflow="visible"/>
	</clipPath>
	<path clip-path="url(#SVGID_2_)" fill="none" stroke="#231F20" d="M69.48,460.548c0.209,0.564,0.419,1.127,0.635,1.688"/>
	<polygon clip-path="url(#SVGID_2_)" fill="#EC207A" points="81.654,119.636 79.936,121.258 83.755,125.308 79.707,129.127 
		81.327,130.845 87.095,125.405 	"/>
	<polygon clip-path="url(#SVGID_2_)" fill="#FFFFFF" stroke="#FFFFFF" points="81.654,119.636 79.936,121.258 83.755,125.308 
		79.707,129.127 81.327,130.845 87.095,125.405 	"/>
	<path clip-path="url(#SVGID_2_)" fill="none" stroke="#231F20" stroke-dasharray="4.013,4.013" d="M-636.398-292.216
		c65.982,123.961,165.87,231.864,295.775,308.288c130.469,76.75,273.974,111.614,414.963,108.742"/>
	<path clip-path="url(#SVGID_2_)" fill="none" stroke="#231F20" d="M76.154,124.774c0.601-0.014,1.202-0.028,1.803-0.042"/>
</g>
</svg>
