<?xml version="1.0" encoding="utf-8"?>
<!-- Generator: Adobe Illustrator 15.1.0, SVG Export Plug-In . SVG Version: 6.00 Build 0)  -->
<!DOCTYPE svg PUBLIC "-//W3C//DTD SVG 1.1//EN" "http://www.w3.org/Graphics/SVG/1.1/DTD/svg11.dtd">
<svg version="1.1" id="Layer_1" xmlns="http://www.w3.org/2000/svg" xmlns:xlink="http://www.w3.org/1999/xlink" x="0px" y="0px"
	 width="1270px" height="1225.398px" viewBox="0 0 1270 1225.398" enable-background="new 0 0 1270 1225.398" xml:space="preserve">
<polygon fill="#FBFBFB" points="1270,0 769.648,0 1270,880 "/>
<polygon fill="#F8F8F9" points="769.648,0 339.5,708.5 1036.245,466.073 "/>
<polygon fill="#F6F6F6" points="917.5,880 339.5,708.5 1036.245,466.073 "/>
<polygon fill="#F1F2F2" points="917.5,880 1036.245,466.073 1270,880 "/>
<polygon fill="#F1F2F2" points="339.5,708.5 0,1192.395 917.5,880 "/>
<polygon fill="#FCFCFC" points="0,0 339.5,708.5 769.648,0 "/>
<polygon fill="#FEFEFE" points="0,0 339.5,708.5 0,1192.395 "/>
<g>
	<path fill="#E90C8B" d="M591.276,318.687l-9.516,0.66c-4.729,0.329-8.085,1.649-8.085,5.886c0,5.719,5.775,6.379,9.186,6.379
		c5.609,0,13.034-2.529,13.034-9.24v-5.169h-0.109C595.181,317.86,593.696,318.521,591.276,318.687z"/>
	<path fill="#E90C8B" d="M527,274.906v76.779h91.569L635,364.906l16.432-13.221H743v-76.779H527z M567.979,332.932h-2.529v-6.16
		h-0.11c-1.32,3.354-5.225,7.041-12.485,7.041c-9.899,0-15.015-7.041-15.015-15.018c0-8.965,6.436-14.903,15.015-14.903
		c6.931,0,10.836,3.795,12.485,6.875h0.11V293.66h2.529V332.932z M602.771,333.043c-0.771,0.273-1.815,0.439-3.08,0.439
		c-3.466,0-3.466-2.42-3.466-6.16h-0.109c-3.136,5.775-9.735,6.49-13.42,6.49c-2.42,0-11.55,0-11.55-8.58
		c0-5.777,4.895-7.757,10.614-8.087l9.845-0.66c2.915-0.219,4.29-0.549,4.29-4.014c0-3.796-2.145-6.382-10.449-6.382
		c-7.426,0-9.735,2.312-10.505,7.371h-2.53c0.935-7.096,4.564-9.569,13.09-9.569c8.195,0,12.925,1.925,12.925,8.25v15.786
		c0,2.091,0,3.354,1.87,3.354c0.825,0,1.65-0.164,2.475-0.438L602.771,333.043L602.771,333.043z M623.065,333.812
		c-15.95,0-20.846-12.816-20.846-20.518c0-7.698,4.896-20.515,20.846-20.515s20.845,12.815,20.845,20.515
		C643.91,320.996,639.016,333.812,623.065,333.812z M692.846,332.932h-2.528v-35.75h-0.11l-18.976,35.75h-2.53l-18.977-35.75h-0.108
		v35.75h-2.53V293.66h3.795l19.085,36.082l19.085-36.082h3.796L692.846,332.932L692.846,332.932z M729.971,332.932l-5.774-12.65
		h-21.67l-5.775,12.65h-2.859l18.041-39.271h2.858l18.04,39.271H729.971z"/>
	<path fill="#E90C8B" d="M623.065,294.981c-11.825,0-18.315,8.91-18.315,18.313c0,9.406,6.49,18.316,18.315,18.316
		c11.824,0,18.314-8.91,18.314-18.316C641.38,303.892,634.89,294.981,623.065,294.981z"/>
	<polygon fill="#E90C8B" points="703.516,318.08 723.204,318.08 713.359,296.521 	"/>
	<path fill="#E90C8B" d="M552.908,306.09c-6.49,0-12.54,4.07-12.54,12.65c0,8.085,5.225,12.871,12.21,12.871
		c10.56,0,13.2-7.479,13.2-12.486C565.778,309.227,558.628,306.09,552.908,306.09z"/>
</g>
<ellipse opacity="0.03" enable-background="new    " cx="636.417" cy="396.59" rx="97.083" ry="5.649"/>
</svg>
