<?xml version="1.0" encoding="utf-8"?>
<!-- Generator: Adobe Illustrator 16.2.1, SVG Export Plug-In . SVG Version: 6.00 Build 0)  -->
<!DOCTYPE svg PUBLIC "-//W3C//DTD SVG 1.1//EN" "http://www.w3.org/Graphics/SVG/1.1/DTD/svg11.dtd">
<svg version="1.1" id="Layer_1" xmlns="http://www.w3.org/2000/svg" xmlns:xlink="http://www.w3.org/1999/xlink" x="0px" y="0px"
	 width="320px" height="230px" viewBox="-116.261 -82.913 320 230" enable-background="new -116.261 -82.913 320 230"
	 xml:space="preserve">
<g opacity="0.5">
	<path fill="#E6E7E8" d="M47.981-6.297v76.771c0,47.826-36.806,75.823-81.807,75.823c-45.62,0-82.435-27.997-82.435-75.823V-6.297
		c0-47.508,36.815-75.827,82.435-75.827C11.171-82.124,47.981-53.805,47.981-6.297z M2.991,75.516
		c0.628-5.35,0.944-11.016,0.944-17.621V6.605c0-6.288-0.316-12.27-0.944-17.93C0.787-31.15-14.63-40.904-33.826-40.904
		c-20.136,0-34.923,9.753-37.124,29.579c-0.632,5.66-0.944,11.642-0.944,17.93v51.29c0,6.605,0.316,12.271,0.944,17.621
		c2.201,19.189,16.991,29.573,37.124,29.573C-14.63,105.089,0.787,94.705,2.991,75.516z"/>
	<path fill="#E6E7E8" d="M87.952-41.532v-36.815h77.712v184.06h38.075v36.187H83.543v-36.187h37.135V-41.532H87.952z"/>
</g>
</svg>
